%TF.GenerationSoftware,KiCad,Pcbnew,9.0.6-rc2*%
%TF.CreationDate,2025-10-27T21:23:21+01:00*%
%TF.ProjectId,windsensor,77696e64-7365-46e7-936f-722e6b696361,v1.0*%
%TF.SameCoordinates,Original*%
%TF.FileFunction,Drillmap*%
%TF.FilePolarity,Positive*%
%FSLAX45Y45*%
G04 Gerber Fmt 4.5, Leading zero omitted, Abs format (unit mm)*
G04 Created by KiCad (PCBNEW 9.0.6-rc2) date 2025-10-27 21:23:21*
%MOMM*%
%LPD*%
G01*
G04 APERTURE LIST*
%ADD10C,0.200000*%
%ADD11C,0.000000*%
%ADD12C,0.100000*%
%ADD13C,0.320000*%
G04 APERTURE END LIST*
D10*
X14550000Y-6500000D02*
X15450000Y-6500000D01*
X17793072Y-11732412D02*
G75*
G02*
X17793068Y-12156672I-212142J-212128D01*
G01*
X12206928Y-8267588D02*
G75*
G02*
X12206928Y-7843324I212131J212132D01*
G01*
X12681390Y-9064805D02*
X12699212Y-9021778D01*
X18500000Y-10450000D02*
G75*
G02*
X18200000Y-10750000I-300000J0D01*
G01*
X12634181Y-8694841D02*
G75*
G02*
X12699208Y-9021776I-212141J-212129D01*
G01*
X12681390Y-9064805D02*
G75*
G02*
X12404226Y-9249999I-277170J114815D01*
G01*
X17318610Y-10935195D02*
G75*
G02*
X17595774Y-10750001I277170J-114815D01*
G01*
X15750000Y-13200000D02*
G75*
G02*
X15450000Y-13500000I-300000J0D01*
G01*
X14021778Y-7699212D02*
G75*
G02*
X13694840Y-7634181I-114808J277152D01*
G01*
X14064805Y-12318610D02*
G75*
G02*
X14249999Y-12595774I-114815J-277170D01*
G01*
X17300788Y-9021778D02*
X17318610Y-9064805D01*
X18200000Y-10750000D02*
X17595774Y-10750000D01*
X12843324Y-12793072D02*
X12206928Y-12156676D01*
X15935195Y-7681390D02*
X15978222Y-7699212D01*
X16732412Y-12793072D02*
X16305159Y-12365819D01*
X17793072Y-8267588D02*
X17365819Y-8694841D01*
X13267588Y-12793072D02*
G75*
G02*
X12843324Y-12793072I-212132J212132D01*
G01*
X17793072Y-7843324D02*
G75*
G02*
X17793076Y-8267592I-212122J-212136D01*
G01*
X14550000Y-13500000D02*
G75*
G02*
X14250000Y-13200000I0J300000D01*
G01*
X12404226Y-10750000D02*
G75*
G02*
X12681388Y-10935196I4J-299990D01*
G01*
X17793072Y-12156676D02*
X17156676Y-12793072D01*
X17318610Y-10935195D02*
X17300788Y-10978222D01*
X13267588Y-7206928D02*
X13694841Y-7634181D01*
X14250000Y-6800000D02*
X14250000Y-7404226D01*
X12206928Y-11732412D02*
X12634181Y-11305159D01*
X14064805Y-12318610D02*
X14021778Y-12300788D01*
X18200000Y-9250000D02*
X17595774Y-9250000D01*
X13267588Y-12793072D02*
X13694841Y-12365819D01*
X15450000Y-13500000D02*
X14550000Y-13500000D01*
X12206928Y-12156676D02*
G75*
G02*
X12206928Y-11732412I212133J212132D01*
G01*
X17156676Y-12793072D02*
G75*
G02*
X16732411Y-12793072I-212132J212132D01*
G01*
X13694841Y-12365819D02*
G75*
G02*
X14021776Y-12300792I212129J-212141D01*
G01*
X11800000Y-9250000D02*
X12404226Y-9250000D01*
X15750000Y-6800000D02*
X15750000Y-7404226D01*
X14250000Y-13200000D02*
X14250000Y-12595774D01*
X12843324Y-7206928D02*
G75*
G02*
X13267588Y-7206928I212132J-212132D01*
G01*
X17300788Y-9021778D02*
G75*
G02*
X17365819Y-8694840I277152J114808D01*
G01*
X17365819Y-11305159D02*
G75*
G02*
X17300792Y-10978224I212141J212129D01*
G01*
X17156676Y-7206928D02*
X17793072Y-7843324D01*
X11800000Y-10750000D02*
G75*
G02*
X11500000Y-10450000I0J300000D01*
G01*
X15935195Y-7681390D02*
G75*
G02*
X15750001Y-7404226I114815J277170D01*
G01*
X11800000Y-10750000D02*
X12404226Y-10750000D01*
X14064805Y-7681390D02*
X14021778Y-7699212D01*
X15978222Y-12300788D02*
X15935195Y-12318610D01*
X15978222Y-12300788D02*
G75*
G02*
X16305160Y-12365819I114808J-277152D01*
G01*
X11500000Y-10450000D02*
X11500000Y-9550000D01*
X18500000Y-10450000D02*
X18500000Y-9550000D01*
X17793072Y-11732412D02*
X17365819Y-11305159D01*
X12699212Y-10978222D02*
G75*
G02*
X12634181Y-11305160I-277152J-114808D01*
G01*
X16305159Y-7634181D02*
G75*
G02*
X15978224Y-7699208I-212129J212141D01*
G01*
X15750000Y-12595774D02*
G75*
G02*
X15935196Y-12318612I299990J4D01*
G01*
X15450000Y-6500000D02*
G75*
G02*
X15750000Y-6800000I0J-300000D01*
G01*
X17595774Y-9250000D02*
G75*
G02*
X17318612Y-9064804I-4J299990D01*
G01*
X15750000Y-13200000D02*
X15750000Y-12595774D01*
X14250000Y-7404226D02*
G75*
G02*
X14064804Y-7681388I-299990J-4D01*
G01*
X16732412Y-7206928D02*
G75*
G02*
X17156676Y-7206928I212132J-212132D01*
G01*
X11500000Y-9550000D02*
G75*
G02*
X11800000Y-9250000I300000J0D01*
G01*
X16732412Y-7206928D02*
X16305159Y-7634181D01*
X12206928Y-8267588D02*
X12634181Y-8694841D01*
X18200000Y-9250000D02*
G75*
G02*
X18500000Y-9550000I0J-300000D01*
G01*
X12699212Y-10978222D02*
X12681390Y-10935195D01*
X14250000Y-6800000D02*
G75*
G02*
X14550000Y-6500000I300000J0D01*
G01*
X12206928Y-7843324D02*
X12843324Y-7206928D01*
D11*
G36*
X14049134Y-9458806D02*
G01*
X14060438Y-9465332D01*
X14069668Y-9474562D01*
X14076194Y-9485866D01*
X14079572Y-9498474D01*
X14079572Y-9511526D01*
X14076194Y-9524134D01*
X14069668Y-9535438D01*
X14060438Y-9544668D01*
X14049134Y-9551194D01*
X14036526Y-9554572D01*
X14023474Y-9554572D01*
X14010866Y-9551194D01*
X13999562Y-9544668D01*
X13990332Y-9535438D01*
X13983806Y-9524134D01*
X13980428Y-9511526D01*
X13980428Y-9498474D01*
X13983806Y-9485866D01*
X13990332Y-9474562D01*
X13999562Y-9465332D01*
X14010866Y-9458806D01*
X14023474Y-9455428D01*
X14036526Y-9455428D01*
X14049134Y-9458806D01*
G37*
G36*
X14049134Y-10258806D02*
G01*
X14060438Y-10265332D01*
X14069668Y-10274562D01*
X14076194Y-10285866D01*
X14079572Y-10298474D01*
X14079572Y-10311526D01*
X14076194Y-10324134D01*
X14069668Y-10335438D01*
X14060438Y-10344668D01*
X14049134Y-10351194D01*
X14036526Y-10354572D01*
X14023474Y-10354572D01*
X14010866Y-10351194D01*
X13999562Y-10344668D01*
X13990332Y-10335438D01*
X13983806Y-10324134D01*
X13980428Y-10311526D01*
X13980428Y-10298474D01*
X13983806Y-10285866D01*
X13990332Y-10274562D01*
X13999562Y-10265332D01*
X14010866Y-10258806D01*
X14023474Y-10255428D01*
X14036526Y-10255428D01*
X14049134Y-10258806D01*
G37*
D10*
D12*
X14678500Y-12836000D02*
X14743500Y-12901000D01*
X14743500Y-12836000D02*
X14678500Y-12901000D01*
X15256500Y-12836000D02*
X15321500Y-12901000D01*
X15321500Y-12836000D02*
X15256500Y-12901000D01*
D13*
X14394633Y-11847759D02*
G75*
G02*
X14074633Y-11847759I-160000J0D01*
G01*
X14074633Y-11847759D02*
G75*
G02*
X14394633Y-11847759I160000J0D01*
G01*
X15925367Y-8152241D02*
G75*
G02*
X15605367Y-8152241I-160000J0D01*
G01*
X15605367Y-8152241D02*
G75*
G02*
X15925367Y-8152241I160000J0D01*
G01*
D10*
X11750777Y-13821484D02*
X11750777Y-13621484D01*
X11750777Y-13621484D02*
X11798396Y-13621484D01*
X11798396Y-13621484D02*
X11826967Y-13631008D01*
X11826967Y-13631008D02*
X11846015Y-13650055D01*
X11846015Y-13650055D02*
X11855539Y-13669103D01*
X11855539Y-13669103D02*
X11865062Y-13707198D01*
X11865062Y-13707198D02*
X11865062Y-13735769D01*
X11865062Y-13735769D02*
X11855539Y-13773865D01*
X11855539Y-13773865D02*
X11846015Y-13792912D01*
X11846015Y-13792912D02*
X11826967Y-13811960D01*
X11826967Y-13811960D02*
X11798396Y-13821484D01*
X11798396Y-13821484D02*
X11750777Y-13821484D01*
X11950777Y-13821484D02*
X11950777Y-13688150D01*
X11950777Y-13726246D02*
X11960301Y-13707198D01*
X11960301Y-13707198D02*
X11969824Y-13697674D01*
X11969824Y-13697674D02*
X11988872Y-13688150D01*
X11988872Y-13688150D02*
X12007920Y-13688150D01*
X12074586Y-13821484D02*
X12074586Y-13688150D01*
X12074586Y-13621484D02*
X12065062Y-13631008D01*
X12065062Y-13631008D02*
X12074586Y-13640531D01*
X12074586Y-13640531D02*
X12084110Y-13631008D01*
X12084110Y-13631008D02*
X12074586Y-13621484D01*
X12074586Y-13621484D02*
X12074586Y-13640531D01*
X12198396Y-13821484D02*
X12179348Y-13811960D01*
X12179348Y-13811960D02*
X12169824Y-13792912D01*
X12169824Y-13792912D02*
X12169824Y-13621484D01*
X12303158Y-13821484D02*
X12284110Y-13811960D01*
X12284110Y-13811960D02*
X12274586Y-13792912D01*
X12274586Y-13792912D02*
X12274586Y-13621484D01*
X12531729Y-13821484D02*
X12531729Y-13621484D01*
X12531729Y-13621484D02*
X12598396Y-13764341D01*
X12598396Y-13764341D02*
X12665062Y-13621484D01*
X12665062Y-13621484D02*
X12665062Y-13821484D01*
X12846015Y-13821484D02*
X12846015Y-13716722D01*
X12846015Y-13716722D02*
X12836491Y-13697674D01*
X12836491Y-13697674D02*
X12817443Y-13688150D01*
X12817443Y-13688150D02*
X12779348Y-13688150D01*
X12779348Y-13688150D02*
X12760301Y-13697674D01*
X12846015Y-13811960D02*
X12826967Y-13821484D01*
X12826967Y-13821484D02*
X12779348Y-13821484D01*
X12779348Y-13821484D02*
X12760301Y-13811960D01*
X12760301Y-13811960D02*
X12750777Y-13792912D01*
X12750777Y-13792912D02*
X12750777Y-13773865D01*
X12750777Y-13773865D02*
X12760301Y-13754817D01*
X12760301Y-13754817D02*
X12779348Y-13745293D01*
X12779348Y-13745293D02*
X12826967Y-13745293D01*
X12826967Y-13745293D02*
X12846015Y-13735769D01*
X12941253Y-13688150D02*
X12941253Y-13888150D01*
X12941253Y-13697674D02*
X12960301Y-13688150D01*
X12960301Y-13688150D02*
X12998396Y-13688150D01*
X12998396Y-13688150D02*
X13017443Y-13697674D01*
X13017443Y-13697674D02*
X13026967Y-13707198D01*
X13026967Y-13707198D02*
X13036491Y-13726246D01*
X13036491Y-13726246D02*
X13036491Y-13783388D01*
X13036491Y-13783388D02*
X13026967Y-13802436D01*
X13026967Y-13802436D02*
X13017443Y-13811960D01*
X13017443Y-13811960D02*
X12998396Y-13821484D01*
X12998396Y-13821484D02*
X12960301Y-13821484D01*
X12960301Y-13821484D02*
X12941253Y-13811960D01*
X13122205Y-13802436D02*
X13131729Y-13811960D01*
X13131729Y-13811960D02*
X13122205Y-13821484D01*
X13122205Y-13821484D02*
X13112682Y-13811960D01*
X13112682Y-13811960D02*
X13122205Y-13802436D01*
X13122205Y-13802436D02*
X13122205Y-13821484D01*
X13122205Y-13697674D02*
X13131729Y-13707198D01*
X13131729Y-13707198D02*
X13122205Y-13716722D01*
X13122205Y-13716722D02*
X13112682Y-13707198D01*
X13112682Y-13707198D02*
X13122205Y-13697674D01*
X13122205Y-13697674D02*
X13122205Y-13716722D01*
D12*
X11425000Y-14117500D02*
X11490000Y-14182500D01*
X11490000Y-14117500D02*
X11425000Y-14182500D01*
D10*
X11788872Y-14041484D02*
X11807920Y-14041484D01*
X11807920Y-14041484D02*
X11826967Y-14051008D01*
X11826967Y-14051008D02*
X11836491Y-14060531D01*
X11836491Y-14060531D02*
X11846015Y-14079579D01*
X11846015Y-14079579D02*
X11855539Y-14117674D01*
X11855539Y-14117674D02*
X11855539Y-14165293D01*
X11855539Y-14165293D02*
X11846015Y-14203388D01*
X11846015Y-14203388D02*
X11836491Y-14222436D01*
X11836491Y-14222436D02*
X11826967Y-14231960D01*
X11826967Y-14231960D02*
X11807920Y-14241484D01*
X11807920Y-14241484D02*
X11788872Y-14241484D01*
X11788872Y-14241484D02*
X11769824Y-14231960D01*
X11769824Y-14231960D02*
X11760301Y-14222436D01*
X11760301Y-14222436D02*
X11750777Y-14203388D01*
X11750777Y-14203388D02*
X11741253Y-14165293D01*
X11741253Y-14165293D02*
X11741253Y-14117674D01*
X11741253Y-14117674D02*
X11750777Y-14079579D01*
X11750777Y-14079579D02*
X11760301Y-14060531D01*
X11760301Y-14060531D02*
X11769824Y-14051008D01*
X11769824Y-14051008D02*
X11788872Y-14041484D01*
X11941253Y-14222436D02*
X11950777Y-14231960D01*
X11950777Y-14231960D02*
X11941253Y-14241484D01*
X11941253Y-14241484D02*
X11931729Y-14231960D01*
X11931729Y-14231960D02*
X11941253Y-14222436D01*
X11941253Y-14222436D02*
X11941253Y-14241484D01*
X12122205Y-14041484D02*
X12084110Y-14041484D01*
X12084110Y-14041484D02*
X12065062Y-14051008D01*
X12065062Y-14051008D02*
X12055539Y-14060531D01*
X12055539Y-14060531D02*
X12036491Y-14089103D01*
X12036491Y-14089103D02*
X12026967Y-14127198D01*
X12026967Y-14127198D02*
X12026967Y-14203388D01*
X12026967Y-14203388D02*
X12036491Y-14222436D01*
X12036491Y-14222436D02*
X12046015Y-14231960D01*
X12046015Y-14231960D02*
X12065062Y-14241484D01*
X12065062Y-14241484D02*
X12103158Y-14241484D01*
X12103158Y-14241484D02*
X12122205Y-14231960D01*
X12122205Y-14231960D02*
X12131729Y-14222436D01*
X12131729Y-14222436D02*
X12141253Y-14203388D01*
X12141253Y-14203388D02*
X12141253Y-14155769D01*
X12141253Y-14155769D02*
X12131729Y-14136722D01*
X12131729Y-14136722D02*
X12122205Y-14127198D01*
X12122205Y-14127198D02*
X12103158Y-14117674D01*
X12103158Y-14117674D02*
X12065062Y-14117674D01*
X12065062Y-14117674D02*
X12046015Y-14127198D01*
X12046015Y-14127198D02*
X12036491Y-14136722D01*
X12036491Y-14136722D02*
X12026967Y-14155769D01*
X12322205Y-14041484D02*
X12226967Y-14041484D01*
X12226967Y-14041484D02*
X12217443Y-14136722D01*
X12217443Y-14136722D02*
X12226967Y-14127198D01*
X12226967Y-14127198D02*
X12246015Y-14117674D01*
X12246015Y-14117674D02*
X12293634Y-14117674D01*
X12293634Y-14117674D02*
X12312682Y-14127198D01*
X12312682Y-14127198D02*
X12322205Y-14136722D01*
X12322205Y-14136722D02*
X12331729Y-14155769D01*
X12331729Y-14155769D02*
X12331729Y-14203388D01*
X12331729Y-14203388D02*
X12322205Y-14222436D01*
X12322205Y-14222436D02*
X12312682Y-14231960D01*
X12312682Y-14231960D02*
X12293634Y-14241484D01*
X12293634Y-14241484D02*
X12246015Y-14241484D01*
X12246015Y-14241484D02*
X12226967Y-14231960D01*
X12226967Y-14231960D02*
X12217443Y-14222436D01*
X12455539Y-14041484D02*
X12474586Y-14041484D01*
X12474586Y-14041484D02*
X12493634Y-14051008D01*
X12493634Y-14051008D02*
X12503158Y-14060531D01*
X12503158Y-14060531D02*
X12512682Y-14079579D01*
X12512682Y-14079579D02*
X12522205Y-14117674D01*
X12522205Y-14117674D02*
X12522205Y-14165293D01*
X12522205Y-14165293D02*
X12512682Y-14203388D01*
X12512682Y-14203388D02*
X12503158Y-14222436D01*
X12503158Y-14222436D02*
X12493634Y-14231960D01*
X12493634Y-14231960D02*
X12474586Y-14241484D01*
X12474586Y-14241484D02*
X12455539Y-14241484D01*
X12455539Y-14241484D02*
X12436491Y-14231960D01*
X12436491Y-14231960D02*
X12426967Y-14222436D01*
X12426967Y-14222436D02*
X12417443Y-14203388D01*
X12417443Y-14203388D02*
X12407920Y-14165293D01*
X12407920Y-14165293D02*
X12407920Y-14117674D01*
X12407920Y-14117674D02*
X12417443Y-14079579D01*
X12417443Y-14079579D02*
X12426967Y-14060531D01*
X12426967Y-14060531D02*
X12436491Y-14051008D01*
X12436491Y-14051008D02*
X12455539Y-14041484D01*
X12607920Y-14241484D02*
X12607920Y-14108150D01*
X12607920Y-14127198D02*
X12617443Y-14117674D01*
X12617443Y-14117674D02*
X12636491Y-14108150D01*
X12636491Y-14108150D02*
X12665063Y-14108150D01*
X12665063Y-14108150D02*
X12684110Y-14117674D01*
X12684110Y-14117674D02*
X12693634Y-14136722D01*
X12693634Y-14136722D02*
X12693634Y-14241484D01*
X12693634Y-14136722D02*
X12703158Y-14117674D01*
X12703158Y-14117674D02*
X12722205Y-14108150D01*
X12722205Y-14108150D02*
X12750777Y-14108150D01*
X12750777Y-14108150D02*
X12769824Y-14117674D01*
X12769824Y-14117674D02*
X12779348Y-14136722D01*
X12779348Y-14136722D02*
X12779348Y-14241484D01*
X12874586Y-14241484D02*
X12874586Y-14108150D01*
X12874586Y-14127198D02*
X12884110Y-14117674D01*
X12884110Y-14117674D02*
X12903158Y-14108150D01*
X12903158Y-14108150D02*
X12931729Y-14108150D01*
X12931729Y-14108150D02*
X12950777Y-14117674D01*
X12950777Y-14117674D02*
X12960301Y-14136722D01*
X12960301Y-14136722D02*
X12960301Y-14241484D01*
X12960301Y-14136722D02*
X12969824Y-14117674D01*
X12969824Y-14117674D02*
X12988872Y-14108150D01*
X12988872Y-14108150D02*
X13017443Y-14108150D01*
X13017443Y-14108150D02*
X13036491Y-14117674D01*
X13036491Y-14117674D02*
X13046015Y-14136722D01*
X13046015Y-14136722D02*
X13046015Y-14241484D01*
X13436491Y-14031960D02*
X13265063Y-14289103D01*
X13693634Y-14041484D02*
X13712682Y-14041484D01*
X13712682Y-14041484D02*
X13731729Y-14051008D01*
X13731729Y-14051008D02*
X13741253Y-14060531D01*
X13741253Y-14060531D02*
X13750777Y-14079579D01*
X13750777Y-14079579D02*
X13760301Y-14117674D01*
X13760301Y-14117674D02*
X13760301Y-14165293D01*
X13760301Y-14165293D02*
X13750777Y-14203388D01*
X13750777Y-14203388D02*
X13741253Y-14222436D01*
X13741253Y-14222436D02*
X13731729Y-14231960D01*
X13731729Y-14231960D02*
X13712682Y-14241484D01*
X13712682Y-14241484D02*
X13693634Y-14241484D01*
X13693634Y-14241484D02*
X13674586Y-14231960D01*
X13674586Y-14231960D02*
X13665063Y-14222436D01*
X13665063Y-14222436D02*
X13655539Y-14203388D01*
X13655539Y-14203388D02*
X13646015Y-14165293D01*
X13646015Y-14165293D02*
X13646015Y-14117674D01*
X13646015Y-14117674D02*
X13655539Y-14079579D01*
X13655539Y-14079579D02*
X13665063Y-14060531D01*
X13665063Y-14060531D02*
X13674586Y-14051008D01*
X13674586Y-14051008D02*
X13693634Y-14041484D01*
X13846015Y-14222436D02*
X13855539Y-14231960D01*
X13855539Y-14231960D02*
X13846015Y-14241484D01*
X13846015Y-14241484D02*
X13836491Y-14231960D01*
X13836491Y-14231960D02*
X13846015Y-14222436D01*
X13846015Y-14222436D02*
X13846015Y-14241484D01*
X13979348Y-14041484D02*
X13998396Y-14041484D01*
X13998396Y-14041484D02*
X14017444Y-14051008D01*
X14017444Y-14051008D02*
X14026967Y-14060531D01*
X14026967Y-14060531D02*
X14036491Y-14079579D01*
X14036491Y-14079579D02*
X14046015Y-14117674D01*
X14046015Y-14117674D02*
X14046015Y-14165293D01*
X14046015Y-14165293D02*
X14036491Y-14203388D01*
X14036491Y-14203388D02*
X14026967Y-14222436D01*
X14026967Y-14222436D02*
X14017444Y-14231960D01*
X14017444Y-14231960D02*
X13998396Y-14241484D01*
X13998396Y-14241484D02*
X13979348Y-14241484D01*
X13979348Y-14241484D02*
X13960301Y-14231960D01*
X13960301Y-14231960D02*
X13950777Y-14222436D01*
X13950777Y-14222436D02*
X13941253Y-14203388D01*
X13941253Y-14203388D02*
X13931729Y-14165293D01*
X13931729Y-14165293D02*
X13931729Y-14117674D01*
X13931729Y-14117674D02*
X13941253Y-14079579D01*
X13941253Y-14079579D02*
X13950777Y-14060531D01*
X13950777Y-14060531D02*
X13960301Y-14051008D01*
X13960301Y-14051008D02*
X13979348Y-14041484D01*
X14122206Y-14060531D02*
X14131729Y-14051008D01*
X14131729Y-14051008D02*
X14150777Y-14041484D01*
X14150777Y-14041484D02*
X14198396Y-14041484D01*
X14198396Y-14041484D02*
X14217444Y-14051008D01*
X14217444Y-14051008D02*
X14226967Y-14060531D01*
X14226967Y-14060531D02*
X14236491Y-14079579D01*
X14236491Y-14079579D02*
X14236491Y-14098627D01*
X14236491Y-14098627D02*
X14226967Y-14127198D01*
X14226967Y-14127198D02*
X14112682Y-14241484D01*
X14112682Y-14241484D02*
X14236491Y-14241484D01*
X14417444Y-14041484D02*
X14322206Y-14041484D01*
X14322206Y-14041484D02*
X14312682Y-14136722D01*
X14312682Y-14136722D02*
X14322206Y-14127198D01*
X14322206Y-14127198D02*
X14341253Y-14117674D01*
X14341253Y-14117674D02*
X14388872Y-14117674D01*
X14388872Y-14117674D02*
X14407920Y-14127198D01*
X14407920Y-14127198D02*
X14417444Y-14136722D01*
X14417444Y-14136722D02*
X14426967Y-14155769D01*
X14426967Y-14155769D02*
X14426967Y-14203388D01*
X14426967Y-14203388D02*
X14417444Y-14222436D01*
X14417444Y-14222436D02*
X14407920Y-14231960D01*
X14407920Y-14231960D02*
X14388872Y-14241484D01*
X14388872Y-14241484D02*
X14341253Y-14241484D01*
X14341253Y-14241484D02*
X14322206Y-14231960D01*
X14322206Y-14231960D02*
X14312682Y-14222436D01*
X14598396Y-14041484D02*
X14560301Y-14041484D01*
X14560301Y-14041484D02*
X14541253Y-14051008D01*
X14541253Y-14051008D02*
X14531729Y-14060531D01*
X14531729Y-14060531D02*
X14512682Y-14089103D01*
X14512682Y-14089103D02*
X14503158Y-14127198D01*
X14503158Y-14127198D02*
X14503158Y-14203388D01*
X14503158Y-14203388D02*
X14512682Y-14222436D01*
X14512682Y-14222436D02*
X14522206Y-14231960D01*
X14522206Y-14231960D02*
X14541253Y-14241484D01*
X14541253Y-14241484D02*
X14579348Y-14241484D01*
X14579348Y-14241484D02*
X14598396Y-14231960D01*
X14598396Y-14231960D02*
X14607920Y-14222436D01*
X14607920Y-14222436D02*
X14617444Y-14203388D01*
X14617444Y-14203388D02*
X14617444Y-14155769D01*
X14617444Y-14155769D02*
X14607920Y-14136722D01*
X14607920Y-14136722D02*
X14598396Y-14127198D01*
X14598396Y-14127198D02*
X14579348Y-14117674D01*
X14579348Y-14117674D02*
X14541253Y-14117674D01*
X14541253Y-14117674D02*
X14522206Y-14127198D01*
X14522206Y-14127198D02*
X14512682Y-14136722D01*
X14512682Y-14136722D02*
X14503158Y-14155769D01*
X14693634Y-14041484D02*
X14693634Y-14079579D01*
X14769825Y-14041484D02*
X14769825Y-14079579D01*
X15065063Y-14317674D02*
X15055539Y-14308150D01*
X15055539Y-14308150D02*
X15036491Y-14279579D01*
X15036491Y-14279579D02*
X15026968Y-14260531D01*
X15026968Y-14260531D02*
X15017444Y-14231960D01*
X15017444Y-14231960D02*
X15007920Y-14184341D01*
X15007920Y-14184341D02*
X15007920Y-14146246D01*
X15007920Y-14146246D02*
X15017444Y-14098627D01*
X15017444Y-14098627D02*
X15026968Y-14070055D01*
X15026968Y-14070055D02*
X15036491Y-14051008D01*
X15036491Y-14051008D02*
X15055539Y-14022436D01*
X15055539Y-14022436D02*
X15065063Y-14012912D01*
X15131729Y-14060531D02*
X15141253Y-14051008D01*
X15141253Y-14051008D02*
X15160301Y-14041484D01*
X15160301Y-14041484D02*
X15207920Y-14041484D01*
X15207920Y-14041484D02*
X15226968Y-14051008D01*
X15226968Y-14051008D02*
X15236491Y-14060531D01*
X15236491Y-14060531D02*
X15246015Y-14079579D01*
X15246015Y-14079579D02*
X15246015Y-14098627D01*
X15246015Y-14098627D02*
X15236491Y-14127198D01*
X15236491Y-14127198D02*
X15122206Y-14241484D01*
X15122206Y-14241484D02*
X15246015Y-14241484D01*
X15484110Y-14241484D02*
X15484110Y-14041484D01*
X15569825Y-14241484D02*
X15569825Y-14136722D01*
X15569825Y-14136722D02*
X15560301Y-14117674D01*
X15560301Y-14117674D02*
X15541253Y-14108150D01*
X15541253Y-14108150D02*
X15512682Y-14108150D01*
X15512682Y-14108150D02*
X15493634Y-14117674D01*
X15493634Y-14117674D02*
X15484110Y-14127198D01*
X15693634Y-14241484D02*
X15674587Y-14231960D01*
X15674587Y-14231960D02*
X15665063Y-14222436D01*
X15665063Y-14222436D02*
X15655539Y-14203388D01*
X15655539Y-14203388D02*
X15655539Y-14146246D01*
X15655539Y-14146246D02*
X15665063Y-14127198D01*
X15665063Y-14127198D02*
X15674587Y-14117674D01*
X15674587Y-14117674D02*
X15693634Y-14108150D01*
X15693634Y-14108150D02*
X15722206Y-14108150D01*
X15722206Y-14108150D02*
X15741253Y-14117674D01*
X15741253Y-14117674D02*
X15750777Y-14127198D01*
X15750777Y-14127198D02*
X15760301Y-14146246D01*
X15760301Y-14146246D02*
X15760301Y-14203388D01*
X15760301Y-14203388D02*
X15750777Y-14222436D01*
X15750777Y-14222436D02*
X15741253Y-14231960D01*
X15741253Y-14231960D02*
X15722206Y-14241484D01*
X15722206Y-14241484D02*
X15693634Y-14241484D01*
X15874587Y-14241484D02*
X15855539Y-14231960D01*
X15855539Y-14231960D02*
X15846015Y-14212912D01*
X15846015Y-14212912D02*
X15846015Y-14041484D01*
X16026968Y-14231960D02*
X16007920Y-14241484D01*
X16007920Y-14241484D02*
X15969825Y-14241484D01*
X15969825Y-14241484D02*
X15950777Y-14231960D01*
X15950777Y-14231960D02*
X15941253Y-14212912D01*
X15941253Y-14212912D02*
X15941253Y-14136722D01*
X15941253Y-14136722D02*
X15950777Y-14117674D01*
X15950777Y-14117674D02*
X15969825Y-14108150D01*
X15969825Y-14108150D02*
X16007920Y-14108150D01*
X16007920Y-14108150D02*
X16026968Y-14117674D01*
X16026968Y-14117674D02*
X16036491Y-14136722D01*
X16036491Y-14136722D02*
X16036491Y-14155769D01*
X16036491Y-14155769D02*
X15941253Y-14174817D01*
X16112682Y-14231960D02*
X16131730Y-14241484D01*
X16131730Y-14241484D02*
X16169825Y-14241484D01*
X16169825Y-14241484D02*
X16188872Y-14231960D01*
X16188872Y-14231960D02*
X16198396Y-14212912D01*
X16198396Y-14212912D02*
X16198396Y-14203388D01*
X16198396Y-14203388D02*
X16188872Y-14184341D01*
X16188872Y-14184341D02*
X16169825Y-14174817D01*
X16169825Y-14174817D02*
X16141253Y-14174817D01*
X16141253Y-14174817D02*
X16122206Y-14165293D01*
X16122206Y-14165293D02*
X16112682Y-14146246D01*
X16112682Y-14146246D02*
X16112682Y-14136722D01*
X16112682Y-14136722D02*
X16122206Y-14117674D01*
X16122206Y-14117674D02*
X16141253Y-14108150D01*
X16141253Y-14108150D02*
X16169825Y-14108150D01*
X16169825Y-14108150D02*
X16188872Y-14117674D01*
X16265063Y-14317674D02*
X16274587Y-14308150D01*
X16274587Y-14308150D02*
X16293634Y-14279579D01*
X16293634Y-14279579D02*
X16303158Y-14260531D01*
X16303158Y-14260531D02*
X16312682Y-14231960D01*
X16312682Y-14231960D02*
X16322206Y-14184341D01*
X16322206Y-14184341D02*
X16322206Y-14146246D01*
X16322206Y-14146246D02*
X16312682Y-14098627D01*
X16312682Y-14098627D02*
X16303158Y-14070055D01*
X16303158Y-14070055D02*
X16293634Y-14051008D01*
X16293634Y-14051008D02*
X16274587Y-14022436D01*
X16274587Y-14022436D02*
X16265063Y-14012912D01*
X16626968Y-14317674D02*
X16617444Y-14308150D01*
X16617444Y-14308150D02*
X16598396Y-14279579D01*
X16598396Y-14279579D02*
X16588872Y-14260531D01*
X16588872Y-14260531D02*
X16579349Y-14231960D01*
X16579349Y-14231960D02*
X16569825Y-14184341D01*
X16569825Y-14184341D02*
X16569825Y-14146246D01*
X16569825Y-14146246D02*
X16579349Y-14098627D01*
X16579349Y-14098627D02*
X16588872Y-14070055D01*
X16588872Y-14070055D02*
X16598396Y-14051008D01*
X16598396Y-14051008D02*
X16617444Y-14022436D01*
X16617444Y-14022436D02*
X16626968Y-14012912D01*
X16703158Y-14108150D02*
X16703158Y-14241484D01*
X16703158Y-14127198D02*
X16712682Y-14117674D01*
X16712682Y-14117674D02*
X16731730Y-14108150D01*
X16731730Y-14108150D02*
X16760301Y-14108150D01*
X16760301Y-14108150D02*
X16779349Y-14117674D01*
X16779349Y-14117674D02*
X16788873Y-14136722D01*
X16788873Y-14136722D02*
X16788873Y-14241484D01*
X16912682Y-14241484D02*
X16893634Y-14231960D01*
X16893634Y-14231960D02*
X16884111Y-14222436D01*
X16884111Y-14222436D02*
X16874587Y-14203388D01*
X16874587Y-14203388D02*
X16874587Y-14146246D01*
X16874587Y-14146246D02*
X16884111Y-14127198D01*
X16884111Y-14127198D02*
X16893634Y-14117674D01*
X16893634Y-14117674D02*
X16912682Y-14108150D01*
X16912682Y-14108150D02*
X16941254Y-14108150D01*
X16941254Y-14108150D02*
X16960301Y-14117674D01*
X16960301Y-14117674D02*
X16969825Y-14127198D01*
X16969825Y-14127198D02*
X16979349Y-14146246D01*
X16979349Y-14146246D02*
X16979349Y-14203388D01*
X16979349Y-14203388D02*
X16969825Y-14222436D01*
X16969825Y-14222436D02*
X16960301Y-14231960D01*
X16960301Y-14231960D02*
X16941254Y-14241484D01*
X16941254Y-14241484D02*
X16912682Y-14241484D01*
X17036492Y-14108150D02*
X17112682Y-14108150D01*
X17065063Y-14041484D02*
X17065063Y-14212912D01*
X17065063Y-14212912D02*
X17074587Y-14231960D01*
X17074587Y-14231960D02*
X17093634Y-14241484D01*
X17093634Y-14241484D02*
X17112682Y-14241484D01*
X17331730Y-14108150D02*
X17331730Y-14308150D01*
X17331730Y-14117674D02*
X17350777Y-14108150D01*
X17350777Y-14108150D02*
X17388873Y-14108150D01*
X17388873Y-14108150D02*
X17407920Y-14117674D01*
X17407920Y-14117674D02*
X17417444Y-14127198D01*
X17417444Y-14127198D02*
X17426968Y-14146246D01*
X17426968Y-14146246D02*
X17426968Y-14203388D01*
X17426968Y-14203388D02*
X17417444Y-14222436D01*
X17417444Y-14222436D02*
X17407920Y-14231960D01*
X17407920Y-14231960D02*
X17388873Y-14241484D01*
X17388873Y-14241484D02*
X17350777Y-14241484D01*
X17350777Y-14241484D02*
X17331730Y-14231960D01*
X17541254Y-14241484D02*
X17522206Y-14231960D01*
X17522206Y-14231960D02*
X17512682Y-14212912D01*
X17512682Y-14212912D02*
X17512682Y-14041484D01*
X17703158Y-14241484D02*
X17703158Y-14136722D01*
X17703158Y-14136722D02*
X17693635Y-14117674D01*
X17693635Y-14117674D02*
X17674587Y-14108150D01*
X17674587Y-14108150D02*
X17636492Y-14108150D01*
X17636492Y-14108150D02*
X17617444Y-14117674D01*
X17703158Y-14231960D02*
X17684111Y-14241484D01*
X17684111Y-14241484D02*
X17636492Y-14241484D01*
X17636492Y-14241484D02*
X17617444Y-14231960D01*
X17617444Y-14231960D02*
X17607920Y-14212912D01*
X17607920Y-14212912D02*
X17607920Y-14193865D01*
X17607920Y-14193865D02*
X17617444Y-14174817D01*
X17617444Y-14174817D02*
X17636492Y-14165293D01*
X17636492Y-14165293D02*
X17684111Y-14165293D01*
X17684111Y-14165293D02*
X17703158Y-14155769D01*
X17769825Y-14108150D02*
X17846015Y-14108150D01*
X17798396Y-14041484D02*
X17798396Y-14212912D01*
X17798396Y-14212912D02*
X17807920Y-14231960D01*
X17807920Y-14231960D02*
X17826968Y-14241484D01*
X17826968Y-14241484D02*
X17846015Y-14241484D01*
X17988873Y-14231960D02*
X17969825Y-14241484D01*
X17969825Y-14241484D02*
X17931730Y-14241484D01*
X17931730Y-14241484D02*
X17912682Y-14231960D01*
X17912682Y-14231960D02*
X17903158Y-14212912D01*
X17903158Y-14212912D02*
X17903158Y-14136722D01*
X17903158Y-14136722D02*
X17912682Y-14117674D01*
X17912682Y-14117674D02*
X17931730Y-14108150D01*
X17931730Y-14108150D02*
X17969825Y-14108150D01*
X17969825Y-14108150D02*
X17988873Y-14117674D01*
X17988873Y-14117674D02*
X17998396Y-14136722D01*
X17998396Y-14136722D02*
X17998396Y-14155769D01*
X17998396Y-14155769D02*
X17903158Y-14174817D01*
X18169825Y-14241484D02*
X18169825Y-14041484D01*
X18169825Y-14231960D02*
X18150777Y-14241484D01*
X18150777Y-14241484D02*
X18112682Y-14241484D01*
X18112682Y-14241484D02*
X18093635Y-14231960D01*
X18093635Y-14231960D02*
X18084111Y-14222436D01*
X18084111Y-14222436D02*
X18074587Y-14203388D01*
X18074587Y-14203388D02*
X18074587Y-14146246D01*
X18074587Y-14146246D02*
X18084111Y-14127198D01*
X18084111Y-14127198D02*
X18093635Y-14117674D01*
X18093635Y-14117674D02*
X18112682Y-14108150D01*
X18112682Y-14108150D02*
X18150777Y-14108150D01*
X18150777Y-14108150D02*
X18169825Y-14117674D01*
X18246016Y-14317674D02*
X18255539Y-14308150D01*
X18255539Y-14308150D02*
X18274587Y-14279579D01*
X18274587Y-14279579D02*
X18284111Y-14260531D01*
X18284111Y-14260531D02*
X18293635Y-14231960D01*
X18293635Y-14231960D02*
X18303158Y-14184341D01*
X18303158Y-14184341D02*
X18303158Y-14146246D01*
X18303158Y-14146246D02*
X18293635Y-14098627D01*
X18293635Y-14098627D02*
X18284111Y-14070055D01*
X18284111Y-14070055D02*
X18274587Y-14051008D01*
X18274587Y-14051008D02*
X18255539Y-14022436D01*
X18255539Y-14022436D02*
X18246016Y-14012912D01*
X11490000Y-14414000D02*
G75*
G02*
X11290000Y-14414000I-100000J0D01*
G01*
X11290000Y-14414000D02*
G75*
G02*
X11490000Y-14414000I100000J0D01*
G01*
X11731729Y-14305484D02*
X11855539Y-14305484D01*
X11855539Y-14305484D02*
X11788872Y-14381674D01*
X11788872Y-14381674D02*
X11817443Y-14381674D01*
X11817443Y-14381674D02*
X11836491Y-14391198D01*
X11836491Y-14391198D02*
X11846015Y-14400722D01*
X11846015Y-14400722D02*
X11855539Y-14419769D01*
X11855539Y-14419769D02*
X11855539Y-14467388D01*
X11855539Y-14467388D02*
X11846015Y-14486436D01*
X11846015Y-14486436D02*
X11836491Y-14495960D01*
X11836491Y-14495960D02*
X11817443Y-14505484D01*
X11817443Y-14505484D02*
X11760301Y-14505484D01*
X11760301Y-14505484D02*
X11741253Y-14495960D01*
X11741253Y-14495960D02*
X11731729Y-14486436D01*
X11941253Y-14486436D02*
X11950777Y-14495960D01*
X11950777Y-14495960D02*
X11941253Y-14505484D01*
X11941253Y-14505484D02*
X11931729Y-14495960D01*
X11931729Y-14495960D02*
X11941253Y-14486436D01*
X11941253Y-14486436D02*
X11941253Y-14505484D01*
X12026967Y-14324531D02*
X12036491Y-14315008D01*
X12036491Y-14315008D02*
X12055539Y-14305484D01*
X12055539Y-14305484D02*
X12103158Y-14305484D01*
X12103158Y-14305484D02*
X12122205Y-14315008D01*
X12122205Y-14315008D02*
X12131729Y-14324531D01*
X12131729Y-14324531D02*
X12141253Y-14343579D01*
X12141253Y-14343579D02*
X12141253Y-14362627D01*
X12141253Y-14362627D02*
X12131729Y-14391198D01*
X12131729Y-14391198D02*
X12017443Y-14505484D01*
X12017443Y-14505484D02*
X12141253Y-14505484D01*
X12265062Y-14305484D02*
X12284110Y-14305484D01*
X12284110Y-14305484D02*
X12303158Y-14315008D01*
X12303158Y-14315008D02*
X12312682Y-14324531D01*
X12312682Y-14324531D02*
X12322205Y-14343579D01*
X12322205Y-14343579D02*
X12331729Y-14381674D01*
X12331729Y-14381674D02*
X12331729Y-14429293D01*
X12331729Y-14429293D02*
X12322205Y-14467388D01*
X12322205Y-14467388D02*
X12312682Y-14486436D01*
X12312682Y-14486436D02*
X12303158Y-14495960D01*
X12303158Y-14495960D02*
X12284110Y-14505484D01*
X12284110Y-14505484D02*
X12265062Y-14505484D01*
X12265062Y-14505484D02*
X12246015Y-14495960D01*
X12246015Y-14495960D02*
X12236491Y-14486436D01*
X12236491Y-14486436D02*
X12226967Y-14467388D01*
X12226967Y-14467388D02*
X12217443Y-14429293D01*
X12217443Y-14429293D02*
X12217443Y-14381674D01*
X12217443Y-14381674D02*
X12226967Y-14343579D01*
X12226967Y-14343579D02*
X12236491Y-14324531D01*
X12236491Y-14324531D02*
X12246015Y-14315008D01*
X12246015Y-14315008D02*
X12265062Y-14305484D01*
X12455539Y-14305484D02*
X12474586Y-14305484D01*
X12474586Y-14305484D02*
X12493634Y-14315008D01*
X12493634Y-14315008D02*
X12503158Y-14324531D01*
X12503158Y-14324531D02*
X12512682Y-14343579D01*
X12512682Y-14343579D02*
X12522205Y-14381674D01*
X12522205Y-14381674D02*
X12522205Y-14429293D01*
X12522205Y-14429293D02*
X12512682Y-14467388D01*
X12512682Y-14467388D02*
X12503158Y-14486436D01*
X12503158Y-14486436D02*
X12493634Y-14495960D01*
X12493634Y-14495960D02*
X12474586Y-14505484D01*
X12474586Y-14505484D02*
X12455539Y-14505484D01*
X12455539Y-14505484D02*
X12436491Y-14495960D01*
X12436491Y-14495960D02*
X12426967Y-14486436D01*
X12426967Y-14486436D02*
X12417443Y-14467388D01*
X12417443Y-14467388D02*
X12407920Y-14429293D01*
X12407920Y-14429293D02*
X12407920Y-14381674D01*
X12407920Y-14381674D02*
X12417443Y-14343579D01*
X12417443Y-14343579D02*
X12426967Y-14324531D01*
X12426967Y-14324531D02*
X12436491Y-14315008D01*
X12436491Y-14315008D02*
X12455539Y-14305484D01*
X12607920Y-14505484D02*
X12607920Y-14372150D01*
X12607920Y-14391198D02*
X12617443Y-14381674D01*
X12617443Y-14381674D02*
X12636491Y-14372150D01*
X12636491Y-14372150D02*
X12665063Y-14372150D01*
X12665063Y-14372150D02*
X12684110Y-14381674D01*
X12684110Y-14381674D02*
X12693634Y-14400722D01*
X12693634Y-14400722D02*
X12693634Y-14505484D01*
X12693634Y-14400722D02*
X12703158Y-14381674D01*
X12703158Y-14381674D02*
X12722205Y-14372150D01*
X12722205Y-14372150D02*
X12750777Y-14372150D01*
X12750777Y-14372150D02*
X12769824Y-14381674D01*
X12769824Y-14381674D02*
X12779348Y-14400722D01*
X12779348Y-14400722D02*
X12779348Y-14505484D01*
X12874586Y-14505484D02*
X12874586Y-14372150D01*
X12874586Y-14391198D02*
X12884110Y-14381674D01*
X12884110Y-14381674D02*
X12903158Y-14372150D01*
X12903158Y-14372150D02*
X12931729Y-14372150D01*
X12931729Y-14372150D02*
X12950777Y-14381674D01*
X12950777Y-14381674D02*
X12960301Y-14400722D01*
X12960301Y-14400722D02*
X12960301Y-14505484D01*
X12960301Y-14400722D02*
X12969824Y-14381674D01*
X12969824Y-14381674D02*
X12988872Y-14372150D01*
X12988872Y-14372150D02*
X13017443Y-14372150D01*
X13017443Y-14372150D02*
X13036491Y-14381674D01*
X13036491Y-14381674D02*
X13046015Y-14400722D01*
X13046015Y-14400722D02*
X13046015Y-14505484D01*
X13436491Y-14295960D02*
X13265063Y-14553103D01*
X13693634Y-14305484D02*
X13712682Y-14305484D01*
X13712682Y-14305484D02*
X13731729Y-14315008D01*
X13731729Y-14315008D02*
X13741253Y-14324531D01*
X13741253Y-14324531D02*
X13750777Y-14343579D01*
X13750777Y-14343579D02*
X13760301Y-14381674D01*
X13760301Y-14381674D02*
X13760301Y-14429293D01*
X13760301Y-14429293D02*
X13750777Y-14467388D01*
X13750777Y-14467388D02*
X13741253Y-14486436D01*
X13741253Y-14486436D02*
X13731729Y-14495960D01*
X13731729Y-14495960D02*
X13712682Y-14505484D01*
X13712682Y-14505484D02*
X13693634Y-14505484D01*
X13693634Y-14505484D02*
X13674586Y-14495960D01*
X13674586Y-14495960D02*
X13665063Y-14486436D01*
X13665063Y-14486436D02*
X13655539Y-14467388D01*
X13655539Y-14467388D02*
X13646015Y-14429293D01*
X13646015Y-14429293D02*
X13646015Y-14381674D01*
X13646015Y-14381674D02*
X13655539Y-14343579D01*
X13655539Y-14343579D02*
X13665063Y-14324531D01*
X13665063Y-14324531D02*
X13674586Y-14315008D01*
X13674586Y-14315008D02*
X13693634Y-14305484D01*
X13846015Y-14486436D02*
X13855539Y-14495960D01*
X13855539Y-14495960D02*
X13846015Y-14505484D01*
X13846015Y-14505484D02*
X13836491Y-14495960D01*
X13836491Y-14495960D02*
X13846015Y-14486436D01*
X13846015Y-14486436D02*
X13846015Y-14505484D01*
X14046015Y-14505484D02*
X13931729Y-14505484D01*
X13988872Y-14505484D02*
X13988872Y-14305484D01*
X13988872Y-14305484D02*
X13969825Y-14334055D01*
X13969825Y-14334055D02*
X13950777Y-14353103D01*
X13950777Y-14353103D02*
X13931729Y-14362627D01*
X14122206Y-14324531D02*
X14131729Y-14315008D01*
X14131729Y-14315008D02*
X14150777Y-14305484D01*
X14150777Y-14305484D02*
X14198396Y-14305484D01*
X14198396Y-14305484D02*
X14217444Y-14315008D01*
X14217444Y-14315008D02*
X14226967Y-14324531D01*
X14226967Y-14324531D02*
X14236491Y-14343579D01*
X14236491Y-14343579D02*
X14236491Y-14362627D01*
X14236491Y-14362627D02*
X14226967Y-14391198D01*
X14226967Y-14391198D02*
X14112682Y-14505484D01*
X14112682Y-14505484D02*
X14236491Y-14505484D01*
X14407920Y-14305484D02*
X14369825Y-14305484D01*
X14369825Y-14305484D02*
X14350777Y-14315008D01*
X14350777Y-14315008D02*
X14341253Y-14324531D01*
X14341253Y-14324531D02*
X14322206Y-14353103D01*
X14322206Y-14353103D02*
X14312682Y-14391198D01*
X14312682Y-14391198D02*
X14312682Y-14467388D01*
X14312682Y-14467388D02*
X14322206Y-14486436D01*
X14322206Y-14486436D02*
X14331729Y-14495960D01*
X14331729Y-14495960D02*
X14350777Y-14505484D01*
X14350777Y-14505484D02*
X14388872Y-14505484D01*
X14388872Y-14505484D02*
X14407920Y-14495960D01*
X14407920Y-14495960D02*
X14417444Y-14486436D01*
X14417444Y-14486436D02*
X14426967Y-14467388D01*
X14426967Y-14467388D02*
X14426967Y-14419769D01*
X14426967Y-14419769D02*
X14417444Y-14400722D01*
X14417444Y-14400722D02*
X14407920Y-14391198D01*
X14407920Y-14391198D02*
X14388872Y-14381674D01*
X14388872Y-14381674D02*
X14350777Y-14381674D01*
X14350777Y-14381674D02*
X14331729Y-14391198D01*
X14331729Y-14391198D02*
X14322206Y-14400722D01*
X14322206Y-14400722D02*
X14312682Y-14419769D01*
X14550777Y-14305484D02*
X14569825Y-14305484D01*
X14569825Y-14305484D02*
X14588872Y-14315008D01*
X14588872Y-14315008D02*
X14598396Y-14324531D01*
X14598396Y-14324531D02*
X14607920Y-14343579D01*
X14607920Y-14343579D02*
X14617444Y-14381674D01*
X14617444Y-14381674D02*
X14617444Y-14429293D01*
X14617444Y-14429293D02*
X14607920Y-14467388D01*
X14607920Y-14467388D02*
X14598396Y-14486436D01*
X14598396Y-14486436D02*
X14588872Y-14495960D01*
X14588872Y-14495960D02*
X14569825Y-14505484D01*
X14569825Y-14505484D02*
X14550777Y-14505484D01*
X14550777Y-14505484D02*
X14531729Y-14495960D01*
X14531729Y-14495960D02*
X14522206Y-14486436D01*
X14522206Y-14486436D02*
X14512682Y-14467388D01*
X14512682Y-14467388D02*
X14503158Y-14429293D01*
X14503158Y-14429293D02*
X14503158Y-14381674D01*
X14503158Y-14381674D02*
X14512682Y-14343579D01*
X14512682Y-14343579D02*
X14522206Y-14324531D01*
X14522206Y-14324531D02*
X14531729Y-14315008D01*
X14531729Y-14315008D02*
X14550777Y-14305484D01*
X14693634Y-14305484D02*
X14693634Y-14343579D01*
X14769825Y-14305484D02*
X14769825Y-14343579D01*
X15065063Y-14581674D02*
X15055539Y-14572150D01*
X15055539Y-14572150D02*
X15036491Y-14543579D01*
X15036491Y-14543579D02*
X15026968Y-14524531D01*
X15026968Y-14524531D02*
X15017444Y-14495960D01*
X15017444Y-14495960D02*
X15007920Y-14448341D01*
X15007920Y-14448341D02*
X15007920Y-14410246D01*
X15007920Y-14410246D02*
X15017444Y-14362627D01*
X15017444Y-14362627D02*
X15026968Y-14334055D01*
X15026968Y-14334055D02*
X15036491Y-14315008D01*
X15036491Y-14315008D02*
X15055539Y-14286436D01*
X15055539Y-14286436D02*
X15065063Y-14276912D01*
X15131729Y-14324531D02*
X15141253Y-14315008D01*
X15141253Y-14315008D02*
X15160301Y-14305484D01*
X15160301Y-14305484D02*
X15207920Y-14305484D01*
X15207920Y-14305484D02*
X15226968Y-14315008D01*
X15226968Y-14315008D02*
X15236491Y-14324531D01*
X15236491Y-14324531D02*
X15246015Y-14343579D01*
X15246015Y-14343579D02*
X15246015Y-14362627D01*
X15246015Y-14362627D02*
X15236491Y-14391198D01*
X15236491Y-14391198D02*
X15122206Y-14505484D01*
X15122206Y-14505484D02*
X15246015Y-14505484D01*
X15484110Y-14505484D02*
X15484110Y-14305484D01*
X15569825Y-14505484D02*
X15569825Y-14400722D01*
X15569825Y-14400722D02*
X15560301Y-14381674D01*
X15560301Y-14381674D02*
X15541253Y-14372150D01*
X15541253Y-14372150D02*
X15512682Y-14372150D01*
X15512682Y-14372150D02*
X15493634Y-14381674D01*
X15493634Y-14381674D02*
X15484110Y-14391198D01*
X15693634Y-14505484D02*
X15674587Y-14495960D01*
X15674587Y-14495960D02*
X15665063Y-14486436D01*
X15665063Y-14486436D02*
X15655539Y-14467388D01*
X15655539Y-14467388D02*
X15655539Y-14410246D01*
X15655539Y-14410246D02*
X15665063Y-14391198D01*
X15665063Y-14391198D02*
X15674587Y-14381674D01*
X15674587Y-14381674D02*
X15693634Y-14372150D01*
X15693634Y-14372150D02*
X15722206Y-14372150D01*
X15722206Y-14372150D02*
X15741253Y-14381674D01*
X15741253Y-14381674D02*
X15750777Y-14391198D01*
X15750777Y-14391198D02*
X15760301Y-14410246D01*
X15760301Y-14410246D02*
X15760301Y-14467388D01*
X15760301Y-14467388D02*
X15750777Y-14486436D01*
X15750777Y-14486436D02*
X15741253Y-14495960D01*
X15741253Y-14495960D02*
X15722206Y-14505484D01*
X15722206Y-14505484D02*
X15693634Y-14505484D01*
X15874587Y-14505484D02*
X15855539Y-14495960D01*
X15855539Y-14495960D02*
X15846015Y-14476912D01*
X15846015Y-14476912D02*
X15846015Y-14305484D01*
X16026968Y-14495960D02*
X16007920Y-14505484D01*
X16007920Y-14505484D02*
X15969825Y-14505484D01*
X15969825Y-14505484D02*
X15950777Y-14495960D01*
X15950777Y-14495960D02*
X15941253Y-14476912D01*
X15941253Y-14476912D02*
X15941253Y-14400722D01*
X15941253Y-14400722D02*
X15950777Y-14381674D01*
X15950777Y-14381674D02*
X15969825Y-14372150D01*
X15969825Y-14372150D02*
X16007920Y-14372150D01*
X16007920Y-14372150D02*
X16026968Y-14381674D01*
X16026968Y-14381674D02*
X16036491Y-14400722D01*
X16036491Y-14400722D02*
X16036491Y-14419769D01*
X16036491Y-14419769D02*
X15941253Y-14438817D01*
X16112682Y-14495960D02*
X16131730Y-14505484D01*
X16131730Y-14505484D02*
X16169825Y-14505484D01*
X16169825Y-14505484D02*
X16188872Y-14495960D01*
X16188872Y-14495960D02*
X16198396Y-14476912D01*
X16198396Y-14476912D02*
X16198396Y-14467388D01*
X16198396Y-14467388D02*
X16188872Y-14448341D01*
X16188872Y-14448341D02*
X16169825Y-14438817D01*
X16169825Y-14438817D02*
X16141253Y-14438817D01*
X16141253Y-14438817D02*
X16122206Y-14429293D01*
X16122206Y-14429293D02*
X16112682Y-14410246D01*
X16112682Y-14410246D02*
X16112682Y-14400722D01*
X16112682Y-14400722D02*
X16122206Y-14381674D01*
X16122206Y-14381674D02*
X16141253Y-14372150D01*
X16141253Y-14372150D02*
X16169825Y-14372150D01*
X16169825Y-14372150D02*
X16188872Y-14381674D01*
X16265063Y-14581674D02*
X16274587Y-14572150D01*
X16274587Y-14572150D02*
X16293634Y-14543579D01*
X16293634Y-14543579D02*
X16303158Y-14524531D01*
X16303158Y-14524531D02*
X16312682Y-14495960D01*
X16312682Y-14495960D02*
X16322206Y-14448341D01*
X16322206Y-14448341D02*
X16322206Y-14410246D01*
X16322206Y-14410246D02*
X16312682Y-14362627D01*
X16312682Y-14362627D02*
X16303158Y-14334055D01*
X16303158Y-14334055D02*
X16293634Y-14315008D01*
X16293634Y-14315008D02*
X16274587Y-14286436D01*
X16274587Y-14286436D02*
X16265063Y-14276912D01*
X16626968Y-14581674D02*
X16617444Y-14572150D01*
X16617444Y-14572150D02*
X16598396Y-14543579D01*
X16598396Y-14543579D02*
X16588872Y-14524531D01*
X16588872Y-14524531D02*
X16579349Y-14495960D01*
X16579349Y-14495960D02*
X16569825Y-14448341D01*
X16569825Y-14448341D02*
X16569825Y-14410246D01*
X16569825Y-14410246D02*
X16579349Y-14362627D01*
X16579349Y-14362627D02*
X16588872Y-14334055D01*
X16588872Y-14334055D02*
X16598396Y-14315008D01*
X16598396Y-14315008D02*
X16617444Y-14286436D01*
X16617444Y-14286436D02*
X16626968Y-14276912D01*
X16703158Y-14372150D02*
X16703158Y-14505484D01*
X16703158Y-14391198D02*
X16712682Y-14381674D01*
X16712682Y-14381674D02*
X16731730Y-14372150D01*
X16731730Y-14372150D02*
X16760301Y-14372150D01*
X16760301Y-14372150D02*
X16779349Y-14381674D01*
X16779349Y-14381674D02*
X16788873Y-14400722D01*
X16788873Y-14400722D02*
X16788873Y-14505484D01*
X16912682Y-14505484D02*
X16893634Y-14495960D01*
X16893634Y-14495960D02*
X16884111Y-14486436D01*
X16884111Y-14486436D02*
X16874587Y-14467388D01*
X16874587Y-14467388D02*
X16874587Y-14410246D01*
X16874587Y-14410246D02*
X16884111Y-14391198D01*
X16884111Y-14391198D02*
X16893634Y-14381674D01*
X16893634Y-14381674D02*
X16912682Y-14372150D01*
X16912682Y-14372150D02*
X16941254Y-14372150D01*
X16941254Y-14372150D02*
X16960301Y-14381674D01*
X16960301Y-14381674D02*
X16969825Y-14391198D01*
X16969825Y-14391198D02*
X16979349Y-14410246D01*
X16979349Y-14410246D02*
X16979349Y-14467388D01*
X16979349Y-14467388D02*
X16969825Y-14486436D01*
X16969825Y-14486436D02*
X16960301Y-14495960D01*
X16960301Y-14495960D02*
X16941254Y-14505484D01*
X16941254Y-14505484D02*
X16912682Y-14505484D01*
X17036492Y-14372150D02*
X17112682Y-14372150D01*
X17065063Y-14305484D02*
X17065063Y-14476912D01*
X17065063Y-14476912D02*
X17074587Y-14495960D01*
X17074587Y-14495960D02*
X17093634Y-14505484D01*
X17093634Y-14505484D02*
X17112682Y-14505484D01*
X17331730Y-14372150D02*
X17331730Y-14572150D01*
X17331730Y-14381674D02*
X17350777Y-14372150D01*
X17350777Y-14372150D02*
X17388873Y-14372150D01*
X17388873Y-14372150D02*
X17407920Y-14381674D01*
X17407920Y-14381674D02*
X17417444Y-14391198D01*
X17417444Y-14391198D02*
X17426968Y-14410246D01*
X17426968Y-14410246D02*
X17426968Y-14467388D01*
X17426968Y-14467388D02*
X17417444Y-14486436D01*
X17417444Y-14486436D02*
X17407920Y-14495960D01*
X17407920Y-14495960D02*
X17388873Y-14505484D01*
X17388873Y-14505484D02*
X17350777Y-14505484D01*
X17350777Y-14505484D02*
X17331730Y-14495960D01*
X17541254Y-14505484D02*
X17522206Y-14495960D01*
X17522206Y-14495960D02*
X17512682Y-14476912D01*
X17512682Y-14476912D02*
X17512682Y-14305484D01*
X17703158Y-14505484D02*
X17703158Y-14400722D01*
X17703158Y-14400722D02*
X17693635Y-14381674D01*
X17693635Y-14381674D02*
X17674587Y-14372150D01*
X17674587Y-14372150D02*
X17636492Y-14372150D01*
X17636492Y-14372150D02*
X17617444Y-14381674D01*
X17703158Y-14495960D02*
X17684111Y-14505484D01*
X17684111Y-14505484D02*
X17636492Y-14505484D01*
X17636492Y-14505484D02*
X17617444Y-14495960D01*
X17617444Y-14495960D02*
X17607920Y-14476912D01*
X17607920Y-14476912D02*
X17607920Y-14457865D01*
X17607920Y-14457865D02*
X17617444Y-14438817D01*
X17617444Y-14438817D02*
X17636492Y-14429293D01*
X17636492Y-14429293D02*
X17684111Y-14429293D01*
X17684111Y-14429293D02*
X17703158Y-14419769D01*
X17769825Y-14372150D02*
X17846015Y-14372150D01*
X17798396Y-14305484D02*
X17798396Y-14476912D01*
X17798396Y-14476912D02*
X17807920Y-14495960D01*
X17807920Y-14495960D02*
X17826968Y-14505484D01*
X17826968Y-14505484D02*
X17846015Y-14505484D01*
X17988873Y-14495960D02*
X17969825Y-14505484D01*
X17969825Y-14505484D02*
X17931730Y-14505484D01*
X17931730Y-14505484D02*
X17912682Y-14495960D01*
X17912682Y-14495960D02*
X17903158Y-14476912D01*
X17903158Y-14476912D02*
X17903158Y-14400722D01*
X17903158Y-14400722D02*
X17912682Y-14381674D01*
X17912682Y-14381674D02*
X17931730Y-14372150D01*
X17931730Y-14372150D02*
X17969825Y-14372150D01*
X17969825Y-14372150D02*
X17988873Y-14381674D01*
X17988873Y-14381674D02*
X17998396Y-14400722D01*
X17998396Y-14400722D02*
X17998396Y-14419769D01*
X17998396Y-14419769D02*
X17903158Y-14438817D01*
X18169825Y-14505484D02*
X18169825Y-14305484D01*
X18169825Y-14495960D02*
X18150777Y-14505484D01*
X18150777Y-14505484D02*
X18112682Y-14505484D01*
X18112682Y-14505484D02*
X18093635Y-14495960D01*
X18093635Y-14495960D02*
X18084111Y-14486436D01*
X18084111Y-14486436D02*
X18074587Y-14467388D01*
X18074587Y-14467388D02*
X18074587Y-14410246D01*
X18074587Y-14410246D02*
X18084111Y-14391198D01*
X18084111Y-14391198D02*
X18093635Y-14381674D01*
X18093635Y-14381674D02*
X18112682Y-14372150D01*
X18112682Y-14372150D02*
X18150777Y-14372150D01*
X18150777Y-14372150D02*
X18169825Y-14381674D01*
X18246016Y-14581674D02*
X18255539Y-14572150D01*
X18255539Y-14572150D02*
X18274587Y-14543579D01*
X18274587Y-14543579D02*
X18284111Y-14524531D01*
X18284111Y-14524531D02*
X18293635Y-14495960D01*
X18293635Y-14495960D02*
X18303158Y-14448341D01*
X18303158Y-14448341D02*
X18303158Y-14410246D01*
X18303158Y-14410246D02*
X18293635Y-14362627D01*
X18293635Y-14362627D02*
X18284111Y-14334055D01*
X18284111Y-14334055D02*
X18274587Y-14315008D01*
X18274587Y-14315008D02*
X18255539Y-14286436D01*
X18255539Y-14286436D02*
X18246016Y-14276912D01*
M02*
