G04 #@! TF.GenerationSoftware,KiCad,Pcbnew,9.0.6-rc2*
G04 #@! TF.CreationDate,2025-10-27T21:23:21+01:00*
G04 #@! TF.ProjectId,windsensor,77696e64-7365-46e7-936f-722e6b696361,v1.0*
G04 #@! TF.SameCoordinates,Original*
G04 #@! TF.FileFunction,Legend,Top*
G04 #@! TF.FilePolarity,Positive*
%FSLAX46Y46*%
G04 Gerber Fmt 4.6, Leading zero omitted, Abs format (unit mm)*
G04 Created by KiCad (PCBNEW 9.0.6-rc2) date 2025-10-27 21:23:21*
%MOMM*%
%LPD*%
G01*
G04 APERTURE LIST*
G04 Aperture macros list*
%AMRoundRect*
0 Rectangle with rounded corners*
0 $1 Rounding radius*
0 $2 $3 $4 $5 $6 $7 $8 $9 X,Y pos of 4 corners*
0 Add a 4 corners polygon primitive as box body*
4,1,4,$2,$3,$4,$5,$6,$7,$8,$9,$2,$3,0*
0 Add four circle primitives for the rounded corners*
1,1,$1+$1,$2,$3*
1,1,$1+$1,$4,$5*
1,1,$1+$1,$6,$7*
1,1,$1+$1,$8,$9*
0 Add four rect primitives between the rounded corners*
20,1,$1+$1,$2,$3,$4,$5,0*
20,1,$1+$1,$4,$5,$6,$7,0*
20,1,$1+$1,$6,$7,$8,$9,0*
20,1,$1+$1,$8,$9,$2,$3,0*%
%AMFreePoly0*
4,1,17,1.395000,0.765000,0.855000,0.765000,0.855000,0.535000,1.395000,0.535000,1.395000,0.115000,0.855000,0.115000,0.855000,-0.115000,1.395000,-0.115000,1.395000,-0.535000,0.855000,-0.535000,0.855000,-0.765000,1.395000,-0.765000,1.395000,-1.185000,-0.855000,-1.185000,-0.855000,1.185000,1.395000,1.185000,1.395000,0.765000,1.395000,0.765000,$1*%
%AMFreePoly1*
4,1,6,1.000000,0.000000,0.500000,-0.750000,-0.500000,-0.750000,-0.500000,0.750000,0.500000,0.750000,1.000000,0.000000,1.000000,0.000000,$1*%
%AMFreePoly2*
4,1,6,0.500000,-0.750000,-0.650000,-0.750000,-0.150000,0.000000,-0.650000,0.750000,0.500000,0.750000,0.500000,-0.750000,0.500000,-0.750000,$1*%
G04 Aperture macros list end*
%ADD10C,0.200000*%
%ADD11C,0.254000*%
%ADD12C,0.150000*%
%ADD13C,0.120000*%
%ADD14C,0.100000*%
%ADD15C,0.250000*%
%ADD16C,0.127000*%
%ADD17C,3.200000*%
%ADD18RoundRect,0.155000X-0.212500X-0.155000X0.212500X-0.155000X0.212500X0.155000X-0.212500X0.155000X0*%
%ADD19RoundRect,0.135000X-0.135000X-0.185000X0.135000X-0.185000X0.135000X0.185000X-0.135000X0.185000X0*%
%ADD20R,0.475000X0.250000*%
%ADD21R,0.250000X0.475000*%
%ADD22RoundRect,0.140000X-0.021213X0.219203X-0.219203X0.021213X0.021213X-0.219203X0.219203X-0.021213X0*%
%ADD23R,1.600000X0.700000*%
%ADD24R,1.500000X1.200000*%
%ADD25R,2.200000X1.200000*%
%ADD26R,1.500000X1.600000*%
%ADD27RoundRect,0.101600X0.000000X-0.247487X0.247487X0.000000X0.000000X0.247487X-0.247487X0.000000X0*%
%ADD28RoundRect,0.140000X0.140000X0.170000X-0.140000X0.170000X-0.140000X-0.170000X0.140000X-0.170000X0*%
%ADD29RoundRect,0.140000X0.170000X-0.140000X0.170000X0.140000X-0.170000X0.140000X-0.170000X-0.140000X0*%
%ADD30RoundRect,0.135000X-0.185000X0.135000X-0.185000X-0.135000X0.185000X-0.135000X0.185000X0.135000X0*%
%ADD31RoundRect,0.135000X0.135000X0.185000X-0.135000X0.185000X-0.135000X-0.185000X0.135000X-0.185000X0*%
%ADD32RoundRect,0.101600X-0.247487X0.000000X0.000000X-0.247487X0.247487X0.000000X0.000000X0.247487X0*%
%ADD33RoundRect,0.102000X0.850000X-0.300000X0.850000X0.300000X-0.850000X0.300000X-0.850000X-0.300000X0*%
%ADD34RoundRect,0.102000X1.350000X-0.500000X1.350000X0.500000X-1.350000X0.500000X-1.350000X-0.500000X0*%
%ADD35RoundRect,0.101600X0.000000X0.247487X-0.247487X0.000000X0.000000X-0.247487X0.247487X0.000000X0*%
%ADD36RoundRect,0.101600X-0.175000X0.175000X-0.175000X-0.175000X0.175000X-0.175000X0.175000X0.175000X0*%
%ADD37RoundRect,0.140000X-0.170000X0.140000X-0.170000X-0.140000X0.170000X-0.140000X0.170000X0.140000X0*%
%ADD38RoundRect,0.105000X-0.245000X-0.105000X0.245000X-0.105000X0.245000X0.105000X-0.245000X0.105000X0*%
%ADD39FreePoly0,0.000000*%
%ADD40RoundRect,0.101600X0.175000X0.175000X-0.175000X0.175000X-0.175000X-0.175000X0.175000X-0.175000X0*%
%ADD41RoundRect,0.140000X0.021213X-0.219203X0.219203X-0.021213X-0.021213X0.219203X-0.219203X0.021213X0*%
%ADD42RoundRect,0.101600X0.247487X0.000000X0.000000X0.247487X-0.247487X0.000000X0.000000X-0.247487X0*%
%ADD43RoundRect,0.140000X-0.219203X-0.021213X-0.021213X-0.219203X0.219203X0.021213X0.021213X0.219203X0*%
%ADD44RoundRect,0.105000X0.245000X0.105000X-0.245000X0.105000X-0.245000X-0.105000X0.245000X-0.105000X0*%
%ADD45FreePoly0,180.000000*%
%ADD46RoundRect,0.140000X0.219203X0.021213X0.021213X0.219203X-0.219203X-0.021213X-0.021213X-0.219203X0*%
%ADD47RoundRect,0.218750X0.218750X0.256250X-0.218750X0.256250X-0.218750X-0.256250X0.218750X-0.256250X0*%
%ADD48RoundRect,0.100000X-0.637500X-0.100000X0.637500X-0.100000X0.637500X0.100000X-0.637500X0.100000X0*%
%ADD49RoundRect,0.250000X-0.850000X0.375000X-0.850000X-0.375000X0.850000X-0.375000X0.850000X0.375000X0*%
%ADD50RoundRect,0.101600X-0.175000X-0.175000X0.175000X-0.175000X0.175000X0.175000X-0.175000X0.175000X0*%
%ADD51RoundRect,0.140000X-0.140000X-0.170000X0.140000X-0.170000X0.140000X0.170000X-0.140000X0.170000X0*%
%ADD52R,0.600000X0.350000*%
%ADD53R,1.100000X1.700000*%
%ADD54RoundRect,0.135000X-0.035355X0.226274X-0.226274X0.035355X0.035355X-0.226274X0.226274X-0.035355X0*%
%ADD55RoundRect,0.135000X0.185000X-0.135000X0.185000X0.135000X-0.185000X0.135000X-0.185000X-0.135000X0*%
%ADD56RoundRect,0.137500X0.662500X-0.137500X0.662500X0.137500X-0.662500X0.137500X-0.662500X-0.137500X0*%
%ADD57C,0.228600*%
%ADD58RoundRect,0.250000X-0.312500X-0.625000X0.312500X-0.625000X0.312500X0.625000X-0.312500X0.625000X0*%
%ADD59FreePoly1,0.000000*%
%ADD60FreePoly2,0.000000*%
%ADD61RoundRect,0.101600X0.175000X-0.175000X0.175000X0.175000X-0.175000X0.175000X-0.175000X-0.175000X0*%
%ADD62R,1.700000X1.700000*%
%ADD63C,1.700000*%
%ADD64C,0.650000*%
%ADD65O,1.000000X1.800000*%
%ADD66O,1.000000X2.100000*%
G04 APERTURE END LIST*
D10*
X128076816Y-92842219D02*
X128648244Y-92842219D01*
X128362530Y-93842219D02*
X128362530Y-92842219D01*
X129124435Y-93842219D02*
X129029197Y-93794600D01*
X129029197Y-93794600D02*
X128981578Y-93746980D01*
X128981578Y-93746980D02*
X128933959Y-93651742D01*
X128933959Y-93651742D02*
X128933959Y-93366028D01*
X128933959Y-93366028D02*
X128981578Y-93270790D01*
X128981578Y-93270790D02*
X129029197Y-93223171D01*
X129029197Y-93223171D02*
X129124435Y-93175552D01*
X129124435Y-93175552D02*
X129267292Y-93175552D01*
X129267292Y-93175552D02*
X129362530Y-93223171D01*
X129362530Y-93223171D02*
X129410149Y-93270790D01*
X129410149Y-93270790D02*
X129457768Y-93366028D01*
X129457768Y-93366028D02*
X129457768Y-93651742D01*
X129457768Y-93651742D02*
X129410149Y-93746980D01*
X129410149Y-93746980D02*
X129362530Y-93794600D01*
X129362530Y-93794600D02*
X129267292Y-93842219D01*
X129267292Y-93842219D02*
X129124435Y-93842219D01*
X129886340Y-93175552D02*
X129886340Y-94175552D01*
X129886340Y-93223171D02*
X129981578Y-93175552D01*
X129981578Y-93175552D02*
X130172054Y-93175552D01*
X130172054Y-93175552D02*
X130267292Y-93223171D01*
X130267292Y-93223171D02*
X130314911Y-93270790D01*
X130314911Y-93270790D02*
X130362530Y-93366028D01*
X130362530Y-93366028D02*
X130362530Y-93651742D01*
X130362530Y-93651742D02*
X130314911Y-93746980D01*
X130314911Y-93746980D02*
X130267292Y-93794600D01*
X130267292Y-93794600D02*
X130172054Y-93842219D01*
X130172054Y-93842219D02*
X129981578Y-93842219D01*
X129981578Y-93842219D02*
X129886340Y-93794600D01*
X132029197Y-93842219D02*
X131553007Y-93842219D01*
X131553007Y-93842219D02*
X131553007Y-92842219D01*
X132791102Y-93842219D02*
X132791102Y-93318409D01*
X132791102Y-93318409D02*
X132743483Y-93223171D01*
X132743483Y-93223171D02*
X132648245Y-93175552D01*
X132648245Y-93175552D02*
X132457769Y-93175552D01*
X132457769Y-93175552D02*
X132362531Y-93223171D01*
X132791102Y-93794600D02*
X132695864Y-93842219D01*
X132695864Y-93842219D02*
X132457769Y-93842219D01*
X132457769Y-93842219D02*
X132362531Y-93794600D01*
X132362531Y-93794600D02*
X132314912Y-93699361D01*
X132314912Y-93699361D02*
X132314912Y-93604123D01*
X132314912Y-93604123D02*
X132362531Y-93508885D01*
X132362531Y-93508885D02*
X132457769Y-93461266D01*
X132457769Y-93461266D02*
X132695864Y-93461266D01*
X132695864Y-93461266D02*
X132791102Y-93413647D01*
X133172055Y-93175552D02*
X133410150Y-93842219D01*
X133648245Y-93175552D02*
X133410150Y-93842219D01*
X133410150Y-93842219D02*
X133314912Y-94080314D01*
X133314912Y-94080314D02*
X133267293Y-94127933D01*
X133267293Y-94127933D02*
X133172055Y-94175552D01*
X134410150Y-93794600D02*
X134314912Y-93842219D01*
X134314912Y-93842219D02*
X134124436Y-93842219D01*
X134124436Y-93842219D02*
X134029198Y-93794600D01*
X134029198Y-93794600D02*
X133981579Y-93699361D01*
X133981579Y-93699361D02*
X133981579Y-93318409D01*
X133981579Y-93318409D02*
X134029198Y-93223171D01*
X134029198Y-93223171D02*
X134124436Y-93175552D01*
X134124436Y-93175552D02*
X134314912Y-93175552D01*
X134314912Y-93175552D02*
X134410150Y-93223171D01*
X134410150Y-93223171D02*
X134457769Y-93318409D01*
X134457769Y-93318409D02*
X134457769Y-93413647D01*
X134457769Y-93413647D02*
X133981579Y-93508885D01*
X134886341Y-93842219D02*
X134886341Y-93175552D01*
X134886341Y-93366028D02*
X134933960Y-93270790D01*
X134933960Y-93270790D02*
X134981579Y-93223171D01*
X134981579Y-93223171D02*
X135076817Y-93175552D01*
X135076817Y-93175552D02*
X135172055Y-93175552D01*
D11*
X146310237Y-80974318D02*
X146310237Y-79704318D01*
X147640714Y-80853365D02*
X147580238Y-80913842D01*
X147580238Y-80913842D02*
X147398809Y-80974318D01*
X147398809Y-80974318D02*
X147277857Y-80974318D01*
X147277857Y-80974318D02*
X147096428Y-80913842D01*
X147096428Y-80913842D02*
X146975476Y-80792889D01*
X146975476Y-80792889D02*
X146914999Y-80671937D01*
X146914999Y-80671937D02*
X146854523Y-80430032D01*
X146854523Y-80430032D02*
X146854523Y-80248603D01*
X146854523Y-80248603D02*
X146914999Y-80006699D01*
X146914999Y-80006699D02*
X146975476Y-79885746D01*
X146975476Y-79885746D02*
X147096428Y-79764794D01*
X147096428Y-79764794D02*
X147277857Y-79704318D01*
X147277857Y-79704318D02*
X147398809Y-79704318D01*
X147398809Y-79704318D02*
X147580238Y-79764794D01*
X147580238Y-79764794D02*
X147640714Y-79825270D01*
X148064047Y-79704318D02*
X148850238Y-79704318D01*
X148850238Y-79704318D02*
X148426904Y-80188127D01*
X148426904Y-80188127D02*
X148608333Y-80188127D01*
X148608333Y-80188127D02*
X148729285Y-80248603D01*
X148729285Y-80248603D02*
X148789761Y-80309080D01*
X148789761Y-80309080D02*
X148850238Y-80430032D01*
X148850238Y-80430032D02*
X148850238Y-80732413D01*
X148850238Y-80732413D02*
X148789761Y-80853365D01*
X148789761Y-80853365D02*
X148729285Y-80913842D01*
X148729285Y-80913842D02*
X148608333Y-80974318D01*
X148608333Y-80974318D02*
X148245476Y-80974318D01*
X148245476Y-80974318D02*
X148124523Y-80913842D01*
X148124523Y-80913842D02*
X148064047Y-80853365D01*
D12*
X144304819Y-92040475D02*
X144304819Y-91469047D01*
X145304819Y-91754761D02*
X144304819Y-91754761D01*
X144781009Y-90802380D02*
X144781009Y-91135713D01*
X145304819Y-91135713D02*
X144304819Y-91135713D01*
X144304819Y-91135713D02*
X144304819Y-90659523D01*
X145304819Y-89754761D02*
X145304819Y-90326189D01*
X145304819Y-90040475D02*
X144304819Y-90040475D01*
X144304819Y-90040475D02*
X144447676Y-90135713D01*
X144447676Y-90135713D02*
X144542914Y-90230951D01*
X144542914Y-90230951D02*
X144590533Y-90326189D01*
X124752751Y-121062618D02*
X125325171Y-121635038D01*
X125325171Y-121635038D02*
X125426186Y-121668710D01*
X125426186Y-121668710D02*
X125493529Y-121668710D01*
X125493529Y-121668710D02*
X125594545Y-121635038D01*
X125594545Y-121635038D02*
X125729232Y-121500351D01*
X125729232Y-121500351D02*
X125762903Y-121399336D01*
X125762903Y-121399336D02*
X125762903Y-121331992D01*
X125762903Y-121331992D02*
X125729232Y-121230977D01*
X125729232Y-121230977D02*
X125156812Y-120658557D01*
X126571025Y-120658557D02*
X126166964Y-121062618D01*
X126368995Y-120860588D02*
X125661888Y-120153481D01*
X125661888Y-120153481D02*
X125695560Y-120321840D01*
X125695560Y-120321840D02*
X125695560Y-120456527D01*
X125695560Y-120456527D02*
X125661888Y-120557542D01*
X126301651Y-119513717D02*
X126368995Y-119446374D01*
X126368995Y-119446374D02*
X126470010Y-119412702D01*
X126470010Y-119412702D02*
X126537354Y-119412702D01*
X126537354Y-119412702D02*
X126638369Y-119446374D01*
X126638369Y-119446374D02*
X126806728Y-119547389D01*
X126806728Y-119547389D02*
X126975086Y-119715748D01*
X126975086Y-119715748D02*
X127076102Y-119884107D01*
X127076102Y-119884107D02*
X127109773Y-119985122D01*
X127109773Y-119985122D02*
X127109773Y-120052465D01*
X127109773Y-120052465D02*
X127076102Y-120153481D01*
X127076102Y-120153481D02*
X127008758Y-120220824D01*
X127008758Y-120220824D02*
X126907743Y-120254496D01*
X126907743Y-120254496D02*
X126840399Y-120254496D01*
X126840399Y-120254496D02*
X126739384Y-120220824D01*
X126739384Y-120220824D02*
X126571025Y-120119809D01*
X126571025Y-120119809D02*
X126402667Y-119951450D01*
X126402667Y-119951450D02*
X126301651Y-119783091D01*
X126301651Y-119783091D02*
X126267980Y-119682076D01*
X126267980Y-119682076D02*
X126267980Y-119614733D01*
X126267980Y-119614733D02*
X126301651Y-119513717D01*
X128937382Y-74752751D02*
X128364962Y-75325171D01*
X128364962Y-75325171D02*
X128331290Y-75426186D01*
X128331290Y-75426186D02*
X128331290Y-75493529D01*
X128331290Y-75493529D02*
X128364962Y-75594545D01*
X128364962Y-75594545D02*
X128499649Y-75729232D01*
X128499649Y-75729232D02*
X128600664Y-75762903D01*
X128600664Y-75762903D02*
X128668008Y-75762903D01*
X128668008Y-75762903D02*
X128769023Y-75729232D01*
X128769023Y-75729232D02*
X129341443Y-75156812D01*
X129981206Y-75796575D02*
X129846519Y-75661888D01*
X129846519Y-75661888D02*
X129745504Y-75628216D01*
X129745504Y-75628216D02*
X129678160Y-75628216D01*
X129678160Y-75628216D02*
X129509802Y-75661888D01*
X129509802Y-75661888D02*
X129341443Y-75762903D01*
X129341443Y-75762903D02*
X129072069Y-76032277D01*
X129072069Y-76032277D02*
X129038397Y-76133293D01*
X129038397Y-76133293D02*
X129038397Y-76200636D01*
X129038397Y-76200636D02*
X129072069Y-76301651D01*
X129072069Y-76301651D02*
X129206756Y-76436338D01*
X129206756Y-76436338D02*
X129307771Y-76470010D01*
X129307771Y-76470010D02*
X129375115Y-76470010D01*
X129375115Y-76470010D02*
X129476130Y-76436338D01*
X129476130Y-76436338D02*
X129644489Y-76267980D01*
X129644489Y-76267980D02*
X129678160Y-76166964D01*
X129678160Y-76166964D02*
X129678160Y-76099621D01*
X129678160Y-76099621D02*
X129644489Y-75998606D01*
X129644489Y-75998606D02*
X129509802Y-75863919D01*
X129509802Y-75863919D02*
X129408786Y-75830247D01*
X129408786Y-75830247D02*
X129341443Y-75830247D01*
X129341443Y-75830247D02*
X129240428Y-75863919D01*
X163203782Y-89633976D02*
X163919446Y-89633976D01*
X163919446Y-89633976D02*
X164062579Y-89681686D01*
X164062579Y-89681686D02*
X164158001Y-89777108D01*
X164158001Y-89777108D02*
X164205711Y-89920241D01*
X164205711Y-89920241D02*
X164205711Y-90015663D01*
X163203782Y-89252289D02*
X163203782Y-88584336D01*
X163203782Y-88584336D02*
X164205711Y-89013734D01*
X175247249Y-78937382D02*
X174674829Y-78364962D01*
X174674829Y-78364962D02*
X174573814Y-78331290D01*
X174573814Y-78331290D02*
X174506471Y-78331290D01*
X174506471Y-78331290D02*
X174405455Y-78364962D01*
X174405455Y-78364962D02*
X174270768Y-78499649D01*
X174270768Y-78499649D02*
X174237097Y-78600664D01*
X174237097Y-78600664D02*
X174237097Y-78668008D01*
X174237097Y-78668008D02*
X174270768Y-78769023D01*
X174270768Y-78769023D02*
X174843188Y-79341443D01*
X174169753Y-80014878D02*
X174506471Y-79678160D01*
X174506471Y-79678160D02*
X174203425Y-79307771D01*
X174203425Y-79307771D02*
X174203425Y-79375115D01*
X174203425Y-79375115D02*
X174169753Y-79476130D01*
X174169753Y-79476130D02*
X174001394Y-79644489D01*
X174001394Y-79644489D02*
X173900379Y-79678160D01*
X173900379Y-79678160D02*
X173833036Y-79678160D01*
X173833036Y-79678160D02*
X173732020Y-79644489D01*
X173732020Y-79644489D02*
X173563662Y-79476130D01*
X173563662Y-79476130D02*
X173529990Y-79375115D01*
X173529990Y-79375115D02*
X173529990Y-79307771D01*
X173529990Y-79307771D02*
X173563662Y-79206756D01*
X173563662Y-79206756D02*
X173732020Y-79038397D01*
X173732020Y-79038397D02*
X173833036Y-79004725D01*
X173833036Y-79004725D02*
X173900379Y-79004725D01*
X152958980Y-67253979D02*
X152149457Y-67253979D01*
X152149457Y-67253979D02*
X152054219Y-67301598D01*
X152054219Y-67301598D02*
X152006600Y-67349217D01*
X152006600Y-67349217D02*
X151958980Y-67444455D01*
X151958980Y-67444455D02*
X151958980Y-67634931D01*
X151958980Y-67634931D02*
X152006600Y-67730169D01*
X152006600Y-67730169D02*
X152054219Y-67777788D01*
X152054219Y-67777788D02*
X152149457Y-67825407D01*
X152149457Y-67825407D02*
X152958980Y-67825407D01*
X151958980Y-68349217D02*
X151958980Y-68539693D01*
X151958980Y-68539693D02*
X152006600Y-68634931D01*
X152006600Y-68634931D02*
X152054219Y-68682550D01*
X152054219Y-68682550D02*
X152197076Y-68777788D01*
X152197076Y-68777788D02*
X152387552Y-68825407D01*
X152387552Y-68825407D02*
X152768504Y-68825407D01*
X152768504Y-68825407D02*
X152863742Y-68777788D01*
X152863742Y-68777788D02*
X152911361Y-68730169D01*
X152911361Y-68730169D02*
X152958980Y-68634931D01*
X152958980Y-68634931D02*
X152958980Y-68444455D01*
X152958980Y-68444455D02*
X152911361Y-68349217D01*
X152911361Y-68349217D02*
X152863742Y-68301598D01*
X152863742Y-68301598D02*
X152768504Y-68253979D01*
X152768504Y-68253979D02*
X152530409Y-68253979D01*
X152530409Y-68253979D02*
X152435171Y-68301598D01*
X152435171Y-68301598D02*
X152387552Y-68349217D01*
X152387552Y-68349217D02*
X152339933Y-68444455D01*
X152339933Y-68444455D02*
X152339933Y-68634931D01*
X152339933Y-68634931D02*
X152387552Y-68730169D01*
X152387552Y-68730169D02*
X152435171Y-68777788D01*
X152435171Y-68777788D02*
X152530409Y-68825407D01*
X146904761Y-122300057D02*
X146809523Y-122252438D01*
X146809523Y-122252438D02*
X146714285Y-122157200D01*
X146714285Y-122157200D02*
X146571428Y-122014342D01*
X146571428Y-122014342D02*
X146476190Y-121966723D01*
X146476190Y-121966723D02*
X146380952Y-121966723D01*
X146428571Y-122204819D02*
X146333333Y-122157200D01*
X146333333Y-122157200D02*
X146238095Y-122061961D01*
X146238095Y-122061961D02*
X146190476Y-121871485D01*
X146190476Y-121871485D02*
X146190476Y-121538152D01*
X146190476Y-121538152D02*
X146238095Y-121347676D01*
X146238095Y-121347676D02*
X146333333Y-121252438D01*
X146333333Y-121252438D02*
X146428571Y-121204819D01*
X146428571Y-121204819D02*
X146619047Y-121204819D01*
X146619047Y-121204819D02*
X146714285Y-121252438D01*
X146714285Y-121252438D02*
X146809523Y-121347676D01*
X146809523Y-121347676D02*
X146857142Y-121538152D01*
X146857142Y-121538152D02*
X146857142Y-121871485D01*
X146857142Y-121871485D02*
X146809523Y-122061961D01*
X146809523Y-122061961D02*
X146714285Y-122157200D01*
X146714285Y-122157200D02*
X146619047Y-122204819D01*
X146619047Y-122204819D02*
X146428571Y-122204819D01*
X147809523Y-122204819D02*
X147238095Y-122204819D01*
X147523809Y-122204819D02*
X147523809Y-121204819D01*
X147523809Y-121204819D02*
X147428571Y-121347676D01*
X147428571Y-121347676D02*
X147333333Y-121442914D01*
X147333333Y-121442914D02*
X147238095Y-121490533D01*
X182746020Y-102958980D02*
X182746020Y-102149457D01*
X182746020Y-102149457D02*
X182698401Y-102054219D01*
X182698401Y-102054219D02*
X182650782Y-102006600D01*
X182650782Y-102006600D02*
X182555544Y-101958980D01*
X182555544Y-101958980D02*
X182365068Y-101958980D01*
X182365068Y-101958980D02*
X182269830Y-102006600D01*
X182269830Y-102006600D02*
X182222211Y-102054219D01*
X182222211Y-102054219D02*
X182174592Y-102149457D01*
X182174592Y-102149457D02*
X182174592Y-102958980D01*
X181555544Y-102530409D02*
X181650782Y-102578028D01*
X181650782Y-102578028D02*
X181698401Y-102625647D01*
X181698401Y-102625647D02*
X181746020Y-102720885D01*
X181746020Y-102720885D02*
X181746020Y-102768504D01*
X181746020Y-102768504D02*
X181698401Y-102863742D01*
X181698401Y-102863742D02*
X181650782Y-102911361D01*
X181650782Y-102911361D02*
X181555544Y-102958980D01*
X181555544Y-102958980D02*
X181365068Y-102958980D01*
X181365068Y-102958980D02*
X181269830Y-102911361D01*
X181269830Y-102911361D02*
X181222211Y-102863742D01*
X181222211Y-102863742D02*
X181174592Y-102768504D01*
X181174592Y-102768504D02*
X181174592Y-102720885D01*
X181174592Y-102720885D02*
X181222211Y-102625647D01*
X181222211Y-102625647D02*
X181269830Y-102578028D01*
X181269830Y-102578028D02*
X181365068Y-102530409D01*
X181365068Y-102530409D02*
X181555544Y-102530409D01*
X181555544Y-102530409D02*
X181650782Y-102482790D01*
X181650782Y-102482790D02*
X181698401Y-102435171D01*
X181698401Y-102435171D02*
X181746020Y-102339933D01*
X181746020Y-102339933D02*
X181746020Y-102149457D01*
X181746020Y-102149457D02*
X181698401Y-102054219D01*
X181698401Y-102054219D02*
X181650782Y-102006600D01*
X181650782Y-102006600D02*
X181555544Y-101958980D01*
X181555544Y-101958980D02*
X181365068Y-101958980D01*
X181365068Y-101958980D02*
X181269830Y-102006600D01*
X181269830Y-102006600D02*
X181222211Y-102054219D01*
X181222211Y-102054219D02*
X181174592Y-102149457D01*
X181174592Y-102149457D02*
X181174592Y-102339933D01*
X181174592Y-102339933D02*
X181222211Y-102435171D01*
X181222211Y-102435171D02*
X181269830Y-102482790D01*
X181269830Y-102482790D02*
X181365068Y-102530409D01*
X171062617Y-125247249D02*
X171635037Y-124674829D01*
X171635037Y-124674829D02*
X171668709Y-124573814D01*
X171668709Y-124573814D02*
X171668709Y-124506471D01*
X171668709Y-124506471D02*
X171635037Y-124405455D01*
X171635037Y-124405455D02*
X171500350Y-124270768D01*
X171500350Y-124270768D02*
X171399335Y-124237097D01*
X171399335Y-124237097D02*
X171331991Y-124237097D01*
X171331991Y-124237097D02*
X171230976Y-124270768D01*
X171230976Y-124270768D02*
X170658556Y-124843188D01*
X170389182Y-124573814D02*
X169917777Y-124102410D01*
X169917777Y-124102410D02*
X170927930Y-123698349D01*
X153700057Y-121945238D02*
X153652438Y-122040476D01*
X153652438Y-122040476D02*
X153557200Y-122135714D01*
X153557200Y-122135714D02*
X153414342Y-122278571D01*
X153414342Y-122278571D02*
X153366723Y-122373809D01*
X153366723Y-122373809D02*
X153366723Y-122469047D01*
X153604819Y-122421428D02*
X153557200Y-122516666D01*
X153557200Y-122516666D02*
X153461961Y-122611904D01*
X153461961Y-122611904D02*
X153271485Y-122659523D01*
X153271485Y-122659523D02*
X152938152Y-122659523D01*
X152938152Y-122659523D02*
X152747676Y-122611904D01*
X152747676Y-122611904D02*
X152652438Y-122516666D01*
X152652438Y-122516666D02*
X152604819Y-122421428D01*
X152604819Y-122421428D02*
X152604819Y-122230952D01*
X152604819Y-122230952D02*
X152652438Y-122135714D01*
X152652438Y-122135714D02*
X152747676Y-122040476D01*
X152747676Y-122040476D02*
X152938152Y-121992857D01*
X152938152Y-121992857D02*
X153271485Y-121992857D01*
X153271485Y-121992857D02*
X153461961Y-122040476D01*
X153461961Y-122040476D02*
X153557200Y-122135714D01*
X153557200Y-122135714D02*
X153604819Y-122230952D01*
X153604819Y-122230952D02*
X153604819Y-122421428D01*
X152700057Y-121611904D02*
X152652438Y-121564285D01*
X152652438Y-121564285D02*
X152604819Y-121469047D01*
X152604819Y-121469047D02*
X152604819Y-121230952D01*
X152604819Y-121230952D02*
X152652438Y-121135714D01*
X152652438Y-121135714D02*
X152700057Y-121088095D01*
X152700057Y-121088095D02*
X152795295Y-121040476D01*
X152795295Y-121040476D02*
X152890533Y-121040476D01*
X152890533Y-121040476D02*
X153033390Y-121088095D01*
X153033390Y-121088095D02*
X153604819Y-121659523D01*
X153604819Y-121659523D02*
X153604819Y-121040476D01*
X161111905Y-120304819D02*
X161111905Y-119304819D01*
X161111905Y-119304819D02*
X161350000Y-119304819D01*
X161350000Y-119304819D02*
X161492857Y-119352438D01*
X161492857Y-119352438D02*
X161588095Y-119447676D01*
X161588095Y-119447676D02*
X161635714Y-119542914D01*
X161635714Y-119542914D02*
X161683333Y-119733390D01*
X161683333Y-119733390D02*
X161683333Y-119876247D01*
X161683333Y-119876247D02*
X161635714Y-120066723D01*
X161635714Y-120066723D02*
X161588095Y-120161961D01*
X161588095Y-120161961D02*
X161492857Y-120257200D01*
X161492857Y-120257200D02*
X161350000Y-120304819D01*
X161350000Y-120304819D02*
X161111905Y-120304819D01*
X162064286Y-119400057D02*
X162111905Y-119352438D01*
X162111905Y-119352438D02*
X162207143Y-119304819D01*
X162207143Y-119304819D02*
X162445238Y-119304819D01*
X162445238Y-119304819D02*
X162540476Y-119352438D01*
X162540476Y-119352438D02*
X162588095Y-119400057D01*
X162588095Y-119400057D02*
X162635714Y-119495295D01*
X162635714Y-119495295D02*
X162635714Y-119590533D01*
X162635714Y-119590533D02*
X162588095Y-119733390D01*
X162588095Y-119733390D02*
X162016667Y-120304819D01*
X162016667Y-120304819D02*
X162635714Y-120304819D01*
X151961905Y-106479819D02*
X151961905Y-107289342D01*
X151961905Y-107289342D02*
X152009524Y-107384580D01*
X152009524Y-107384580D02*
X152057143Y-107432200D01*
X152057143Y-107432200D02*
X152152381Y-107479819D01*
X152152381Y-107479819D02*
X152342857Y-107479819D01*
X152342857Y-107479819D02*
X152438095Y-107432200D01*
X152438095Y-107432200D02*
X152485714Y-107384580D01*
X152485714Y-107384580D02*
X152533333Y-107289342D01*
X152533333Y-107289342D02*
X152533333Y-106479819D01*
X153533333Y-107479819D02*
X152961905Y-107479819D01*
X153247619Y-107479819D02*
X153247619Y-106479819D01*
X153247619Y-106479819D02*
X153152381Y-106622676D01*
X153152381Y-106622676D02*
X153057143Y-106717914D01*
X153057143Y-106717914D02*
X152961905Y-106765533D01*
X154390476Y-106813152D02*
X154390476Y-107479819D01*
X154152381Y-106432200D02*
X153914286Y-107146485D01*
X153914286Y-107146485D02*
X154533333Y-107146485D01*
X142679819Y-110891667D02*
X142679819Y-111367857D01*
X142679819Y-111367857D02*
X141679819Y-111367857D01*
X141775057Y-110605952D02*
X141727438Y-110558333D01*
X141727438Y-110558333D02*
X141679819Y-110463095D01*
X141679819Y-110463095D02*
X141679819Y-110225000D01*
X141679819Y-110225000D02*
X141727438Y-110129762D01*
X141727438Y-110129762D02*
X141775057Y-110082143D01*
X141775057Y-110082143D02*
X141870295Y-110034524D01*
X141870295Y-110034524D02*
X141965533Y-110034524D01*
X141965533Y-110034524D02*
X142108390Y-110082143D01*
X142108390Y-110082143D02*
X142679819Y-110653571D01*
X142679819Y-110653571D02*
X142679819Y-110034524D01*
X117253979Y-97041019D02*
X117253979Y-97850542D01*
X117253979Y-97850542D02*
X117301598Y-97945780D01*
X117301598Y-97945780D02*
X117349217Y-97993400D01*
X117349217Y-97993400D02*
X117444455Y-98041019D01*
X117444455Y-98041019D02*
X117634931Y-98041019D01*
X117634931Y-98041019D02*
X117730169Y-97993400D01*
X117730169Y-97993400D02*
X117777788Y-97945780D01*
X117777788Y-97945780D02*
X117825407Y-97850542D01*
X117825407Y-97850542D02*
X117825407Y-97041019D01*
X118825407Y-98041019D02*
X118253979Y-98041019D01*
X118539693Y-98041019D02*
X118539693Y-97041019D01*
X118539693Y-97041019D02*
X118444455Y-97183876D01*
X118444455Y-97183876D02*
X118349217Y-97279114D01*
X118349217Y-97279114D02*
X118253979Y-97326733D01*
X119206360Y-97136257D02*
X119253979Y-97088638D01*
X119253979Y-97088638D02*
X119349217Y-97041019D01*
X119349217Y-97041019D02*
X119587312Y-97041019D01*
X119587312Y-97041019D02*
X119682550Y-97088638D01*
X119682550Y-97088638D02*
X119730169Y-97136257D01*
X119730169Y-97136257D02*
X119777788Y-97231495D01*
X119777788Y-97231495D02*
X119777788Y-97326733D01*
X119777788Y-97326733D02*
X119730169Y-97469590D01*
X119730169Y-97469590D02*
X119158741Y-98041019D01*
X119158741Y-98041019D02*
X119777788Y-98041019D01*
D11*
X137610237Y-82274318D02*
X137610237Y-81004318D01*
X138940714Y-82153365D02*
X138880238Y-82213842D01*
X138880238Y-82213842D02*
X138698809Y-82274318D01*
X138698809Y-82274318D02*
X138577857Y-82274318D01*
X138577857Y-82274318D02*
X138396428Y-82213842D01*
X138396428Y-82213842D02*
X138275476Y-82092889D01*
X138275476Y-82092889D02*
X138214999Y-81971937D01*
X138214999Y-81971937D02*
X138154523Y-81730032D01*
X138154523Y-81730032D02*
X138154523Y-81548603D01*
X138154523Y-81548603D02*
X138214999Y-81306699D01*
X138214999Y-81306699D02*
X138275476Y-81185746D01*
X138275476Y-81185746D02*
X138396428Y-81064794D01*
X138396428Y-81064794D02*
X138577857Y-81004318D01*
X138577857Y-81004318D02*
X138698809Y-81004318D01*
X138698809Y-81004318D02*
X138880238Y-81064794D01*
X138880238Y-81064794D02*
X138940714Y-81125270D01*
X139424523Y-81125270D02*
X139484999Y-81064794D01*
X139484999Y-81064794D02*
X139605952Y-81004318D01*
X139605952Y-81004318D02*
X139908333Y-81004318D01*
X139908333Y-81004318D02*
X140029285Y-81064794D01*
X140029285Y-81064794D02*
X140089761Y-81125270D01*
X140089761Y-81125270D02*
X140150238Y-81246222D01*
X140150238Y-81246222D02*
X140150238Y-81367175D01*
X140150238Y-81367175D02*
X140089761Y-81548603D01*
X140089761Y-81548603D02*
X139364047Y-82274318D01*
X139364047Y-82274318D02*
X140150238Y-82274318D01*
D12*
X129604819Y-108616666D02*
X129604819Y-109092856D01*
X129604819Y-109092856D02*
X128604819Y-109092856D01*
X129604819Y-107759523D02*
X129604819Y-108330951D01*
X129604819Y-108045237D02*
X128604819Y-108045237D01*
X128604819Y-108045237D02*
X128747676Y-108140475D01*
X128747676Y-108140475D02*
X128842914Y-108235713D01*
X128842914Y-108235713D02*
X128890533Y-108330951D01*
X161111905Y-121904819D02*
X161111905Y-120904819D01*
X161111905Y-120904819D02*
X161350000Y-120904819D01*
X161350000Y-120904819D02*
X161492857Y-120952438D01*
X161492857Y-120952438D02*
X161588095Y-121047676D01*
X161588095Y-121047676D02*
X161635714Y-121142914D01*
X161635714Y-121142914D02*
X161683333Y-121333390D01*
X161683333Y-121333390D02*
X161683333Y-121476247D01*
X161683333Y-121476247D02*
X161635714Y-121666723D01*
X161635714Y-121666723D02*
X161588095Y-121761961D01*
X161588095Y-121761961D02*
X161492857Y-121857200D01*
X161492857Y-121857200D02*
X161350000Y-121904819D01*
X161350000Y-121904819D02*
X161111905Y-121904819D01*
X162635714Y-121904819D02*
X162064286Y-121904819D01*
X162350000Y-121904819D02*
X162350000Y-120904819D01*
X162350000Y-120904819D02*
X162254762Y-121047676D01*
X162254762Y-121047676D02*
X162159524Y-121142914D01*
X162159524Y-121142914D02*
X162064286Y-121190533D01*
X142061905Y-80704819D02*
X142061905Y-81514342D01*
X142061905Y-81514342D02*
X142109524Y-81609580D01*
X142109524Y-81609580D02*
X142157143Y-81657200D01*
X142157143Y-81657200D02*
X142252381Y-81704819D01*
X142252381Y-81704819D02*
X142442857Y-81704819D01*
X142442857Y-81704819D02*
X142538095Y-81657200D01*
X142538095Y-81657200D02*
X142585714Y-81609580D01*
X142585714Y-81609580D02*
X142633333Y-81514342D01*
X142633333Y-81514342D02*
X142633333Y-80704819D01*
X143633333Y-81704819D02*
X143061905Y-81704819D01*
X143347619Y-81704819D02*
X143347619Y-80704819D01*
X143347619Y-80704819D02*
X143252381Y-80847676D01*
X143252381Y-80847676D02*
X143157143Y-80942914D01*
X143157143Y-80942914D02*
X143061905Y-80990533D01*
X143966667Y-80704819D02*
X144585714Y-80704819D01*
X144585714Y-80704819D02*
X144252381Y-81085771D01*
X144252381Y-81085771D02*
X144395238Y-81085771D01*
X144395238Y-81085771D02*
X144490476Y-81133390D01*
X144490476Y-81133390D02*
X144538095Y-81181009D01*
X144538095Y-81181009D02*
X144585714Y-81276247D01*
X144585714Y-81276247D02*
X144585714Y-81514342D01*
X144585714Y-81514342D02*
X144538095Y-81609580D01*
X144538095Y-81609580D02*
X144490476Y-81657200D01*
X144490476Y-81657200D02*
X144395238Y-81704819D01*
X144395238Y-81704819D02*
X144109524Y-81704819D01*
X144109524Y-81704819D02*
X144014286Y-81657200D01*
X144014286Y-81657200D02*
X143966667Y-81609580D01*
X154516666Y-125104819D02*
X154516666Y-125819104D01*
X154516666Y-125819104D02*
X154469047Y-125961961D01*
X154469047Y-125961961D02*
X154373809Y-126057200D01*
X154373809Y-126057200D02*
X154230952Y-126104819D01*
X154230952Y-126104819D02*
X154135714Y-126104819D01*
X154992857Y-126104819D02*
X154992857Y-125104819D01*
X154992857Y-125104819D02*
X155373809Y-125104819D01*
X155373809Y-125104819D02*
X155469047Y-125152438D01*
X155469047Y-125152438D02*
X155516666Y-125200057D01*
X155516666Y-125200057D02*
X155564285Y-125295295D01*
X155564285Y-125295295D02*
X155564285Y-125438152D01*
X155564285Y-125438152D02*
X155516666Y-125533390D01*
X155516666Y-125533390D02*
X155469047Y-125581009D01*
X155469047Y-125581009D02*
X155373809Y-125628628D01*
X155373809Y-125628628D02*
X154992857Y-125628628D01*
X156516666Y-126104819D02*
X155945238Y-126104819D01*
X156230952Y-126104819D02*
X156230952Y-125104819D01*
X156230952Y-125104819D02*
X156135714Y-125247676D01*
X156135714Y-125247676D02*
X156040476Y-125342914D01*
X156040476Y-125342914D02*
X155945238Y-125390533D01*
X147041019Y-132746020D02*
X147850542Y-132746020D01*
X147850542Y-132746020D02*
X147945780Y-132698401D01*
X147945780Y-132698401D02*
X147993400Y-132650782D01*
X147993400Y-132650782D02*
X148041019Y-132555544D01*
X148041019Y-132555544D02*
X148041019Y-132365068D01*
X148041019Y-132365068D02*
X147993400Y-132269830D01*
X147993400Y-132269830D02*
X147945780Y-132222211D01*
X147945780Y-132222211D02*
X147850542Y-132174592D01*
X147850542Y-132174592D02*
X147041019Y-132174592D01*
X148041019Y-131174592D02*
X148041019Y-131746020D01*
X148041019Y-131460306D02*
X147041019Y-131460306D01*
X147041019Y-131460306D02*
X147183876Y-131555544D01*
X147183876Y-131555544D02*
X147279114Y-131650782D01*
X147279114Y-131650782D02*
X147326733Y-131746020D01*
X148041019Y-130222211D02*
X148041019Y-130793639D01*
X148041019Y-130507925D02*
X147041019Y-130507925D01*
X147041019Y-130507925D02*
X147183876Y-130603163D01*
X147183876Y-130603163D02*
X147279114Y-130698401D01*
X147279114Y-130698401D02*
X147326733Y-130793639D01*
D13*
G04 #@! TO.C,C44*
X147434165Y-84290000D02*
X147665835Y-84290000D01*
X147434165Y-85010000D02*
X147665835Y-85010000D01*
G04 #@! TO.C,R6*
X156546359Y-121120000D02*
X156853641Y-121120000D01*
X156546359Y-121880000D02*
X156853641Y-121880000D01*
D14*
G04 #@! TO.C,IC3*
X145500000Y-81987000D02*
X145500000Y-81987000D01*
X145600000Y-81987000D02*
X145600000Y-81987000D01*
X145500000Y-81987000D02*
G75*
G02*
X145600000Y-81987000I50000J0D01*
G01*
X145600000Y-81987000D02*
G75*
G02*
X145500000Y-81987000I-50000J0D01*
G01*
D13*
G04 #@! TO.C,C26*
X170636104Y-75304779D02*
X170483601Y-75457282D01*
X171145221Y-75813896D02*
X170992718Y-75966399D01*
D11*
G04 #@! TO.C,TF1*
X136170000Y-92420000D02*
X139369000Y-92420000D01*
X136170000Y-92550000D02*
X136170000Y-92420000D01*
X136170000Y-107570000D02*
X136170000Y-92550000D01*
X136300000Y-107570000D02*
X136170000Y-107570000D01*
X139369000Y-107570000D02*
X136300000Y-107570000D01*
X142031000Y-92420000D02*
X149319000Y-92420000D01*
X149319000Y-107570000D02*
X142031000Y-107570000D01*
X151281000Y-92420000D02*
X151310000Y-92420000D01*
X151300000Y-104702000D02*
X151300000Y-102850000D01*
X151300000Y-104702000D02*
X151300000Y-107570000D01*
X151300000Y-107570000D02*
X151281000Y-107570000D01*
X151310000Y-92420000D02*
X151310000Y-92868500D01*
D10*
G04 #@! TO.C,U10*
X126029080Y-122132443D02*
X128291822Y-119869701D01*
X127867558Y-123970921D02*
X126029080Y-122132443D01*
X127867558Y-123970921D02*
X130130300Y-121708179D01*
X130130300Y-121708179D02*
X128291822Y-119869701D01*
D15*
X126136403Y-121230882D02*
G75*
G02*
X125886403Y-121230882I-125000J0D01*
G01*
X125886403Y-121230882D02*
G75*
G02*
X126136403Y-121230882I125000J0D01*
G01*
D13*
G04 #@! TO.C,C29*
X180152836Y-97215000D02*
X179937164Y-97215000D01*
X180152836Y-97935000D02*
X179937164Y-97935000D01*
G04 #@! TO.C,C47*
X155640000Y-98487836D02*
X155640000Y-98272164D01*
X156360000Y-98487836D02*
X156360000Y-98272164D01*
G04 #@! TO.C,R19*
X177945000Y-99981359D02*
X177945000Y-100288641D01*
X178705000Y-99981359D02*
X178705000Y-100288641D01*
G04 #@! TO.C,R31*
X157063641Y-117120000D02*
X156756359Y-117120000D01*
X157063641Y-117880000D02*
X156756359Y-117880000D01*
G04 #@! TO.C,R26*
X147156359Y-114170000D02*
X147463641Y-114170000D01*
X147156359Y-114930000D02*
X147463641Y-114930000D01*
D10*
G04 #@! TO.C,U6*
X126029080Y-77867558D02*
X127867558Y-76029080D01*
X126029080Y-77867558D02*
X128291822Y-80130300D01*
X127867558Y-76029080D02*
X130130300Y-78291822D01*
X128291822Y-80130300D02*
X130130300Y-78291822D01*
D15*
X128894119Y-76011403D02*
G75*
G02*
X128644119Y-76011403I-125000J0D01*
G01*
X128644119Y-76011403D02*
G75*
G02*
X128894119Y-76011403I125000J0D01*
G01*
D13*
G04 #@! TO.C,R22*
X146456359Y-110170000D02*
X146763641Y-110170000D01*
X146456359Y-110930000D02*
X146763641Y-110930000D01*
D16*
G04 #@! TO.C,J7*
X161050000Y-90650000D02*
X161050000Y-92280000D01*
X161050000Y-110150000D02*
X161050000Y-108520000D01*
X162220000Y-90650000D02*
X161050000Y-90650000D01*
X162230000Y-110150000D02*
X161050000Y-110150000D01*
X165100000Y-108875000D02*
X165100000Y-91925000D01*
D10*
X160500000Y-108775000D02*
G75*
G02*
X160300000Y-108775000I-100000J0D01*
G01*
X160300000Y-108775000D02*
G75*
G02*
X160500000Y-108775000I100000J0D01*
G01*
D13*
G04 #@! TO.C,R30*
X158113641Y-116120000D02*
X157806359Y-116120000D01*
X158113641Y-116880000D02*
X157806359Y-116880000D01*
D10*
G04 #@! TO.C,U5*
X169869701Y-78291822D02*
X171708179Y-80130300D01*
X172132443Y-76029080D02*
X169869701Y-78291822D01*
X172132443Y-76029080D02*
X173970921Y-77867558D01*
X173970921Y-77867558D02*
X171708179Y-80130300D01*
D15*
X174113598Y-78769119D02*
G75*
G02*
X173863598Y-78769119I-125000J0D01*
G01*
X173863598Y-78769119D02*
G75*
G02*
X174113598Y-78769119I125000J0D01*
G01*
D10*
G04 #@! TO.C,U9*
X148700000Y-67400000D02*
X148700000Y-70600000D01*
X148700000Y-67400000D02*
X151300000Y-67400000D01*
X148700000Y-70600000D02*
X151300000Y-70600000D01*
X151300000Y-67400000D02*
X151300000Y-70600000D01*
D15*
X152075000Y-68025000D02*
G75*
G02*
X151825000Y-68025000I-125000J0D01*
G01*
X151825000Y-68025000D02*
G75*
G02*
X152075000Y-68025000I125000J0D01*
G01*
D13*
G04 #@! TO.C,C43*
X149315000Y-83847164D02*
X149315000Y-84062836D01*
X150035000Y-83847164D02*
X150035000Y-84062836D01*
G04 #@! TO.C,C42*
X143040000Y-85037836D02*
X143040000Y-84822164D01*
X143760000Y-85037836D02*
X143760000Y-84822164D01*
G04 #@! TO.C,R36*
X157816359Y-112070000D02*
X158123641Y-112070000D01*
X157816359Y-112830000D02*
X158123641Y-112830000D01*
G04 #@! TO.C,Q1*
X147410000Y-120795000D02*
X147410000Y-120425000D01*
X147410000Y-120795000D02*
X150950000Y-120795000D01*
X150950000Y-117255000D02*
X147740000Y-117255000D01*
X150950000Y-117255000D02*
X150950000Y-117625000D01*
X150950000Y-120795000D02*
X150950000Y-120425000D01*
X147420000Y-117575000D02*
X146940000Y-117575000D01*
X147420000Y-117095000D01*
X147420000Y-117575000D01*
G36*
X147420000Y-117575000D02*
G01*
X146940000Y-117575000D01*
X147420000Y-117095000D01*
X147420000Y-117575000D01*
G37*
D10*
G04 #@! TO.C,U8*
X179400000Y-98700000D02*
X179400000Y-101300000D01*
X182600000Y-98700000D02*
X179400000Y-98700000D01*
X182600000Y-98700000D02*
X182600000Y-101300000D01*
X182600000Y-101300000D02*
X179400000Y-101300000D01*
D15*
X182100000Y-101950000D02*
G75*
G02*
X181850000Y-101950000I-125000J0D01*
G01*
X181850000Y-101950000D02*
G75*
G02*
X182100000Y-101950000I125000J0D01*
G01*
D13*
G04 #@! TO.C,C30*
X147190000Y-69662164D02*
X147190000Y-69877836D01*
X147910000Y-69662164D02*
X147910000Y-69877836D01*
G04 #@! TO.C,C36*
X128779779Y-124211104D02*
X128932282Y-124058601D01*
X129288896Y-124720221D02*
X129441399Y-124567718D01*
G04 #@! TO.C,C1*
X156040000Y-119892164D02*
X156040000Y-120107836D01*
X156760000Y-119892164D02*
X156760000Y-120107836D01*
D10*
G04 #@! TO.C,U7*
X171708178Y-119869701D02*
X169869700Y-121708179D01*
X172132442Y-123970921D02*
X169869700Y-121708179D01*
X173970920Y-122132443D02*
X171708178Y-119869701D01*
X173970920Y-122132443D02*
X172132442Y-123970921D01*
D15*
X171355881Y-123988598D02*
G75*
G02*
X171105881Y-123988598I-125000J0D01*
G01*
X171105881Y-123988598D02*
G75*
G02*
X171355881Y-123988598I125000J0D01*
G01*
D13*
G04 #@! TO.C,C33*
X147190000Y-67722164D02*
X147190000Y-67937836D01*
X147910000Y-67722164D02*
X147910000Y-67937836D01*
G04 #@! TO.C,R35*
X157816359Y-113070000D02*
X158123641Y-113070000D01*
X157816359Y-113830000D02*
X158123641Y-113830000D01*
G04 #@! TO.C,R24*
X147146359Y-112170000D02*
X147453641Y-112170000D01*
X147146359Y-112930000D02*
X147453641Y-112930000D01*
G04 #@! TO.C,C24*
X126679779Y-80588896D02*
X126832282Y-80741399D01*
X127188896Y-80079779D02*
X127341399Y-80232282D01*
G04 #@! TO.C,Q2*
X151730000Y-117255000D02*
X151730000Y-117625000D01*
X151730000Y-120795000D02*
X151730000Y-120425000D01*
X151730000Y-120795000D02*
X154940000Y-120795000D01*
X155270000Y-117255000D02*
X151730000Y-117255000D01*
X155270000Y-117255000D02*
X155270000Y-117625000D01*
X155260000Y-120955000D02*
X155260000Y-120475000D01*
X155740000Y-120475000D01*
X155260000Y-120955000D01*
G36*
X155260000Y-120955000D02*
G01*
X155260000Y-120475000D01*
X155740000Y-120475000D01*
X155260000Y-120955000D01*
G37*
G04 #@! TO.C,C31*
X173982282Y-121041399D02*
X173829779Y-120888896D01*
X174491399Y-120532282D02*
X174338896Y-120379779D01*
G04 #@! TO.C,C17*
X140690000Y-84157836D02*
X140690000Y-83942164D01*
X141410000Y-84157836D02*
X141410000Y-83942164D01*
G04 #@! TO.C,D2*
X158500000Y-120535000D02*
X160785000Y-120535000D01*
X160785000Y-119065000D02*
X158500000Y-119065000D01*
X160785000Y-120535000D02*
X160785000Y-119065000D01*
G04 #@! TO.C,R28*
X147156359Y-116220000D02*
X147463641Y-116220000D01*
X147156359Y-116980000D02*
X147463641Y-116980000D01*
G04 #@! TO.C,C27*
X125229779Y-79188896D02*
X125382282Y-79341399D01*
X125738896Y-78679779D02*
X125891399Y-78832282D01*
G04 #@! TO.C,R5*
X146593641Y-124970000D02*
X146286359Y-124970000D01*
X146593641Y-125730000D02*
X146286359Y-125730000D01*
G04 #@! TO.C,U14*
X150227500Y-108940000D02*
X154847500Y-108940000D01*
X154847500Y-117010000D02*
X150227500Y-117010000D01*
X148677500Y-109395000D02*
X148347500Y-109635000D01*
X148347500Y-109155000D01*
X148677500Y-109395000D01*
G36*
X148677500Y-109395000D02*
G01*
X148347500Y-109635000D01*
X148347500Y-109155000D01*
X148677500Y-109395000D01*
G37*
G04 #@! TO.C,C41*
X141990000Y-84842164D02*
X141990000Y-85057836D01*
X142710000Y-84842164D02*
X142710000Y-85057836D01*
G04 #@! TO.C,L2*
X139065000Y-110463749D02*
X139065000Y-110986253D01*
X141285000Y-110463749D02*
X141285000Y-110986253D01*
G04 #@! TO.C,R1*
X146220000Y-118056359D02*
X146220000Y-118363641D01*
X146980000Y-118056359D02*
X146980000Y-118363641D01*
D10*
G04 #@! TO.C,U12*
X117400000Y-98700000D02*
X120600000Y-98700000D01*
X117400000Y-101300000D02*
X117400000Y-98700000D01*
X117400000Y-101300000D02*
X120600000Y-101300000D01*
X120600000Y-101300000D02*
X120600000Y-98700000D01*
D15*
X118150000Y-98050000D02*
G75*
G02*
X117900000Y-98050000I-125000J0D01*
G01*
X117900000Y-98050000D02*
G75*
G02*
X118150000Y-98050000I125000J0D01*
G01*
D13*
G04 #@! TO.C,R39*
X153543641Y-94220000D02*
X153236359Y-94220000D01*
X153543641Y-94980000D02*
X153236359Y-94980000D01*
G04 #@! TO.C,C2*
X156792164Y-118140000D02*
X157007836Y-118140000D01*
X156792164Y-118860000D02*
X157007836Y-118860000D01*
G04 #@! TO.C,R38*
X157816359Y-114070000D02*
X158123641Y-114070000D01*
X157816359Y-114830000D02*
X158123641Y-114830000D01*
G04 #@! TO.C,C45*
X154847164Y-107865000D02*
X155062836Y-107865000D01*
X154847164Y-108585000D02*
X155062836Y-108585000D01*
G04 #@! TO.C,R37*
X157806359Y-115120000D02*
X158113641Y-115120000D01*
X157806359Y-115880000D02*
X158113641Y-115880000D01*
G04 #@! TO.C,C28*
X172632282Y-119691399D02*
X172479779Y-119538896D01*
X173141399Y-119182282D02*
X172988896Y-119029779D01*
G04 #@! TO.C,R23*
X146404485Y-108802016D02*
X146711767Y-108802016D01*
X146404485Y-109562016D02*
X146711767Y-109562016D01*
G04 #@! TO.C,R33*
X157816359Y-111070000D02*
X158123641Y-111070000D01*
X157816359Y-111830000D02*
X158123641Y-111830000D01*
G04 #@! TO.C,R41*
X153553641Y-97420000D02*
X153246359Y-97420000D01*
X153553641Y-98180000D02*
X153246359Y-98180000D01*
D15*
G04 #@! TO.C,IC2*
X140375000Y-85225000D02*
G75*
G02*
X140125000Y-85225000I-125000J0D01*
G01*
X140125000Y-85225000D02*
G75*
G02*
X140375000Y-85225000I125000J0D01*
G01*
D13*
G04 #@! TO.C,R40*
X153543641Y-95220000D02*
X153236359Y-95220000D01*
X153543641Y-95980000D02*
X153236359Y-95980000D01*
G04 #@! TO.C,R27*
X147146359Y-113170000D02*
X147453641Y-113170000D01*
X147146359Y-113930000D02*
X147453641Y-113930000D01*
G04 #@! TO.C,C37*
X152040000Y-131937836D02*
X152040000Y-131722164D01*
X152760000Y-131937836D02*
X152760000Y-131722164D01*
G04 #@! TO.C,R34*
X157856359Y-110070000D02*
X158163641Y-110070000D01*
X157856359Y-110830000D02*
X158163641Y-110830000D01*
G04 #@! TO.C,R18*
X169775564Y-119612035D02*
X169558283Y-119829316D01*
X170312965Y-120149436D02*
X170095684Y-120366717D01*
G04 #@! TO.C,R21*
X121395000Y-100143641D02*
X121395000Y-99836359D01*
X122155000Y-100143641D02*
X122155000Y-99836359D01*
G04 #@! TO.C,L1*
X128290000Y-111885000D02*
X128290000Y-109665000D01*
X130410000Y-109665000D02*
X130410000Y-111885000D01*
G04 #@! TO.C,R4*
X151956359Y-124720000D02*
X152263641Y-124720000D01*
X151956359Y-125480000D02*
X152263641Y-125480000D01*
G04 #@! TO.C,D1*
X158500000Y-122235000D02*
X160785000Y-122235000D01*
X160785000Y-120765000D02*
X158500000Y-120765000D01*
X160785000Y-122235000D02*
X160785000Y-120765000D01*
G04 #@! TO.C,C38*
X119987164Y-102040000D02*
X120202836Y-102040000D01*
X119987164Y-102760000D02*
X120202836Y-102760000D01*
G04 #@! TO.C,C39*
X117912164Y-102040000D02*
X118127836Y-102040000D01*
X117912164Y-102760000D02*
X118127836Y-102760000D01*
G04 #@! TO.C,R20*
X149811359Y-71295000D02*
X150118641Y-71295000D01*
X149811359Y-72055000D02*
X150118641Y-72055000D01*
G04 #@! TO.C,C16*
X136140000Y-84462164D02*
X136140000Y-84677836D01*
X136860000Y-84462164D02*
X136860000Y-84677836D01*
G04 #@! TO.C,C40*
X144490000Y-83472164D02*
X144490000Y-83687836D01*
X145210000Y-83472164D02*
X145210000Y-83687836D01*
G04 #@! TO.C,C4*
X152507836Y-123640000D02*
X152292164Y-123640000D01*
X152507836Y-124360000D02*
X152292164Y-124360000D01*
G04 #@! TO.C,C35*
X152762164Y-129990000D02*
X152977836Y-129990000D01*
X152762164Y-130710000D02*
X152977836Y-130710000D01*
G04 #@! TO.C,R25*
X146636359Y-111170000D02*
X146943641Y-111170000D01*
X146636359Y-111930000D02*
X146943641Y-111930000D01*
G04 #@! TO.C,R42*
X153563641Y-99620000D02*
X153256359Y-99620000D01*
X153563641Y-100380000D02*
X153256359Y-100380000D01*
G04 #@! TO.C,R44*
X153563641Y-101820000D02*
X153256359Y-101820000D01*
X153563641Y-102580000D02*
X153256359Y-102580000D01*
G04 #@! TO.C,R29*
X147156359Y-115170000D02*
X147463641Y-115170000D01*
X147156359Y-115930000D02*
X147463641Y-115930000D01*
G04 #@! TO.C,C34*
X130233601Y-122757282D02*
X130386104Y-122604779D01*
X130742718Y-123266399D02*
X130895221Y-123113896D01*
G04 #@! TO.C,R43*
X153553641Y-100720000D02*
X153246359Y-100720000D01*
X153553641Y-101480000D02*
X153246359Y-101480000D01*
G04 #@! TO.C,C23*
X169282282Y-76683601D02*
X169129779Y-76836104D01*
X169791399Y-77192718D02*
X169638896Y-77345221D01*
G04 #@! TO.C,R2*
X154653641Y-121120000D02*
X154346359Y-121120000D01*
X154653641Y-121880000D02*
X154346359Y-121880000D01*
G04 #@! TO.C,R3*
X149735436Y-121290000D02*
X151189564Y-121290000D01*
X149735436Y-123110000D02*
X151189564Y-123110000D01*
G04 #@! TO.C,C32*
X182062836Y-97215000D02*
X181847164Y-97215000D01*
X182062836Y-97935000D02*
X181847164Y-97935000D01*
G04 #@! TO.C,JP1*
X153800000Y-122900000D02*
X156600000Y-122900000D01*
X153800000Y-124900000D02*
X153800000Y-122900000D01*
X156600000Y-122900000D02*
X156600000Y-124900000D01*
X156600000Y-124900000D02*
X153800000Y-124900000D01*
G04 #@! TO.C,C46*
X154640000Y-98507836D02*
X154640000Y-98292164D01*
X155360000Y-98507836D02*
X155360000Y-98292164D01*
D10*
G04 #@! TO.C,U11*
X148700000Y-132600000D02*
X148700000Y-129400000D01*
X151300000Y-129400000D02*
X148700000Y-129400000D01*
X151300000Y-132600000D02*
X148700000Y-132600000D01*
X151300000Y-132600000D02*
X151300000Y-129400000D01*
D15*
X148175000Y-131975000D02*
G75*
G02*
X147925000Y-131975000I-125000J0D01*
G01*
X147925000Y-131975000D02*
G75*
G02*
X148175000Y-131975000I125000J0D01*
G01*
G04 #@! TD*
%LPC*%
G04 #@! TO.C,JP1*
G36*
X153975000Y-123150000D02*
G01*
X156425000Y-123150000D01*
X156425000Y-124650000D01*
X153975000Y-124650000D01*
X153975000Y-123150000D01*
G37*
G04 #@! TD*
D17*
G04 #@! TO.C,H1*
X157653666Y-81522408D03*
G04 #@! TD*
D18*
G04 #@! TO.C,C44*
X146982500Y-84650000D03*
X148117500Y-84650000D03*
G04 #@! TD*
D19*
G04 #@! TO.C,R6*
X156190000Y-121500000D03*
X157210000Y-121500000D03*
G04 #@! TD*
D20*
G04 #@! TO.C,IC3*
X146337000Y-81987000D03*
X146337000Y-82487000D03*
X146337000Y-82987000D03*
X146337000Y-83487000D03*
D21*
X147000000Y-83650000D03*
X147500000Y-83650000D03*
X148000000Y-83650000D03*
D20*
X148662000Y-83487000D03*
X148662000Y-82987000D03*
X148662000Y-82487000D03*
X148662000Y-81987000D03*
D21*
X148000000Y-81824000D03*
X147500000Y-81824000D03*
X147000000Y-81824000D03*
G04 #@! TD*
D22*
G04 #@! TO.C,C26*
X171153822Y-75296178D03*
X170475000Y-75975000D03*
G04 #@! TD*
D23*
G04 #@! TO.C,TF1*
X151300000Y-102250000D03*
X151300000Y-101150000D03*
X151300000Y-100050000D03*
X151300000Y-98950000D03*
X151300000Y-97850000D03*
X151300000Y-96750000D03*
X151300000Y-95650000D03*
X151300000Y-94550000D03*
D24*
X150300000Y-92200000D03*
D25*
X140700000Y-92200000D03*
X140700000Y-107800000D03*
D26*
X150300000Y-106850000D03*
D23*
X151300000Y-93450000D03*
G04 #@! TD*
D27*
G04 #@! TO.C,U10*
X126877608Y-122097088D03*
X127337228Y-121637468D03*
X127796847Y-121177849D03*
X128256467Y-120718229D03*
X129281772Y-121743534D03*
X128822152Y-122203154D03*
X128362533Y-122662773D03*
X127902913Y-123122393D03*
G04 #@! TD*
D28*
G04 #@! TO.C,C29*
X180525000Y-97575000D03*
X179565000Y-97575000D03*
G04 #@! TD*
D29*
G04 #@! TO.C,C47*
X156000000Y-98860000D03*
X156000000Y-97900000D03*
G04 #@! TD*
D30*
G04 #@! TO.C,R19*
X178325000Y-99625000D03*
X178325000Y-100645000D03*
G04 #@! TD*
D31*
G04 #@! TO.C,R31*
X157420000Y-117500000D03*
X156400000Y-117500000D03*
G04 #@! TD*
D19*
G04 #@! TO.C,R26*
X146800000Y-114550000D03*
X147820000Y-114550000D03*
G04 #@! TD*
D32*
G04 #@! TO.C,U6*
X127902913Y-76877608D03*
X128362533Y-77337228D03*
X128822152Y-77796847D03*
X129281772Y-78256467D03*
X128256467Y-79281772D03*
X127796847Y-78822152D03*
X127337228Y-78362533D03*
X126877608Y-77902913D03*
G04 #@! TD*
D19*
G04 #@! TO.C,R22*
X146100000Y-110550000D03*
X147120000Y-110550000D03*
G04 #@! TD*
D33*
G04 #@! TO.C,J7*
X160800000Y-107900000D03*
X160800000Y-106650000D03*
X160800000Y-105400000D03*
X160800000Y-104150000D03*
X160800000Y-102900000D03*
X160800000Y-101650000D03*
X160800000Y-100400000D03*
X160800000Y-99150000D03*
X160800000Y-97900000D03*
X160800000Y-96650000D03*
X160800000Y-95400000D03*
X160800000Y-94150000D03*
X160800000Y-92900000D03*
D34*
X164000000Y-109750000D03*
X164000000Y-91050000D03*
G04 #@! TD*
D31*
G04 #@! TO.C,R30*
X158470000Y-116500000D03*
X157450000Y-116500000D03*
G04 #@! TD*
D35*
G04 #@! TO.C,U5*
X173122393Y-77902913D03*
X172662773Y-78362533D03*
X172203154Y-78822152D03*
X171743534Y-79281772D03*
X170718229Y-78256467D03*
X171177849Y-77796847D03*
X171637468Y-77337228D03*
X172097088Y-76877608D03*
G04 #@! TD*
D36*
G04 #@! TO.C,U9*
X150725000Y-68025000D03*
X150725000Y-68675000D03*
X150725000Y-69325000D03*
X150725000Y-69975000D03*
X149275000Y-69975000D03*
X149275000Y-69325000D03*
X149275000Y-68675000D03*
X149275000Y-68025000D03*
G04 #@! TD*
D37*
G04 #@! TO.C,C43*
X149675000Y-83475000D03*
X149675000Y-84435000D03*
G04 #@! TD*
D29*
G04 #@! TO.C,C42*
X143400000Y-85410000D03*
X143400000Y-84450000D03*
G04 #@! TD*
D19*
G04 #@! TO.C,R36*
X157460000Y-112450000D03*
X158480000Y-112450000D03*
G04 #@! TD*
D38*
G04 #@! TO.C,Q1*
X147680000Y-118050000D03*
X147680000Y-118700000D03*
X147680000Y-119350000D03*
X147680000Y-120000000D03*
D39*
X149635000Y-119025000D03*
G04 #@! TD*
D40*
G04 #@! TO.C,U8*
X181975000Y-100725000D03*
X181325000Y-100725000D03*
X180675000Y-100725000D03*
X180025000Y-100725000D03*
X180025000Y-99275000D03*
X180675000Y-99275000D03*
X181325000Y-99275000D03*
X181975000Y-99275000D03*
G04 #@! TD*
D37*
G04 #@! TO.C,C30*
X147550000Y-69290000D03*
X147550000Y-70250000D03*
G04 #@! TD*
D41*
G04 #@! TO.C,C36*
X128771178Y-124728822D03*
X129450000Y-124050000D03*
G04 #@! TD*
D37*
G04 #@! TO.C,C1*
X156400000Y-119520000D03*
X156400000Y-120480000D03*
G04 #@! TD*
D42*
G04 #@! TO.C,U7*
X172097087Y-123122393D03*
X171637467Y-122662773D03*
X171177848Y-122203154D03*
X170718228Y-121743534D03*
X171743533Y-120718229D03*
X172203153Y-121177849D03*
X172662772Y-121637468D03*
X173122392Y-122097088D03*
G04 #@! TD*
D37*
G04 #@! TO.C,C33*
X147550000Y-67350000D03*
X147550000Y-68310000D03*
G04 #@! TD*
D19*
G04 #@! TO.C,R35*
X157460000Y-113450000D03*
X158480000Y-113450000D03*
G04 #@! TD*
G04 #@! TO.C,R24*
X146790000Y-112550000D03*
X147810000Y-112550000D03*
G04 #@! TD*
D43*
G04 #@! TO.C,C24*
X126671178Y-80071178D03*
X127350000Y-80750000D03*
G04 #@! TD*
D44*
G04 #@! TO.C,Q2*
X155000000Y-120000000D03*
X155000000Y-119350000D03*
X155000000Y-118700000D03*
X155000000Y-118050000D03*
D45*
X153045000Y-119025000D03*
G04 #@! TD*
D46*
G04 #@! TO.C,C31*
X174500000Y-121050000D03*
X173821178Y-120371178D03*
G04 #@! TD*
D29*
G04 #@! TO.C,C17*
X141050000Y-84530000D03*
X141050000Y-83570000D03*
G04 #@! TD*
D47*
G04 #@! TO.C,D2*
X160087500Y-119800000D03*
X158512500Y-119800000D03*
G04 #@! TD*
D19*
G04 #@! TO.C,R28*
X146800000Y-116600000D03*
X147820000Y-116600000D03*
G04 #@! TD*
D43*
G04 #@! TO.C,C27*
X125221178Y-78671178D03*
X125900000Y-79350000D03*
G04 #@! TD*
D31*
G04 #@! TO.C,R5*
X146950000Y-125350000D03*
X145930000Y-125350000D03*
G04 #@! TD*
D17*
G04 #@! TO.C,H2*
X142346329Y-118477590D03*
G04 #@! TD*
D48*
G04 #@! TO.C,U14*
X149675000Y-109400000D03*
X149675000Y-110050000D03*
X149675000Y-110700000D03*
X149675000Y-111350000D03*
X149675000Y-112000000D03*
X149675000Y-112650000D03*
X149675000Y-113300000D03*
X149675000Y-113950000D03*
X149675000Y-114600000D03*
X149675000Y-115250000D03*
X149675000Y-115900000D03*
X149675000Y-116550000D03*
X155400000Y-116550000D03*
X155400000Y-115900000D03*
X155400000Y-115250000D03*
X155400000Y-114600000D03*
X155400000Y-113950000D03*
X155400000Y-113300000D03*
X155400000Y-112650000D03*
X155400000Y-112000000D03*
X155400000Y-111350000D03*
X155400000Y-110700000D03*
X155400000Y-110050000D03*
X155400000Y-109400000D03*
G04 #@! TD*
D37*
G04 #@! TO.C,C41*
X142350000Y-84470000D03*
X142350000Y-85430000D03*
G04 #@! TD*
D49*
G04 #@! TO.C,L2*
X140175000Y-109650001D03*
X140175000Y-111800001D03*
G04 #@! TD*
D30*
G04 #@! TO.C,R1*
X146600000Y-117700000D03*
X146600000Y-118720000D03*
G04 #@! TD*
D50*
G04 #@! TO.C,U12*
X118025000Y-99275000D03*
X118675000Y-99275000D03*
X119325000Y-99275000D03*
X119975000Y-99275000D03*
X119975000Y-100725000D03*
X119325000Y-100725000D03*
X118675000Y-100725000D03*
X118025000Y-100725000D03*
G04 #@! TD*
D31*
G04 #@! TO.C,R39*
X153900000Y-94600000D03*
X152880000Y-94600000D03*
G04 #@! TD*
D51*
G04 #@! TO.C,C2*
X156420000Y-118500000D03*
X157380000Y-118500000D03*
G04 #@! TD*
D19*
G04 #@! TO.C,R38*
X157460000Y-114450000D03*
X158480000Y-114450000D03*
G04 #@! TD*
D51*
G04 #@! TO.C,C45*
X154475000Y-108225000D03*
X155435000Y-108225000D03*
G04 #@! TD*
D19*
G04 #@! TO.C,R37*
X157450000Y-115500000D03*
X158470000Y-115500000D03*
G04 #@! TD*
D46*
G04 #@! TO.C,C28*
X173150000Y-119700000D03*
X172471178Y-119021178D03*
G04 #@! TD*
D19*
G04 #@! TO.C,R23*
X146048126Y-109182016D03*
X147068126Y-109182016D03*
G04 #@! TD*
G04 #@! TO.C,R33*
X157460000Y-111450000D03*
X158480000Y-111450000D03*
G04 #@! TD*
D31*
G04 #@! TO.C,R41*
X153910000Y-97800000D03*
X152890000Y-97800000D03*
G04 #@! TD*
D52*
G04 #@! TO.C,IC2*
X139950000Y-84550000D03*
X139950000Y-83900000D03*
X139950000Y-83250000D03*
X137850000Y-83250000D03*
X137850000Y-83900000D03*
X137850000Y-84550000D03*
D53*
X138900000Y-83900000D03*
G04 #@! TD*
D31*
G04 #@! TO.C,R40*
X153900000Y-95600000D03*
X152880000Y-95600000D03*
G04 #@! TD*
D19*
G04 #@! TO.C,R27*
X146790000Y-113550000D03*
X147810000Y-113550000D03*
G04 #@! TD*
D29*
G04 #@! TO.C,C37*
X152400000Y-132310000D03*
X152400000Y-131350000D03*
G04 #@! TD*
D19*
G04 #@! TO.C,R34*
X157500000Y-110450000D03*
X158520000Y-110450000D03*
G04 #@! TD*
D54*
G04 #@! TO.C,R18*
X170296248Y-119628752D03*
X169575000Y-120350000D03*
G04 #@! TD*
D55*
G04 #@! TO.C,R21*
X121775000Y-100500000D03*
X121775000Y-99480000D03*
G04 #@! TD*
D56*
G04 #@! TO.C,L1*
X129350000Y-111500000D03*
X129350000Y-110050000D03*
G04 #@! TD*
D19*
G04 #@! TO.C,R4*
X151600000Y-125100000D03*
X152620000Y-125100000D03*
G04 #@! TD*
D47*
G04 #@! TO.C,D1*
X160087500Y-121500000D03*
X158512500Y-121500000D03*
G04 #@! TD*
D51*
G04 #@! TO.C,C38*
X119615000Y-102400000D03*
X120575000Y-102400000D03*
G04 #@! TD*
G04 #@! TO.C,C39*
X117540000Y-102400000D03*
X118500000Y-102400000D03*
G04 #@! TD*
D19*
G04 #@! TO.C,R20*
X149455000Y-71675000D03*
X150475000Y-71675000D03*
G04 #@! TD*
D37*
G04 #@! TO.C,C16*
X136500000Y-84090000D03*
X136500000Y-85050000D03*
G04 #@! TD*
G04 #@! TO.C,C40*
X144850000Y-83100000D03*
X144850000Y-84060000D03*
G04 #@! TD*
D28*
G04 #@! TO.C,C4*
X152880000Y-124000000D03*
X151920000Y-124000000D03*
G04 #@! TD*
D51*
G04 #@! TO.C,C35*
X152390000Y-130350000D03*
X153350000Y-130350000D03*
G04 #@! TD*
D19*
G04 #@! TO.C,R25*
X146280000Y-111550000D03*
X147300000Y-111550000D03*
G04 #@! TD*
D31*
G04 #@! TO.C,R42*
X153920000Y-100000000D03*
X152900000Y-100000000D03*
G04 #@! TD*
G04 #@! TO.C,R44*
X153920000Y-102200000D03*
X152900000Y-102200000D03*
G04 #@! TD*
D19*
G04 #@! TO.C,R29*
X146800000Y-115550000D03*
X147820000Y-115550000D03*
G04 #@! TD*
D41*
G04 #@! TO.C,C34*
X130225000Y-123275000D03*
X130903822Y-122596178D03*
G04 #@! TD*
D31*
G04 #@! TO.C,R43*
X153910000Y-101100000D03*
X152890000Y-101100000D03*
G04 #@! TD*
D22*
G04 #@! TO.C,C23*
X169800000Y-76675000D03*
X169121178Y-77353822D03*
G04 #@! TD*
D31*
G04 #@! TO.C,R2*
X155010000Y-121500000D03*
X153990000Y-121500000D03*
G04 #@! TD*
D57*
G04 #@! TO.C,U13*
X142949900Y-82549900D03*
X143349950Y-82549900D03*
X143750000Y-82549900D03*
X142949900Y-82949950D03*
X143349950Y-82949950D03*
X143750000Y-82949950D03*
X142949900Y-83350000D03*
X143349950Y-83350000D03*
X143750000Y-83350000D03*
G04 #@! TD*
D58*
G04 #@! TO.C,R3*
X149000000Y-122200000D03*
X151925000Y-122200000D03*
G04 #@! TD*
D28*
G04 #@! TO.C,C32*
X182435000Y-97575000D03*
X181475000Y-97575000D03*
G04 #@! TD*
D59*
G04 #@! TO.C,JP1*
X154475000Y-123900000D03*
D60*
X155925000Y-123900000D03*
G04 #@! TD*
D29*
G04 #@! TO.C,C46*
X155000000Y-98880000D03*
X155000000Y-97920000D03*
G04 #@! TD*
D61*
G04 #@! TO.C,U11*
X149275000Y-131975000D03*
X149275000Y-131325000D03*
X149275000Y-130675000D03*
X149275000Y-130025000D03*
X150725000Y-130025000D03*
X150725000Y-130675000D03*
X150725000Y-131325000D03*
X150725000Y-131975000D03*
G04 #@! TD*
D62*
G04 #@! TO.C,J2*
X174000000Y-98730000D03*
D63*
X174000000Y-101270000D03*
G04 #@! TD*
D64*
G04 #@! TO.C,J1*
X152890000Y-128685000D03*
X147110000Y-128685000D03*
D65*
X154320000Y-132365000D03*
D66*
X154320000Y-128185000D03*
D65*
X145680000Y-132365000D03*
D66*
X145680000Y-128185000D03*
G04 #@! TD*
D62*
G04 #@! TO.C,J5*
X141500000Y-88000000D03*
D63*
X138960000Y-88000000D03*
G04 #@! TD*
D62*
G04 #@! TO.C,J4*
X150960000Y-88000000D03*
D63*
X153500000Y-88000000D03*
X156040000Y-88000000D03*
G04 #@! TD*
D62*
G04 #@! TO.C,J6*
X160910000Y-114700000D03*
D63*
X163450000Y-114700000D03*
G04 #@! TD*
%LPD*%
M02*
