M48
; DRILL file {KiCad 9.0.6-rc2} date 2025-10-27T21:23:21+0100
; FORMAT={-:-/ absolute / metric / decimal}
; #@! TF.CreationDate,2025-10-27T21:23:21+01:00
; #@! TF.GenerationSoftware,Kicad,Pcbnew,9.0.6-rc2
; #@! TF.FileFunction,Plated,1,4,PTH
FMAT,2
METRIC
; #@! TA.AperFunction,Plated,PTH,ComponentDrill
T1C0.200
; #@! TA.AperFunction,Plated,PTH,ViaDrill
T2C0.300
; #@! TA.AperFunction,Plated,PTH,ComponentDrill
T3C0.600
; #@! TA.AperFunction,Plated,PTH,ComponentDrill
T4C1.000
%
G90
G05
T1
X155.14Y-100.8
X155.14Y-102.2
X155.84Y-100.1
X155.84Y-101.5
X155.84Y-102.9
X156.54Y-100.8
X156.54Y-102.2
X157.24Y-100.1
X157.24Y-101.5
X157.24Y-102.9
X157.94Y-100.8
X157.94Y-102.2
T2
X117.525Y-103.175
X118.5Y-103.175
X119.625Y-103.175
X120.6Y-103.175
X122.75Y-99.45
X124.45Y-79.425
X125.225Y-80.05
X125.95Y-80.65
X126.725Y-81.35
X129.4Y-125.275
X129.8Y-112.6
X130.075Y-124.625
X130.25Y-109.0
X130.4Y-109.75
X130.4Y-110.8
X130.45Y-111.8
X130.875Y-123.775
X131.2Y-113.3
X131.475Y-123.15
X132.25Y-86.1
X132.85Y-83.85
X134.31Y-112.99
X135.2Y-101.7
X135.3Y-110.6
X136.4Y-83.05
X136.8Y-114.3
X137.3Y-107.0
X137.55Y-109.15
X138.1Y-115.7
X138.15Y-112.4
X138.4Y-98.2
X138.4Y-99.4
X138.4Y-100.7
X138.6Y-101.7
X138.9Y-113.05
X139.02Y-108.05
X139.1Y-114.9
X140.6Y-112.7
X140.8Y-106.3
X141.0Y-82.7
X141.8Y-105.4
X141.8Y-108.9
X141.875Y-114.225
X141.9Y-112.15
X142.35Y-112.9
X143.1Y-110.25
X143.55Y-105.4
X143.6Y-98.7
X143.6Y-99.75
X143.6Y-107.65
X143.6Y-113.5
X143.6Y-114.5
X144.2Y-111.5
X144.25Y-106.85
X144.4Y-84.9
X144.4Y-113.4
X144.5Y-110.55
X144.9Y-82.4
X144.95Y-107.8
X145.0Y-98.05
X145.0Y-99.35
X145.05Y-94.3
X145.05Y-125.5
X145.35Y-112.8
X145.55Y-113.65
X145.6Y-80.9
X145.7Y-81.7
X145.7Y-109.182
X145.7Y-115.6
X146.0Y-112.2
X146.5Y-121.0
X146.6Y-117.5
X146.6Y-124.0
X146.625Y-70.375
X146.675Y-69.29
X146.7Y-68.325
X146.75Y-67.35
X146.8Y-119.5
X147.0Y-85.4
X147.4Y-89.7
X147.5Y-124.45
X147.6Y-126.0
X147.6Y-130.7
X147.68Y-119.1
X147.81Y-113.55
X147.82Y-114.55
X147.82Y-115.55
X147.82Y-116.6
X147.9Y-108.0
X148.4Y-130.0
X148.45Y-81.15
X148.5Y-125.0
X148.8Y-97.1
X148.85Y-80.25
X148.9Y-106.8
X148.9Y-108.0
X149.025Y-85.3
X149.2Y-124.6
X149.35Y-97.8
X149.6Y-125.5
X149.65Y-117.25
X149.7Y-94.1
X149.7Y-96.2
X149.85Y-95.05
X150.1Y-122.0
X150.3Y-83.4
X150.4Y-72.4
X150.6Y-125.56
X150.85Y-116.45
X150.95Y-117.25
X151.0Y-111.1
X151.0Y-114.8
X151.1Y-110.1
X151.6Y-126.1
X151.775Y-116.025
X152.0Y-112.0
X152.0Y-112.8
X152.0Y-113.6
X152.0Y-114.45
X152.0Y-117.3
X152.5Y-110.1
X152.5Y-129.5
X152.7Y-133.1
X152.9Y-93.0
X153.2Y-122.4
X153.9Y-103.3
X153.9Y-111.9
X153.9Y-116.2
X154.1Y-115.4
X154.1Y-117.3
X154.2Y-126.1
X154.7Y-105.1
X154.8Y-95.1
X155.0Y-96.8
X155.175Y-107.25
X156.42Y-118.5
X156.64Y-108.75
X156.7Y-99.0
X157.3Y-120.0
X157.675Y-106.825
X158.15Y-107.7
X158.2Y-117.4
X158.3Y-118.3
X158.5Y-120.1
X159.0Y-96.4
X159.0Y-99.0
X159.05Y-105.45
X159.1Y-95.6
X159.1Y-97.9
X159.2Y-111.8
X159.25Y-113.85
X159.3Y-118.35
X159.4Y-103.0
X159.95Y-110.25
X160.0Y-117.85
X161.1Y-120.6
X162.3Y-94.1
X162.3Y-100.4
X162.3Y-103.55
X162.3Y-106.7
X162.4Y-93.3
X162.425Y-111.025
X162.85Y-105.2
X163.75Y-101.15
X164.0Y-103.6
X164.55Y-109.75
X165.5Y-90.05
X168.25Y-122.05
X168.525Y-76.725
X169.025Y-75.975
X169.6Y-122.4
X169.85Y-75.325
X170.6Y-74.675
X172.1Y-82.65
X172.1Y-84.75
X173.1Y-118.375
X173.8Y-119.05
X174.475Y-119.725
X175.15Y-120.375
X176.15Y-104.4
X177.05Y-102.85
X178.35Y-101.45
X179.575Y-96.6
X180.525Y-96.625
X181.5Y-96.65
X182.475Y-96.625
T4
X138.96Y-88.0
X141.5Y-88.0
X150.96Y-88.0
X153.5Y-88.0
X156.04Y-88.0
X160.91Y-114.7
X163.45Y-114.7
X174.0Y-98.73
X174.0Y-101.27
T3
G00X145.68Y-128.735
M15
G01X145.68Y-127.635
M16
G05
G00X145.68Y-132.765
M15
G01X145.68Y-131.965
M16
G05
G00X154.32Y-128.735
M15
G01X154.32Y-127.635
M16
G05
G00X154.32Y-132.765
M15
G01X154.32Y-131.965
M16
G05
M30
