G04 #@! TF.GenerationSoftware,KiCad,Pcbnew,9.0.6-rc2*
G04 #@! TF.CreationDate,2025-10-27T21:23:21+01:00*
G04 #@! TF.ProjectId,windsensor,77696e64-7365-46e7-936f-722e6b696361,v1.0*
G04 #@! TF.SameCoordinates,Original*
G04 #@! TF.FileFunction,Profile,NP*
%FSLAX46Y46*%
G04 Gerber Fmt 4.6, Leading zero omitted, Abs format (unit mm)*
G04 Created by KiCad (PCBNEW 9.0.6-rc2) date 2025-10-27 21:23:21*
%MOMM*%
%LPD*%
G01*
G04 APERTURE LIST*
G04 #@! TA.AperFunction,Profile*
%ADD10C,0.200000*%
G04 #@! TD*
G04 #@! TA.AperFunction,Profile*
%ADD11C,0.000000*%
G04 #@! TD*
G04 APERTURE END LIST*
D10*
X145500000Y-65000000D02*
X154500000Y-65000000D01*
X177930718Y-117324116D02*
G75*
G02*
X177930682Y-121566721I-2121418J-2121284D01*
G01*
X122069282Y-82675884D02*
G75*
G02*
X122069278Y-78433239I2121308J2121324D01*
G01*
X126813899Y-90648050D02*
X126992124Y-90217778D01*
X185000000Y-104500000D02*
G75*
G02*
X182000000Y-107500000I-3000000J0D01*
G01*
X126341806Y-86948407D02*
G75*
G02*
X126992079Y-90217760I-2121406J-2121293D01*
G01*
X126813899Y-90648050D02*
G75*
G02*
X124042261Y-92499994I-2771699J1148150D01*
G01*
X173186101Y-109351950D02*
G75*
G02*
X175957739Y-107500006I2771699J-1148150D01*
G01*
X157500000Y-132000000D02*
G75*
G02*
X154500000Y-135000000I-3000000J0D01*
G01*
X140217778Y-76992124D02*
G75*
G02*
X136948404Y-76341809I-1148078J2771524D01*
G01*
X140648050Y-123186101D02*
G75*
G02*
X142499994Y-125957739I-1148150J-2771699D01*
G01*
X173007876Y-90217778D02*
X173186101Y-90648050D01*
X182000000Y-107500000D02*
X175957739Y-107500000D01*
X128433243Y-127930718D02*
X122069282Y-121566757D01*
X159351950Y-76813899D02*
X159782222Y-76992124D01*
X167324116Y-127930718D02*
X163051593Y-123658194D01*
X177930718Y-82675884D02*
X173658194Y-86948407D01*
X132675884Y-127930718D02*
G75*
G02*
X128433244Y-127930718I-2121320J2121320D01*
G01*
X177930718Y-78433243D02*
G75*
G02*
X177930755Y-82675921I-2121218J-2121357D01*
G01*
X145500000Y-135000000D02*
G75*
G02*
X142500000Y-132000000I0J3000000D01*
G01*
X124042261Y-107500000D02*
G75*
G02*
X126813876Y-109351960I39J-2999900D01*
G01*
X177930718Y-121566757D02*
X171566757Y-127930718D01*
X173186101Y-109351950D02*
X173007876Y-109782222D01*
X132675884Y-72069282D02*
X136948407Y-76341806D01*
X142500000Y-68000000D02*
X142500000Y-74042261D01*
X122069282Y-117324116D02*
X126341806Y-113051593D01*
X140648050Y-123186101D02*
X140217778Y-123007876D01*
X182000000Y-92500000D02*
X175957739Y-92500000D01*
X132675884Y-127930718D02*
X136948407Y-123658194D01*
X154500000Y-135000000D02*
X145500000Y-135000000D01*
X122069282Y-121566757D02*
G75*
G02*
X122069285Y-117324119I2121328J2121317D01*
G01*
X171566757Y-127930718D02*
G75*
G02*
X167324115Y-127930719I-2121321J2121320D01*
G01*
X136948407Y-123658194D02*
G75*
G02*
X140217760Y-123007921I2121293J-2121406D01*
G01*
X118000000Y-92500000D02*
X124042261Y-92500000D01*
X157500000Y-68000000D02*
X157500000Y-74042261D01*
X142500000Y-132000000D02*
X142500000Y-125957739D01*
X128433243Y-72069282D02*
G75*
G02*
X132675885Y-72069281I2121321J-2121320D01*
G01*
X173007876Y-90217778D02*
G75*
G02*
X173658191Y-86948404I2771524J1148078D01*
G01*
X173658194Y-113051593D02*
G75*
G02*
X173007921Y-109782240I2121406J2121293D01*
G01*
X171566757Y-72069282D02*
X177930718Y-78433243D01*
X118000000Y-107500000D02*
G75*
G02*
X115000000Y-104500000I0J3000000D01*
G01*
X159351950Y-76813899D02*
G75*
G02*
X157500006Y-74042261I1148150J2771699D01*
G01*
X118000000Y-107500000D02*
X124042261Y-107500000D01*
X140648050Y-76813899D02*
X140217778Y-76992124D01*
X159782222Y-123007876D02*
X159351950Y-123186101D01*
X159782222Y-123007876D02*
G75*
G02*
X163051596Y-123658191I1148078J-2771524D01*
G01*
X115000000Y-104500000D02*
X115000000Y-95500000D01*
X185000000Y-104500000D02*
X185000000Y-95500000D01*
X177930718Y-117324116D02*
X173658194Y-113051593D01*
X126992124Y-109782222D02*
G75*
G02*
X126341809Y-113051596I-2771524J-1148078D01*
G01*
X163051593Y-76341806D02*
G75*
G02*
X159782240Y-76992079I-2121293J2121406D01*
G01*
X157500000Y-125957739D02*
G75*
G02*
X159351960Y-123186124I2999900J39D01*
G01*
X154500000Y-65000000D02*
G75*
G02*
X157500000Y-68000000I0J-3000000D01*
G01*
X175957739Y-92500000D02*
G75*
G02*
X173186124Y-90648040I-39J2999900D01*
G01*
X157500000Y-132000000D02*
X157500000Y-125957739D01*
X142500000Y-74042261D02*
G75*
G02*
X140648040Y-76813876I-2999900J-39D01*
G01*
X167324116Y-72069282D02*
G75*
G02*
X171566756Y-72069282I2121320J-2121320D01*
G01*
X115000000Y-95500000D02*
G75*
G02*
X118000000Y-92500000I3000000J0D01*
G01*
X167324116Y-72069282D02*
X163051593Y-76341806D01*
X122069282Y-82675884D02*
X126341806Y-86948407D01*
X182000000Y-92500000D02*
G75*
G02*
X185000000Y-95500000I0J-3000000D01*
G01*
X126992124Y-109782222D02*
X126813899Y-109351950D01*
X142500000Y-68000000D02*
G75*
G02*
X145500000Y-65000000I3000000J0D01*
G01*
X122069282Y-78433243D02*
X128433243Y-72069282D01*
D11*
G04 #@! TA.AperFunction,Profile*
G04 #@! TO.C,TF1*
G36*
X140491342Y-94588060D02*
G01*
X140604381Y-94653323D01*
X140696677Y-94745619D01*
X140761940Y-94858658D01*
X140795722Y-94984737D01*
X140795722Y-95115263D01*
X140761940Y-95241342D01*
X140696677Y-95354381D01*
X140604381Y-95446677D01*
X140491342Y-95511940D01*
X140365263Y-95545722D01*
X140234737Y-95545722D01*
X140108658Y-95511940D01*
X139995619Y-95446677D01*
X139903323Y-95354381D01*
X139838060Y-95241342D01*
X139804278Y-95115263D01*
X139804278Y-94984737D01*
X139838060Y-94858658D01*
X139903323Y-94745619D01*
X139995619Y-94653323D01*
X140108658Y-94588060D01*
X140234737Y-94554278D01*
X140365263Y-94554278D01*
X140491342Y-94588060D01*
G37*
G04 #@! TD.AperFunction*
G04 #@! TA.AperFunction,Profile*
G36*
X140491342Y-102588060D02*
G01*
X140604381Y-102653323D01*
X140696677Y-102745619D01*
X140761940Y-102858658D01*
X140795722Y-102984737D01*
X140795722Y-103115263D01*
X140761940Y-103241342D01*
X140696677Y-103354381D01*
X140604381Y-103446677D01*
X140491342Y-103511940D01*
X140365263Y-103545722D01*
X140234737Y-103545722D01*
X140108658Y-103511940D01*
X139995619Y-103446677D01*
X139903323Y-103354381D01*
X139838060Y-103241342D01*
X139804278Y-103115263D01*
X139804278Y-102984737D01*
X139838060Y-102858658D01*
X139903323Y-102745619D01*
X139995619Y-102653323D01*
X140108658Y-102588060D01*
X140234737Y-102554278D01*
X140365263Y-102554278D01*
X140491342Y-102588060D01*
G37*
G04 #@! TD.AperFunction*
G04 #@! TD*
M02*
