%TF.GenerationSoftware,KiCad,Pcbnew,9.0.6-rc2*%
%TF.CreationDate,2025-10-27T21:23:21+01:00*%
%TF.ProjectId,windsensor,77696e64-7365-46e7-936f-722e6b696361,v1.0*%
%TF.SameCoordinates,Original*%
%TF.FileFunction,Drillmap*%
%TF.FilePolarity,Positive*%
%FSLAX45Y45*%
G04 Gerber Fmt 4.5, Leading zero omitted, Abs format (unit mm)*
G04 Created by KiCad (PCBNEW 9.0.6-rc2) date 2025-10-27 21:23:21*
%MOMM*%
%LPD*%
G01*
G04 APERTURE LIST*
%ADD10C,0.200000*%
%ADD11C,0.000000*%
%ADD12C,0.100000*%
G04 APERTURE END LIST*
D10*
X14550000Y-6500000D02*
X15450000Y-6500000D01*
X17793072Y-11732412D02*
G75*
G02*
X17793068Y-12156672I-212142J-212128D01*
G01*
X12206928Y-8267588D02*
G75*
G02*
X12206928Y-7843324I212131J212132D01*
G01*
X12681390Y-9064805D02*
X12699212Y-9021778D01*
X18500000Y-10450000D02*
G75*
G02*
X18200000Y-10750000I-300000J0D01*
G01*
X12634181Y-8694841D02*
G75*
G02*
X12699208Y-9021776I-212141J-212129D01*
G01*
X12681390Y-9064805D02*
G75*
G02*
X12404226Y-9249999I-277170J114815D01*
G01*
X17318610Y-10935195D02*
G75*
G02*
X17595774Y-10750001I277170J-114815D01*
G01*
X15750000Y-13200000D02*
G75*
G02*
X15450000Y-13500000I-300000J0D01*
G01*
X14021778Y-7699212D02*
G75*
G02*
X13694840Y-7634181I-114808J277152D01*
G01*
X14064805Y-12318610D02*
G75*
G02*
X14249999Y-12595774I-114815J-277170D01*
G01*
X17300788Y-9021778D02*
X17318610Y-9064805D01*
X18200000Y-10750000D02*
X17595774Y-10750000D01*
X12843324Y-12793072D02*
X12206928Y-12156676D01*
X15935195Y-7681390D02*
X15978222Y-7699212D01*
X16732412Y-12793072D02*
X16305159Y-12365819D01*
X17793072Y-8267588D02*
X17365819Y-8694841D01*
X13267588Y-12793072D02*
G75*
G02*
X12843324Y-12793072I-212132J212132D01*
G01*
X17793072Y-7843324D02*
G75*
G02*
X17793076Y-8267592I-212122J-212136D01*
G01*
X14550000Y-13500000D02*
G75*
G02*
X14250000Y-13200000I0J300000D01*
G01*
X12404226Y-10750000D02*
G75*
G02*
X12681388Y-10935196I4J-299990D01*
G01*
X17793072Y-12156676D02*
X17156676Y-12793072D01*
X17318610Y-10935195D02*
X17300788Y-10978222D01*
X13267588Y-7206928D02*
X13694841Y-7634181D01*
X14250000Y-6800000D02*
X14250000Y-7404226D01*
X12206928Y-11732412D02*
X12634181Y-11305159D01*
X14064805Y-12318610D02*
X14021778Y-12300788D01*
X18200000Y-9250000D02*
X17595774Y-9250000D01*
X13267588Y-12793072D02*
X13694841Y-12365819D01*
X15450000Y-13500000D02*
X14550000Y-13500000D01*
X12206928Y-12156676D02*
G75*
G02*
X12206928Y-11732412I212133J212132D01*
G01*
X17156676Y-12793072D02*
G75*
G02*
X16732411Y-12793072I-212132J212132D01*
G01*
X13694841Y-12365819D02*
G75*
G02*
X14021776Y-12300792I212129J-212141D01*
G01*
X11800000Y-9250000D02*
X12404226Y-9250000D01*
X15750000Y-6800000D02*
X15750000Y-7404226D01*
X14250000Y-13200000D02*
X14250000Y-12595774D01*
X12843324Y-7206928D02*
G75*
G02*
X13267588Y-7206928I212132J-212132D01*
G01*
X17300788Y-9021778D02*
G75*
G02*
X17365819Y-8694840I277152J114808D01*
G01*
X17365819Y-11305159D02*
G75*
G02*
X17300792Y-10978224I212141J212129D01*
G01*
X17156676Y-7206928D02*
X17793072Y-7843324D01*
X11800000Y-10750000D02*
G75*
G02*
X11500000Y-10450000I0J300000D01*
G01*
X15935195Y-7681390D02*
G75*
G02*
X15750001Y-7404226I114815J277170D01*
G01*
X11800000Y-10750000D02*
X12404226Y-10750000D01*
X14064805Y-7681390D02*
X14021778Y-7699212D01*
X15978222Y-12300788D02*
X15935195Y-12318610D01*
X15978222Y-12300788D02*
G75*
G02*
X16305160Y-12365819I114808J-277152D01*
G01*
X11500000Y-10450000D02*
X11500000Y-9550000D01*
X18500000Y-10450000D02*
X18500000Y-9550000D01*
X17793072Y-11732412D02*
X17365819Y-11305159D01*
X12699212Y-10978222D02*
G75*
G02*
X12634181Y-11305160I-277152J-114808D01*
G01*
X16305159Y-7634181D02*
G75*
G02*
X15978224Y-7699208I-212129J212141D01*
G01*
X15750000Y-12595774D02*
G75*
G02*
X15935196Y-12318612I299990J4D01*
G01*
X15450000Y-6500000D02*
G75*
G02*
X15750000Y-6800000I0J-300000D01*
G01*
X17595774Y-9250000D02*
G75*
G02*
X17318612Y-9064804I-4J299990D01*
G01*
X15750000Y-13200000D02*
X15750000Y-12595774D01*
X14250000Y-7404226D02*
G75*
G02*
X14064804Y-7681388I-299990J-4D01*
G01*
X16732412Y-7206928D02*
G75*
G02*
X17156676Y-7206928I212132J-212132D01*
G01*
X11500000Y-9550000D02*
G75*
G02*
X11800000Y-9250000I300000J0D01*
G01*
X16732412Y-7206928D02*
X16305159Y-7634181D01*
X12206928Y-8267588D02*
X12634181Y-8694841D01*
X18200000Y-9250000D02*
G75*
G02*
X18500000Y-9550000I0J-300000D01*
G01*
X12699212Y-10978222D02*
X12681390Y-10935195D01*
X14250000Y-6800000D02*
G75*
G02*
X14550000Y-6500000I300000J0D01*
G01*
X12206928Y-7843324D02*
X12843324Y-7206928D01*
D11*
G36*
X14049134Y-9458806D02*
G01*
X14060438Y-9465332D01*
X14069668Y-9474562D01*
X14076194Y-9485866D01*
X14079572Y-9498474D01*
X14079572Y-9511526D01*
X14076194Y-9524134D01*
X14069668Y-9535438D01*
X14060438Y-9544668D01*
X14049134Y-9551194D01*
X14036526Y-9554572D01*
X14023474Y-9554572D01*
X14010866Y-9551194D01*
X13999562Y-9544668D01*
X13990332Y-9535438D01*
X13983806Y-9524134D01*
X13980428Y-9511526D01*
X13980428Y-9498474D01*
X13983806Y-9485866D01*
X13990332Y-9474562D01*
X13999562Y-9465332D01*
X14010866Y-9458806D01*
X14023474Y-9455428D01*
X14036526Y-9455428D01*
X14049134Y-9458806D01*
G37*
G36*
X14049134Y-10258806D02*
G01*
X14060438Y-10265332D01*
X14069668Y-10274562D01*
X14076194Y-10285866D01*
X14079572Y-10298474D01*
X14079572Y-10311526D01*
X14076194Y-10324134D01*
X14069668Y-10335438D01*
X14060438Y-10344668D01*
X14049134Y-10351194D01*
X14036526Y-10354572D01*
X14023474Y-10354572D01*
X14010866Y-10351194D01*
X13999562Y-10344668D01*
X13990332Y-10335438D01*
X13983806Y-10324134D01*
X13980428Y-10311526D01*
X13980428Y-10298474D01*
X13983806Y-10285866D01*
X13990332Y-10274562D01*
X13999562Y-10265332D01*
X14010866Y-10258806D01*
X14023474Y-10255428D01*
X14036526Y-10255428D01*
X14049134Y-10258806D01*
G37*
D10*
D12*
X15504000Y-10070000D02*
X15524000Y-10090000D01*
X15524000Y-10070000D02*
X15504000Y-10090000D01*
X15504000Y-10210000D02*
X15524000Y-10230000D01*
X15524000Y-10210000D02*
X15504000Y-10230000D01*
X15574000Y-10000000D02*
X15594000Y-10020000D01*
X15594000Y-10000000D02*
X15574000Y-10020000D01*
X15574000Y-10140000D02*
X15594000Y-10160000D01*
X15594000Y-10140000D02*
X15574000Y-10160000D01*
X15574000Y-10280000D02*
X15594000Y-10300000D01*
X15594000Y-10280000D02*
X15574000Y-10300000D01*
X15644000Y-10070000D02*
X15664000Y-10090000D01*
X15664000Y-10070000D02*
X15644000Y-10090000D01*
X15644000Y-10210000D02*
X15664000Y-10230000D01*
X15664000Y-10210000D02*
X15644000Y-10230000D01*
X15714000Y-10000000D02*
X15734000Y-10020000D01*
X15734000Y-10000000D02*
X15714000Y-10020000D01*
X15714000Y-10140000D02*
X15734000Y-10160000D01*
X15734000Y-10140000D02*
X15714000Y-10160000D01*
X15714000Y-10280000D02*
X15734000Y-10300000D01*
X15734000Y-10280000D02*
X15714000Y-10300000D01*
X15784000Y-10070000D02*
X15804000Y-10090000D01*
X15804000Y-10070000D02*
X15784000Y-10090000D01*
X15784000Y-10210000D02*
X15804000Y-10230000D01*
X15804000Y-10210000D02*
X15784000Y-10230000D01*
X11767500Y-10317500D02*
G75*
G02*
X11737500Y-10317500I-15000J0D01*
G01*
X11737500Y-10317500D02*
G75*
G02*
X11767500Y-10317500I15000J0D01*
G01*
X11865000Y-10317500D02*
G75*
G02*
X11835000Y-10317500I-15000J0D01*
G01*
X11835000Y-10317500D02*
G75*
G02*
X11865000Y-10317500I15000J0D01*
G01*
X11977500Y-10317500D02*
G75*
G02*
X11947500Y-10317500I-15000J0D01*
G01*
X11947500Y-10317500D02*
G75*
G02*
X11977500Y-10317500I15000J0D01*
G01*
X12075000Y-10317500D02*
G75*
G02*
X12045000Y-10317500I-15000J0D01*
G01*
X12045000Y-10317500D02*
G75*
G02*
X12075000Y-10317500I15000J0D01*
G01*
X12290000Y-9945000D02*
G75*
G02*
X12260000Y-9945000I-15000J0D01*
G01*
X12260000Y-9945000D02*
G75*
G02*
X12290000Y-9945000I15000J0D01*
G01*
X12460000Y-7942500D02*
G75*
G02*
X12430000Y-7942500I-15000J0D01*
G01*
X12430000Y-7942500D02*
G75*
G02*
X12460000Y-7942500I15000J0D01*
G01*
X12537500Y-8005000D02*
G75*
G02*
X12507500Y-8005000I-15000J0D01*
G01*
X12507500Y-8005000D02*
G75*
G02*
X12537500Y-8005000I15000J0D01*
G01*
X12610000Y-8065000D02*
G75*
G02*
X12580000Y-8065000I-15000J0D01*
G01*
X12580000Y-8065000D02*
G75*
G02*
X12610000Y-8065000I15000J0D01*
G01*
X12687500Y-8135000D02*
G75*
G02*
X12657500Y-8135000I-15000J0D01*
G01*
X12657500Y-8135000D02*
G75*
G02*
X12687500Y-8135000I15000J0D01*
G01*
X12955000Y-12527500D02*
G75*
G02*
X12925000Y-12527500I-15000J0D01*
G01*
X12925000Y-12527500D02*
G75*
G02*
X12955000Y-12527500I15000J0D01*
G01*
X12995000Y-11260000D02*
G75*
G02*
X12965000Y-11260000I-15000J0D01*
G01*
X12965000Y-11260000D02*
G75*
G02*
X12995000Y-11260000I15000J0D01*
G01*
X13022500Y-12462500D02*
G75*
G02*
X12992500Y-12462500I-15000J0D01*
G01*
X12992500Y-12462500D02*
G75*
G02*
X13022500Y-12462500I15000J0D01*
G01*
X13040000Y-10900000D02*
G75*
G02*
X13010000Y-10900000I-15000J0D01*
G01*
X13010000Y-10900000D02*
G75*
G02*
X13040000Y-10900000I15000J0D01*
G01*
X13055000Y-10975000D02*
G75*
G02*
X13025000Y-10975000I-15000J0D01*
G01*
X13025000Y-10975000D02*
G75*
G02*
X13055000Y-10975000I15000J0D01*
G01*
X13055000Y-11080000D02*
G75*
G02*
X13025000Y-11080000I-15000J0D01*
G01*
X13025000Y-11080000D02*
G75*
G02*
X13055000Y-11080000I15000J0D01*
G01*
X13060000Y-11180000D02*
G75*
G02*
X13030000Y-11180000I-15000J0D01*
G01*
X13030000Y-11180000D02*
G75*
G02*
X13060000Y-11180000I15000J0D01*
G01*
X13102500Y-12377500D02*
G75*
G02*
X13072500Y-12377500I-15000J0D01*
G01*
X13072500Y-12377500D02*
G75*
G02*
X13102500Y-12377500I15000J0D01*
G01*
X13135000Y-11330000D02*
G75*
G02*
X13105000Y-11330000I-15000J0D01*
G01*
X13105000Y-11330000D02*
G75*
G02*
X13135000Y-11330000I15000J0D01*
G01*
X13162500Y-12315000D02*
G75*
G02*
X13132500Y-12315000I-15000J0D01*
G01*
X13132500Y-12315000D02*
G75*
G02*
X13162500Y-12315000I15000J0D01*
G01*
X13240000Y-8610000D02*
G75*
G02*
X13210000Y-8610000I-15000J0D01*
G01*
X13210000Y-8610000D02*
G75*
G02*
X13240000Y-8610000I15000J0D01*
G01*
X13300000Y-8385000D02*
G75*
G02*
X13270000Y-8385000I-15000J0D01*
G01*
X13270000Y-8385000D02*
G75*
G02*
X13300000Y-8385000I15000J0D01*
G01*
X13446000Y-11299000D02*
G75*
G02*
X13416000Y-11299000I-15000J0D01*
G01*
X13416000Y-11299000D02*
G75*
G02*
X13446000Y-11299000I15000J0D01*
G01*
X13535000Y-10170000D02*
G75*
G02*
X13505000Y-10170000I-15000J0D01*
G01*
X13505000Y-10170000D02*
G75*
G02*
X13535000Y-10170000I15000J0D01*
G01*
X13545000Y-11060000D02*
G75*
G02*
X13515000Y-11060000I-15000J0D01*
G01*
X13515000Y-11060000D02*
G75*
G02*
X13545000Y-11060000I15000J0D01*
G01*
X13655000Y-8305000D02*
G75*
G02*
X13625000Y-8305000I-15000J0D01*
G01*
X13625000Y-8305000D02*
G75*
G02*
X13655000Y-8305000I15000J0D01*
G01*
X13695000Y-11430000D02*
G75*
G02*
X13665000Y-11430000I-15000J0D01*
G01*
X13665000Y-11430000D02*
G75*
G02*
X13695000Y-11430000I15000J0D01*
G01*
X13745000Y-10700000D02*
G75*
G02*
X13715000Y-10700000I-15000J0D01*
G01*
X13715000Y-10700000D02*
G75*
G02*
X13745000Y-10700000I15000J0D01*
G01*
X13770000Y-10915000D02*
G75*
G02*
X13740000Y-10915000I-15000J0D01*
G01*
X13740000Y-10915000D02*
G75*
G02*
X13770000Y-10915000I15000J0D01*
G01*
X13825000Y-11570000D02*
G75*
G02*
X13795000Y-11570000I-15000J0D01*
G01*
X13795000Y-11570000D02*
G75*
G02*
X13825000Y-11570000I15000J0D01*
G01*
X13830000Y-11240000D02*
G75*
G02*
X13800000Y-11240000I-15000J0D01*
G01*
X13800000Y-11240000D02*
G75*
G02*
X13830000Y-11240000I15000J0D01*
G01*
X13855000Y-9820000D02*
G75*
G02*
X13825000Y-9820000I-15000J0D01*
G01*
X13825000Y-9820000D02*
G75*
G02*
X13855000Y-9820000I15000J0D01*
G01*
X13855000Y-9940000D02*
G75*
G02*
X13825000Y-9940000I-15000J0D01*
G01*
X13825000Y-9940000D02*
G75*
G02*
X13855000Y-9940000I15000J0D01*
G01*
X13855000Y-10070000D02*
G75*
G02*
X13825000Y-10070000I-15000J0D01*
G01*
X13825000Y-10070000D02*
G75*
G02*
X13855000Y-10070000I15000J0D01*
G01*
X13875000Y-10170000D02*
G75*
G02*
X13845000Y-10170000I-15000J0D01*
G01*
X13845000Y-10170000D02*
G75*
G02*
X13875000Y-10170000I15000J0D01*
G01*
X13905000Y-11305000D02*
G75*
G02*
X13875000Y-11305000I-15000J0D01*
G01*
X13875000Y-11305000D02*
G75*
G02*
X13905000Y-11305000I15000J0D01*
G01*
X13917000Y-10805000D02*
G75*
G02*
X13887000Y-10805000I-15000J0D01*
G01*
X13887000Y-10805000D02*
G75*
G02*
X13917000Y-10805000I15000J0D01*
G01*
X13925000Y-11490000D02*
G75*
G02*
X13895000Y-11490000I-15000J0D01*
G01*
X13895000Y-11490000D02*
G75*
G02*
X13925000Y-11490000I15000J0D01*
G01*
X14075000Y-11270000D02*
G75*
G02*
X14045000Y-11270000I-15000J0D01*
G01*
X14045000Y-11270000D02*
G75*
G02*
X14075000Y-11270000I15000J0D01*
G01*
X14095000Y-10630000D02*
G75*
G02*
X14065000Y-10630000I-15000J0D01*
G01*
X14065000Y-10630000D02*
G75*
G02*
X14095000Y-10630000I15000J0D01*
G01*
X14115000Y-8270000D02*
G75*
G02*
X14085000Y-8270000I-15000J0D01*
G01*
X14085000Y-8270000D02*
G75*
G02*
X14115000Y-8270000I15000J0D01*
G01*
X14195000Y-10540000D02*
G75*
G02*
X14165000Y-10540000I-15000J0D01*
G01*
X14165000Y-10540000D02*
G75*
G02*
X14195000Y-10540000I15000J0D01*
G01*
X14195000Y-10890000D02*
G75*
G02*
X14165000Y-10890000I-15000J0D01*
G01*
X14165000Y-10890000D02*
G75*
G02*
X14195000Y-10890000I15000J0D01*
G01*
X14202500Y-11422500D02*
G75*
G02*
X14172500Y-11422500I-15000J0D01*
G01*
X14172500Y-11422500D02*
G75*
G02*
X14202500Y-11422500I15000J0D01*
G01*
X14205000Y-11215000D02*
G75*
G02*
X14175000Y-11215000I-15000J0D01*
G01*
X14175000Y-11215000D02*
G75*
G02*
X14205000Y-11215000I15000J0D01*
G01*
X14250000Y-11290000D02*
G75*
G02*
X14220000Y-11290000I-15000J0D01*
G01*
X14220000Y-11290000D02*
G75*
G02*
X14250000Y-11290000I15000J0D01*
G01*
X14325000Y-11025000D02*
G75*
G02*
X14295000Y-11025000I-15000J0D01*
G01*
X14295000Y-11025000D02*
G75*
G02*
X14325000Y-11025000I15000J0D01*
G01*
X14370000Y-10540000D02*
G75*
G02*
X14340000Y-10540000I-15000J0D01*
G01*
X14340000Y-10540000D02*
G75*
G02*
X14370000Y-10540000I15000J0D01*
G01*
X14375000Y-9870000D02*
G75*
G02*
X14345000Y-9870000I-15000J0D01*
G01*
X14345000Y-9870000D02*
G75*
G02*
X14375000Y-9870000I15000J0D01*
G01*
X14375000Y-9975000D02*
G75*
G02*
X14345000Y-9975000I-15000J0D01*
G01*
X14345000Y-9975000D02*
G75*
G02*
X14375000Y-9975000I15000J0D01*
G01*
X14375000Y-10765000D02*
G75*
G02*
X14345000Y-10765000I-15000J0D01*
G01*
X14345000Y-10765000D02*
G75*
G02*
X14375000Y-10765000I15000J0D01*
G01*
X14375000Y-11350000D02*
G75*
G02*
X14345000Y-11350000I-15000J0D01*
G01*
X14345000Y-11350000D02*
G75*
G02*
X14375000Y-11350000I15000J0D01*
G01*
X14375000Y-11450000D02*
G75*
G02*
X14345000Y-11450000I-15000J0D01*
G01*
X14345000Y-11450000D02*
G75*
G02*
X14375000Y-11450000I15000J0D01*
G01*
X14435000Y-11150000D02*
G75*
G02*
X14405000Y-11150000I-15000J0D01*
G01*
X14405000Y-11150000D02*
G75*
G02*
X14435000Y-11150000I15000J0D01*
G01*
X14440000Y-10685000D02*
G75*
G02*
X14410000Y-10685000I-15000J0D01*
G01*
X14410000Y-10685000D02*
G75*
G02*
X14440000Y-10685000I15000J0D01*
G01*
X14455000Y-8490000D02*
G75*
G02*
X14425000Y-8490000I-15000J0D01*
G01*
X14425000Y-8490000D02*
G75*
G02*
X14455000Y-8490000I15000J0D01*
G01*
X14455000Y-11340000D02*
G75*
G02*
X14425000Y-11340000I-15000J0D01*
G01*
X14425000Y-11340000D02*
G75*
G02*
X14455000Y-11340000I15000J0D01*
G01*
X14465000Y-11055000D02*
G75*
G02*
X14435000Y-11055000I-15000J0D01*
G01*
X14435000Y-11055000D02*
G75*
G02*
X14465000Y-11055000I15000J0D01*
G01*
X14505000Y-8240000D02*
G75*
G02*
X14475000Y-8240000I-15000J0D01*
G01*
X14475000Y-8240000D02*
G75*
G02*
X14505000Y-8240000I15000J0D01*
G01*
X14510000Y-10780000D02*
G75*
G02*
X14480000Y-10780000I-15000J0D01*
G01*
X14480000Y-10780000D02*
G75*
G02*
X14510000Y-10780000I15000J0D01*
G01*
X14515000Y-9805000D02*
G75*
G02*
X14485000Y-9805000I-15000J0D01*
G01*
X14485000Y-9805000D02*
G75*
G02*
X14515000Y-9805000I15000J0D01*
G01*
X14515000Y-9935000D02*
G75*
G02*
X14485000Y-9935000I-15000J0D01*
G01*
X14485000Y-9935000D02*
G75*
G02*
X14515000Y-9935000I15000J0D01*
G01*
X14520000Y-9430000D02*
G75*
G02*
X14490000Y-9430000I-15000J0D01*
G01*
X14490000Y-9430000D02*
G75*
G02*
X14520000Y-9430000I15000J0D01*
G01*
X14520000Y-12550000D02*
G75*
G02*
X14490000Y-12550000I-15000J0D01*
G01*
X14490000Y-12550000D02*
G75*
G02*
X14520000Y-12550000I15000J0D01*
G01*
X14550000Y-11280000D02*
G75*
G02*
X14520000Y-11280000I-15000J0D01*
G01*
X14520000Y-11280000D02*
G75*
G02*
X14550000Y-11280000I15000J0D01*
G01*
X14570000Y-11365000D02*
G75*
G02*
X14540000Y-11365000I-15000J0D01*
G01*
X14540000Y-11365000D02*
G75*
G02*
X14570000Y-11365000I15000J0D01*
G01*
X14575000Y-8090000D02*
G75*
G02*
X14545000Y-8090000I-15000J0D01*
G01*
X14545000Y-8090000D02*
G75*
G02*
X14575000Y-8090000I15000J0D01*
G01*
X14585000Y-8170000D02*
G75*
G02*
X14555000Y-8170000I-15000J0D01*
G01*
X14555000Y-8170000D02*
G75*
G02*
X14585000Y-8170000I15000J0D01*
G01*
X14585000Y-10918202D02*
G75*
G02*
X14555000Y-10918202I-15000J0D01*
G01*
X14555000Y-10918202D02*
G75*
G02*
X14585000Y-10918202I15000J0D01*
G01*
X14585000Y-11560000D02*
G75*
G02*
X14555000Y-11560000I-15000J0D01*
G01*
X14555000Y-11560000D02*
G75*
G02*
X14585000Y-11560000I15000J0D01*
G01*
X14615000Y-11220000D02*
G75*
G02*
X14585000Y-11220000I-15000J0D01*
G01*
X14585000Y-11220000D02*
G75*
G02*
X14615000Y-11220000I15000J0D01*
G01*
X14665000Y-12100000D02*
G75*
G02*
X14635000Y-12100000I-15000J0D01*
G01*
X14635000Y-12100000D02*
G75*
G02*
X14665000Y-12100000I15000J0D01*
G01*
X14675000Y-11750000D02*
G75*
G02*
X14645000Y-11750000I-15000J0D01*
G01*
X14645000Y-11750000D02*
G75*
G02*
X14675000Y-11750000I15000J0D01*
G01*
X14675000Y-12400000D02*
G75*
G02*
X14645000Y-12400000I-15000J0D01*
G01*
X14645000Y-12400000D02*
G75*
G02*
X14675000Y-12400000I15000J0D01*
G01*
X14677500Y-7037500D02*
G75*
G02*
X14647500Y-7037500I-15000J0D01*
G01*
X14647500Y-7037500D02*
G75*
G02*
X14677500Y-7037500I15000J0D01*
G01*
X14682500Y-6929000D02*
G75*
G02*
X14652500Y-6929000I-15000J0D01*
G01*
X14652500Y-6929000D02*
G75*
G02*
X14682500Y-6929000I15000J0D01*
G01*
X14685000Y-6832500D02*
G75*
G02*
X14655000Y-6832500I-15000J0D01*
G01*
X14655000Y-6832500D02*
G75*
G02*
X14685000Y-6832500I15000J0D01*
G01*
X14690000Y-6735000D02*
G75*
G02*
X14660000Y-6735000I-15000J0D01*
G01*
X14660000Y-6735000D02*
G75*
G02*
X14690000Y-6735000I15000J0D01*
G01*
X14695000Y-11950000D02*
G75*
G02*
X14665000Y-11950000I-15000J0D01*
G01*
X14665000Y-11950000D02*
G75*
G02*
X14695000Y-11950000I15000J0D01*
G01*
X14715000Y-8540000D02*
G75*
G02*
X14685000Y-8540000I-15000J0D01*
G01*
X14685000Y-8540000D02*
G75*
G02*
X14715000Y-8540000I15000J0D01*
G01*
X14755000Y-8970000D02*
G75*
G02*
X14725000Y-8970000I-15000J0D01*
G01*
X14725000Y-8970000D02*
G75*
G02*
X14755000Y-8970000I15000J0D01*
G01*
X14765000Y-12445000D02*
G75*
G02*
X14735000Y-12445000I-15000J0D01*
G01*
X14735000Y-12445000D02*
G75*
G02*
X14765000Y-12445000I15000J0D01*
G01*
X14775000Y-12600000D02*
G75*
G02*
X14745000Y-12600000I-15000J0D01*
G01*
X14745000Y-12600000D02*
G75*
G02*
X14775000Y-12600000I15000J0D01*
G01*
X14775000Y-13070000D02*
G75*
G02*
X14745000Y-13070000I-15000J0D01*
G01*
X14745000Y-13070000D02*
G75*
G02*
X14775000Y-13070000I15000J0D01*
G01*
X14783000Y-11910000D02*
G75*
G02*
X14753000Y-11910000I-15000J0D01*
G01*
X14753000Y-11910000D02*
G75*
G02*
X14783000Y-11910000I15000J0D01*
G01*
X14796000Y-11355000D02*
G75*
G02*
X14766000Y-11355000I-15000J0D01*
G01*
X14766000Y-11355000D02*
G75*
G02*
X14796000Y-11355000I15000J0D01*
G01*
X14797000Y-11455000D02*
G75*
G02*
X14767000Y-11455000I-15000J0D01*
G01*
X14767000Y-11455000D02*
G75*
G02*
X14797000Y-11455000I15000J0D01*
G01*
X14797000Y-11555000D02*
G75*
G02*
X14767000Y-11555000I-15000J0D01*
G01*
X14767000Y-11555000D02*
G75*
G02*
X14797000Y-11555000I15000J0D01*
G01*
X14797000Y-11660000D02*
G75*
G02*
X14767000Y-11660000I-15000J0D01*
G01*
X14767000Y-11660000D02*
G75*
G02*
X14797000Y-11660000I15000J0D01*
G01*
X14805000Y-10800000D02*
G75*
G02*
X14775000Y-10800000I-15000J0D01*
G01*
X14775000Y-10800000D02*
G75*
G02*
X14805000Y-10800000I15000J0D01*
G01*
X14855000Y-13000000D02*
G75*
G02*
X14825000Y-13000000I-15000J0D01*
G01*
X14825000Y-13000000D02*
G75*
G02*
X14855000Y-13000000I15000J0D01*
G01*
X14860000Y-8115000D02*
G75*
G02*
X14830000Y-8115000I-15000J0D01*
G01*
X14830000Y-8115000D02*
G75*
G02*
X14860000Y-8115000I15000J0D01*
G01*
X14865000Y-12500000D02*
G75*
G02*
X14835000Y-12500000I-15000J0D01*
G01*
X14835000Y-12500000D02*
G75*
G02*
X14865000Y-12500000I15000J0D01*
G01*
X14895000Y-9710000D02*
G75*
G02*
X14865000Y-9710000I-15000J0D01*
G01*
X14865000Y-9710000D02*
G75*
G02*
X14895000Y-9710000I15000J0D01*
G01*
X14900000Y-8025000D02*
G75*
G02*
X14870000Y-8025000I-15000J0D01*
G01*
X14870000Y-8025000D02*
G75*
G02*
X14900000Y-8025000I15000J0D01*
G01*
X14905000Y-10680000D02*
G75*
G02*
X14875000Y-10680000I-15000J0D01*
G01*
X14875000Y-10680000D02*
G75*
G02*
X14905000Y-10680000I15000J0D01*
G01*
X14905000Y-10800000D02*
G75*
G02*
X14875000Y-10800000I-15000J0D01*
G01*
X14875000Y-10800000D02*
G75*
G02*
X14905000Y-10800000I15000J0D01*
G01*
X14917500Y-8530000D02*
G75*
G02*
X14887500Y-8530000I-15000J0D01*
G01*
X14887500Y-8530000D02*
G75*
G02*
X14917500Y-8530000I15000J0D01*
G01*
X14935000Y-12460000D02*
G75*
G02*
X14905000Y-12460000I-15000J0D01*
G01*
X14905000Y-12460000D02*
G75*
G02*
X14935000Y-12460000I15000J0D01*
G01*
X14950000Y-9780000D02*
G75*
G02*
X14920000Y-9780000I-15000J0D01*
G01*
X14920000Y-9780000D02*
G75*
G02*
X14950000Y-9780000I15000J0D01*
G01*
X14975000Y-12550000D02*
G75*
G02*
X14945000Y-12550000I-15000J0D01*
G01*
X14945000Y-12550000D02*
G75*
G02*
X14975000Y-12550000I15000J0D01*
G01*
X14980000Y-11725000D02*
G75*
G02*
X14950000Y-11725000I-15000J0D01*
G01*
X14950000Y-11725000D02*
G75*
G02*
X14980000Y-11725000I15000J0D01*
G01*
X14985000Y-9410000D02*
G75*
G02*
X14955000Y-9410000I-15000J0D01*
G01*
X14955000Y-9410000D02*
G75*
G02*
X14985000Y-9410000I15000J0D01*
G01*
X14985000Y-9620000D02*
G75*
G02*
X14955000Y-9620000I-15000J0D01*
G01*
X14955000Y-9620000D02*
G75*
G02*
X14985000Y-9620000I15000J0D01*
G01*
X15000000Y-9505000D02*
G75*
G02*
X14970000Y-9505000I-15000J0D01*
G01*
X14970000Y-9505000D02*
G75*
G02*
X15000000Y-9505000I15000J0D01*
G01*
X15025000Y-12200000D02*
G75*
G02*
X14995000Y-12200000I-15000J0D01*
G01*
X14995000Y-12200000D02*
G75*
G02*
X15025000Y-12200000I15000J0D01*
G01*
X15045000Y-8340000D02*
G75*
G02*
X15015000Y-8340000I-15000J0D01*
G01*
X15015000Y-8340000D02*
G75*
G02*
X15045000Y-8340000I15000J0D01*
G01*
X15055000Y-7240000D02*
G75*
G02*
X15025000Y-7240000I-15000J0D01*
G01*
X15025000Y-7240000D02*
G75*
G02*
X15055000Y-7240000I15000J0D01*
G01*
X15075000Y-12556000D02*
G75*
G02*
X15045000Y-12556000I-15000J0D01*
G01*
X15045000Y-12556000D02*
G75*
G02*
X15075000Y-12556000I15000J0D01*
G01*
X15100000Y-11645000D02*
G75*
G02*
X15070000Y-11645000I-15000J0D01*
G01*
X15070000Y-11645000D02*
G75*
G02*
X15100000Y-11645000I15000J0D01*
G01*
X15110000Y-11725000D02*
G75*
G02*
X15080000Y-11725000I-15000J0D01*
G01*
X15080000Y-11725000D02*
G75*
G02*
X15110000Y-11725000I15000J0D01*
G01*
X15115000Y-11110000D02*
G75*
G02*
X15085000Y-11110000I-15000J0D01*
G01*
X15085000Y-11110000D02*
G75*
G02*
X15115000Y-11110000I15000J0D01*
G01*
X15115000Y-11480000D02*
G75*
G02*
X15085000Y-11480000I-15000J0D01*
G01*
X15085000Y-11480000D02*
G75*
G02*
X15115000Y-11480000I15000J0D01*
G01*
X15125000Y-11010000D02*
G75*
G02*
X15095000Y-11010000I-15000J0D01*
G01*
X15095000Y-11010000D02*
G75*
G02*
X15125000Y-11010000I15000J0D01*
G01*
X15175000Y-12610000D02*
G75*
G02*
X15145000Y-12610000I-15000J0D01*
G01*
X15145000Y-12610000D02*
G75*
G02*
X15175000Y-12610000I15000J0D01*
G01*
X15192500Y-11602500D02*
G75*
G02*
X15162500Y-11602500I-15000J0D01*
G01*
X15162500Y-11602500D02*
G75*
G02*
X15192500Y-11602500I15000J0D01*
G01*
X15215000Y-11200000D02*
G75*
G02*
X15185000Y-11200000I-15000J0D01*
G01*
X15185000Y-11200000D02*
G75*
G02*
X15215000Y-11200000I15000J0D01*
G01*
X15215000Y-11280000D02*
G75*
G02*
X15185000Y-11280000I-15000J0D01*
G01*
X15185000Y-11280000D02*
G75*
G02*
X15215000Y-11280000I15000J0D01*
G01*
X15215000Y-11360000D02*
G75*
G02*
X15185000Y-11360000I-15000J0D01*
G01*
X15185000Y-11360000D02*
G75*
G02*
X15215000Y-11360000I15000J0D01*
G01*
X15215000Y-11445000D02*
G75*
G02*
X15185000Y-11445000I-15000J0D01*
G01*
X15185000Y-11445000D02*
G75*
G02*
X15215000Y-11445000I15000J0D01*
G01*
X15215000Y-11730000D02*
G75*
G02*
X15185000Y-11730000I-15000J0D01*
G01*
X15185000Y-11730000D02*
G75*
G02*
X15215000Y-11730000I15000J0D01*
G01*
X15265000Y-11010000D02*
G75*
G02*
X15235000Y-11010000I-15000J0D01*
G01*
X15235000Y-11010000D02*
G75*
G02*
X15265000Y-11010000I15000J0D01*
G01*
X15265000Y-12950000D02*
G75*
G02*
X15235000Y-12950000I-15000J0D01*
G01*
X15235000Y-12950000D02*
G75*
G02*
X15265000Y-12950000I15000J0D01*
G01*
X15285000Y-13310000D02*
G75*
G02*
X15255000Y-13310000I-15000J0D01*
G01*
X15255000Y-13310000D02*
G75*
G02*
X15285000Y-13310000I15000J0D01*
G01*
X15305000Y-9300000D02*
G75*
G02*
X15275000Y-9300000I-15000J0D01*
G01*
X15275000Y-9300000D02*
G75*
G02*
X15305000Y-9300000I15000J0D01*
G01*
X15335000Y-12240000D02*
G75*
G02*
X15305000Y-12240000I-15000J0D01*
G01*
X15305000Y-12240000D02*
G75*
G02*
X15335000Y-12240000I15000J0D01*
G01*
X15405000Y-10330000D02*
G75*
G02*
X15375000Y-10330000I-15000J0D01*
G01*
X15375000Y-10330000D02*
G75*
G02*
X15405000Y-10330000I15000J0D01*
G01*
X15405000Y-11190000D02*
G75*
G02*
X15375000Y-11190000I-15000J0D01*
G01*
X15375000Y-11190000D02*
G75*
G02*
X15405000Y-11190000I15000J0D01*
G01*
X15405000Y-11620000D02*
G75*
G02*
X15375000Y-11620000I-15000J0D01*
G01*
X15375000Y-11620000D02*
G75*
G02*
X15405000Y-11620000I15000J0D01*
G01*
X15425000Y-11540000D02*
G75*
G02*
X15395000Y-11540000I-15000J0D01*
G01*
X15395000Y-11540000D02*
G75*
G02*
X15425000Y-11540000I15000J0D01*
G01*
X15425000Y-11730000D02*
G75*
G02*
X15395000Y-11730000I-15000J0D01*
G01*
X15395000Y-11730000D02*
G75*
G02*
X15425000Y-11730000I15000J0D01*
G01*
X15435000Y-12610000D02*
G75*
G02*
X15405000Y-12610000I-15000J0D01*
G01*
X15405000Y-12610000D02*
G75*
G02*
X15435000Y-12610000I15000J0D01*
G01*
X15485000Y-10510000D02*
G75*
G02*
X15455000Y-10510000I-15000J0D01*
G01*
X15455000Y-10510000D02*
G75*
G02*
X15485000Y-10510000I15000J0D01*
G01*
X15495000Y-9510000D02*
G75*
G02*
X15465000Y-9510000I-15000J0D01*
G01*
X15465000Y-9510000D02*
G75*
G02*
X15495000Y-9510000I15000J0D01*
G01*
X15515000Y-9680000D02*
G75*
G02*
X15485000Y-9680000I-15000J0D01*
G01*
X15485000Y-9680000D02*
G75*
G02*
X15515000Y-9680000I15000J0D01*
G01*
X15532500Y-10725000D02*
G75*
G02*
X15502500Y-10725000I-15000J0D01*
G01*
X15502500Y-10725000D02*
G75*
G02*
X15532500Y-10725000I15000J0D01*
G01*
X15657000Y-11850000D02*
G75*
G02*
X15627000Y-11850000I-15000J0D01*
G01*
X15627000Y-11850000D02*
G75*
G02*
X15657000Y-11850000I15000J0D01*
G01*
X15679000Y-10875000D02*
G75*
G02*
X15649000Y-10875000I-15000J0D01*
G01*
X15649000Y-10875000D02*
G75*
G02*
X15679000Y-10875000I15000J0D01*
G01*
X15685000Y-9900000D02*
G75*
G02*
X15655000Y-9900000I-15000J0D01*
G01*
X15655000Y-9900000D02*
G75*
G02*
X15685000Y-9900000I15000J0D01*
G01*
X15745000Y-12000000D02*
G75*
G02*
X15715000Y-12000000I-15000J0D01*
G01*
X15715000Y-12000000D02*
G75*
G02*
X15745000Y-12000000I15000J0D01*
G01*
X15782500Y-10682500D02*
G75*
G02*
X15752500Y-10682500I-15000J0D01*
G01*
X15752500Y-10682500D02*
G75*
G02*
X15782500Y-10682500I15000J0D01*
G01*
X15830000Y-10770000D02*
G75*
G02*
X15800000Y-10770000I-15000J0D01*
G01*
X15800000Y-10770000D02*
G75*
G02*
X15830000Y-10770000I15000J0D01*
G01*
X15835000Y-11740000D02*
G75*
G02*
X15805000Y-11740000I-15000J0D01*
G01*
X15805000Y-11740000D02*
G75*
G02*
X15835000Y-11740000I15000J0D01*
G01*
X15845000Y-11830000D02*
G75*
G02*
X15815000Y-11830000I-15000J0D01*
G01*
X15815000Y-11830000D02*
G75*
G02*
X15845000Y-11830000I15000J0D01*
G01*
X15865000Y-12010000D02*
G75*
G02*
X15835000Y-12010000I-15000J0D01*
G01*
X15835000Y-12010000D02*
G75*
G02*
X15865000Y-12010000I15000J0D01*
G01*
X15915000Y-9640000D02*
G75*
G02*
X15885000Y-9640000I-15000J0D01*
G01*
X15885000Y-9640000D02*
G75*
G02*
X15915000Y-9640000I15000J0D01*
G01*
X15915000Y-9900000D02*
G75*
G02*
X15885000Y-9900000I-15000J0D01*
G01*
X15885000Y-9900000D02*
G75*
G02*
X15915000Y-9900000I15000J0D01*
G01*
X15920000Y-10545000D02*
G75*
G02*
X15890000Y-10545000I-15000J0D01*
G01*
X15890000Y-10545000D02*
G75*
G02*
X15920000Y-10545000I15000J0D01*
G01*
X15925000Y-9560000D02*
G75*
G02*
X15895000Y-9560000I-15000J0D01*
G01*
X15895000Y-9560000D02*
G75*
G02*
X15925000Y-9560000I15000J0D01*
G01*
X15925000Y-9790000D02*
G75*
G02*
X15895000Y-9790000I-15000J0D01*
G01*
X15895000Y-9790000D02*
G75*
G02*
X15925000Y-9790000I15000J0D01*
G01*
X15935000Y-11180000D02*
G75*
G02*
X15905000Y-11180000I-15000J0D01*
G01*
X15905000Y-11180000D02*
G75*
G02*
X15935000Y-11180000I15000J0D01*
G01*
X15940000Y-11385000D02*
G75*
G02*
X15910000Y-11385000I-15000J0D01*
G01*
X15910000Y-11385000D02*
G75*
G02*
X15940000Y-11385000I15000J0D01*
G01*
X15945000Y-11835000D02*
G75*
G02*
X15915000Y-11835000I-15000J0D01*
G01*
X15915000Y-11835000D02*
G75*
G02*
X15945000Y-11835000I15000J0D01*
G01*
X15955000Y-10300000D02*
G75*
G02*
X15925000Y-10300000I-15000J0D01*
G01*
X15925000Y-10300000D02*
G75*
G02*
X15955000Y-10300000I15000J0D01*
G01*
X16010000Y-11025000D02*
G75*
G02*
X15980000Y-11025000I-15000J0D01*
G01*
X15980000Y-11025000D02*
G75*
G02*
X16010000Y-11025000I15000J0D01*
G01*
X16015000Y-11785000D02*
G75*
G02*
X15985000Y-11785000I-15000J0D01*
G01*
X15985000Y-11785000D02*
G75*
G02*
X16015000Y-11785000I15000J0D01*
G01*
X16125000Y-12060000D02*
G75*
G02*
X16095000Y-12060000I-15000J0D01*
G01*
X16095000Y-12060000D02*
G75*
G02*
X16125000Y-12060000I15000J0D01*
G01*
X16245000Y-9410000D02*
G75*
G02*
X16215000Y-9410000I-15000J0D01*
G01*
X16215000Y-9410000D02*
G75*
G02*
X16245000Y-9410000I15000J0D01*
G01*
X16245000Y-10040000D02*
G75*
G02*
X16215000Y-10040000I-15000J0D01*
G01*
X16215000Y-10040000D02*
G75*
G02*
X16245000Y-10040000I15000J0D01*
G01*
X16245000Y-10355000D02*
G75*
G02*
X16215000Y-10355000I-15000J0D01*
G01*
X16215000Y-10355000D02*
G75*
G02*
X16245000Y-10355000I15000J0D01*
G01*
X16245000Y-10670000D02*
G75*
G02*
X16215000Y-10670000I-15000J0D01*
G01*
X16215000Y-10670000D02*
G75*
G02*
X16245000Y-10670000I15000J0D01*
G01*
X16255000Y-9330000D02*
G75*
G02*
X16225000Y-9330000I-15000J0D01*
G01*
X16225000Y-9330000D02*
G75*
G02*
X16255000Y-9330000I15000J0D01*
G01*
X16257500Y-11102500D02*
G75*
G02*
X16227500Y-11102500I-15000J0D01*
G01*
X16227500Y-11102500D02*
G75*
G02*
X16257500Y-11102500I15000J0D01*
G01*
X16300000Y-10520000D02*
G75*
G02*
X16270000Y-10520000I-15000J0D01*
G01*
X16270000Y-10520000D02*
G75*
G02*
X16300000Y-10520000I15000J0D01*
G01*
X16390000Y-10115000D02*
G75*
G02*
X16360000Y-10115000I-15000J0D01*
G01*
X16360000Y-10115000D02*
G75*
G02*
X16390000Y-10115000I15000J0D01*
G01*
X16415000Y-10360000D02*
G75*
G02*
X16385000Y-10360000I-15000J0D01*
G01*
X16385000Y-10360000D02*
G75*
G02*
X16415000Y-10360000I15000J0D01*
G01*
X16470000Y-10975000D02*
G75*
G02*
X16440000Y-10975000I-15000J0D01*
G01*
X16440000Y-10975000D02*
G75*
G02*
X16470000Y-10975000I15000J0D01*
G01*
X16565000Y-9005000D02*
G75*
G02*
X16535000Y-9005000I-15000J0D01*
G01*
X16535000Y-9005000D02*
G75*
G02*
X16565000Y-9005000I15000J0D01*
G01*
X16840000Y-12205000D02*
G75*
G02*
X16810000Y-12205000I-15000J0D01*
G01*
X16810000Y-12205000D02*
G75*
G02*
X16840000Y-12205000I15000J0D01*
G01*
X16867500Y-7672500D02*
G75*
G02*
X16837500Y-7672500I-15000J0D01*
G01*
X16837500Y-7672500D02*
G75*
G02*
X16867500Y-7672500I15000J0D01*
G01*
X16917500Y-7597500D02*
G75*
G02*
X16887500Y-7597500I-15000J0D01*
G01*
X16887500Y-7597500D02*
G75*
G02*
X16917500Y-7597500I15000J0D01*
G01*
X16975000Y-12240000D02*
G75*
G02*
X16945000Y-12240000I-15000J0D01*
G01*
X16945000Y-12240000D02*
G75*
G02*
X16975000Y-12240000I15000J0D01*
G01*
X17000000Y-7532500D02*
G75*
G02*
X16970000Y-7532500I-15000J0D01*
G01*
X16970000Y-7532500D02*
G75*
G02*
X17000000Y-7532500I15000J0D01*
G01*
X17075000Y-7467500D02*
G75*
G02*
X17045000Y-7467500I-15000J0D01*
G01*
X17045000Y-7467500D02*
G75*
G02*
X17075000Y-7467500I15000J0D01*
G01*
X17225000Y-8265000D02*
G75*
G02*
X17195000Y-8265000I-15000J0D01*
G01*
X17195000Y-8265000D02*
G75*
G02*
X17225000Y-8265000I15000J0D01*
G01*
X17225000Y-8475000D02*
G75*
G02*
X17195000Y-8475000I-15000J0D01*
G01*
X17195000Y-8475000D02*
G75*
G02*
X17225000Y-8475000I15000J0D01*
G01*
X17325000Y-11837500D02*
G75*
G02*
X17295000Y-11837500I-15000J0D01*
G01*
X17295000Y-11837500D02*
G75*
G02*
X17325000Y-11837500I15000J0D01*
G01*
X17395000Y-11905000D02*
G75*
G02*
X17365000Y-11905000I-15000J0D01*
G01*
X17365000Y-11905000D02*
G75*
G02*
X17395000Y-11905000I15000J0D01*
G01*
X17462500Y-11972500D02*
G75*
G02*
X17432500Y-11972500I-15000J0D01*
G01*
X17432500Y-11972500D02*
G75*
G02*
X17462500Y-11972500I15000J0D01*
G01*
X17530000Y-12037500D02*
G75*
G02*
X17500000Y-12037500I-15000J0D01*
G01*
X17500000Y-12037500D02*
G75*
G02*
X17530000Y-12037500I15000J0D01*
G01*
X17630000Y-10440000D02*
G75*
G02*
X17600000Y-10440000I-15000J0D01*
G01*
X17600000Y-10440000D02*
G75*
G02*
X17630000Y-10440000I15000J0D01*
G01*
X17720000Y-10285000D02*
G75*
G02*
X17690000Y-10285000I-15000J0D01*
G01*
X17690000Y-10285000D02*
G75*
G02*
X17720000Y-10285000I15000J0D01*
G01*
X17850000Y-10145000D02*
G75*
G02*
X17820000Y-10145000I-15000J0D01*
G01*
X17820000Y-10145000D02*
G75*
G02*
X17850000Y-10145000I15000J0D01*
G01*
X17972500Y-9660000D02*
G75*
G02*
X17942500Y-9660000I-15000J0D01*
G01*
X17942500Y-9660000D02*
G75*
G02*
X17972500Y-9660000I15000J0D01*
G01*
X18067500Y-9662500D02*
G75*
G02*
X18037500Y-9662500I-15000J0D01*
G01*
X18037500Y-9662500D02*
G75*
G02*
X18067500Y-9662500I15000J0D01*
G01*
X18165000Y-9665000D02*
G75*
G02*
X18135000Y-9665000I-15000J0D01*
G01*
X18135000Y-9665000D02*
G75*
G02*
X18165000Y-9665000I15000J0D01*
G01*
X18262500Y-9662500D02*
G75*
G02*
X18232500Y-9662500I-15000J0D01*
G01*
X18232500Y-9662500D02*
G75*
G02*
X18262500Y-9662500I15000J0D01*
G01*
X14568000Y-12788500D02*
X14568000Y-12848500D01*
X14538000Y-12818500D02*
X14598000Y-12818500D01*
X14598000Y-12873500D02*
X14598000Y-12763500D01*
X14538000Y-12763500D02*
G75*
G02*
X14598000Y-12763500I30000J0D01*
G01*
X14538000Y-12763500D02*
X14538000Y-12873500D01*
X14538000Y-12873500D02*
G75*
G03*
X14598000Y-12873500I30000J0D01*
G01*
X14568000Y-13206500D02*
X14568000Y-13266500D01*
X14538000Y-13236500D02*
X14598000Y-13236500D01*
X14598000Y-13276500D02*
X14598000Y-13196500D01*
X14538000Y-13196500D02*
G75*
G02*
X14598000Y-13196500I30000J0D01*
G01*
X14538000Y-13196500D02*
X14538000Y-13276500D01*
X14538000Y-13276500D02*
G75*
G03*
X14598000Y-13276500I30000J0D01*
G01*
X15432000Y-12788500D02*
X15432000Y-12848500D01*
X15402000Y-12818500D02*
X15462000Y-12818500D01*
X15462000Y-12873500D02*
X15462000Y-12763500D01*
X15402000Y-12763500D02*
G75*
G02*
X15462000Y-12763500I30000J0D01*
G01*
X15402000Y-12763500D02*
X15402000Y-12873500D01*
X15402000Y-12873500D02*
G75*
G03*
X15462000Y-12873500I30000J0D01*
G01*
X15432000Y-13206500D02*
X15432000Y-13266500D01*
X15402000Y-13236500D02*
X15462000Y-13236500D01*
X15462000Y-13276500D02*
X15462000Y-13196500D01*
X15402000Y-13196500D02*
G75*
G02*
X15462000Y-13196500I30000J0D01*
G01*
X15402000Y-13196500D02*
X15402000Y-13276500D01*
X15402000Y-13276500D02*
G75*
G03*
X15462000Y-13276500I30000J0D01*
G01*
X13931356Y-8835356D02*
X13931356Y-8764644D01*
X13860644Y-8764644D01*
X13860644Y-8835356D01*
X13931356Y-8835356D01*
X14185356Y-8835356D02*
X14185356Y-8764644D01*
X14114644Y-8764644D01*
X14114644Y-8835356D01*
X14185356Y-8835356D01*
X15131356Y-8835356D02*
X15131356Y-8764644D01*
X15060644Y-8764644D01*
X15060644Y-8835356D01*
X15131356Y-8835356D01*
X15385356Y-8835356D02*
X15385356Y-8764644D01*
X15314644Y-8764644D01*
X15314644Y-8835356D01*
X15385356Y-8835356D01*
X15639356Y-8835356D02*
X15639356Y-8764644D01*
X15568644Y-8764644D01*
X15568644Y-8835356D01*
X15639356Y-8835356D01*
X16126356Y-11505356D02*
X16126356Y-11434644D01*
X16055644Y-11434644D01*
X16055644Y-11505356D01*
X16126356Y-11505356D01*
X16380356Y-11505356D02*
X16380356Y-11434644D01*
X16309644Y-11434644D01*
X16309644Y-11505356D01*
X16380356Y-11505356D01*
X17435356Y-9908356D02*
X17435356Y-9837644D01*
X17364644Y-9837644D01*
X17364644Y-9908356D01*
X17435356Y-9908356D01*
X17435356Y-10162356D02*
X17435356Y-10091644D01*
X17364644Y-10091644D01*
X17364644Y-10162356D01*
X17435356Y-10162356D01*
D10*
X11750777Y-13821484D02*
X11750777Y-13621484D01*
X11750777Y-13621484D02*
X11798396Y-13621484D01*
X11798396Y-13621484D02*
X11826967Y-13631008D01*
X11826967Y-13631008D02*
X11846015Y-13650055D01*
X11846015Y-13650055D02*
X11855539Y-13669103D01*
X11855539Y-13669103D02*
X11865062Y-13707198D01*
X11865062Y-13707198D02*
X11865062Y-13735769D01*
X11865062Y-13735769D02*
X11855539Y-13773865D01*
X11855539Y-13773865D02*
X11846015Y-13792912D01*
X11846015Y-13792912D02*
X11826967Y-13811960D01*
X11826967Y-13811960D02*
X11798396Y-13821484D01*
X11798396Y-13821484D02*
X11750777Y-13821484D01*
X11950777Y-13821484D02*
X11950777Y-13688150D01*
X11950777Y-13726246D02*
X11960301Y-13707198D01*
X11960301Y-13707198D02*
X11969824Y-13697674D01*
X11969824Y-13697674D02*
X11988872Y-13688150D01*
X11988872Y-13688150D02*
X12007920Y-13688150D01*
X12074586Y-13821484D02*
X12074586Y-13688150D01*
X12074586Y-13621484D02*
X12065062Y-13631008D01*
X12065062Y-13631008D02*
X12074586Y-13640531D01*
X12074586Y-13640531D02*
X12084110Y-13631008D01*
X12084110Y-13631008D02*
X12074586Y-13621484D01*
X12074586Y-13621484D02*
X12074586Y-13640531D01*
X12198396Y-13821484D02*
X12179348Y-13811960D01*
X12179348Y-13811960D02*
X12169824Y-13792912D01*
X12169824Y-13792912D02*
X12169824Y-13621484D01*
X12303158Y-13821484D02*
X12284110Y-13811960D01*
X12284110Y-13811960D02*
X12274586Y-13792912D01*
X12274586Y-13792912D02*
X12274586Y-13621484D01*
X12531729Y-13821484D02*
X12531729Y-13621484D01*
X12531729Y-13621484D02*
X12598396Y-13764341D01*
X12598396Y-13764341D02*
X12665062Y-13621484D01*
X12665062Y-13621484D02*
X12665062Y-13821484D01*
X12846015Y-13821484D02*
X12846015Y-13716722D01*
X12846015Y-13716722D02*
X12836491Y-13697674D01*
X12836491Y-13697674D02*
X12817443Y-13688150D01*
X12817443Y-13688150D02*
X12779348Y-13688150D01*
X12779348Y-13688150D02*
X12760301Y-13697674D01*
X12846015Y-13811960D02*
X12826967Y-13821484D01*
X12826967Y-13821484D02*
X12779348Y-13821484D01*
X12779348Y-13821484D02*
X12760301Y-13811960D01*
X12760301Y-13811960D02*
X12750777Y-13792912D01*
X12750777Y-13792912D02*
X12750777Y-13773865D01*
X12750777Y-13773865D02*
X12760301Y-13754817D01*
X12760301Y-13754817D02*
X12779348Y-13745293D01*
X12779348Y-13745293D02*
X12826967Y-13745293D01*
X12826967Y-13745293D02*
X12846015Y-13735769D01*
X12941253Y-13688150D02*
X12941253Y-13888150D01*
X12941253Y-13697674D02*
X12960301Y-13688150D01*
X12960301Y-13688150D02*
X12998396Y-13688150D01*
X12998396Y-13688150D02*
X13017443Y-13697674D01*
X13017443Y-13697674D02*
X13026967Y-13707198D01*
X13026967Y-13707198D02*
X13036491Y-13726246D01*
X13036491Y-13726246D02*
X13036491Y-13783388D01*
X13036491Y-13783388D02*
X13026967Y-13802436D01*
X13026967Y-13802436D02*
X13017443Y-13811960D01*
X13017443Y-13811960D02*
X12998396Y-13821484D01*
X12998396Y-13821484D02*
X12960301Y-13821484D01*
X12960301Y-13821484D02*
X12941253Y-13811960D01*
X13122205Y-13802436D02*
X13131729Y-13811960D01*
X13131729Y-13811960D02*
X13122205Y-13821484D01*
X13122205Y-13821484D02*
X13112682Y-13811960D01*
X13112682Y-13811960D02*
X13122205Y-13802436D01*
X13122205Y-13802436D02*
X13122205Y-13821484D01*
X13122205Y-13697674D02*
X13131729Y-13707198D01*
X13131729Y-13707198D02*
X13122205Y-13716722D01*
X13122205Y-13716722D02*
X13112682Y-13707198D01*
X13112682Y-13707198D02*
X13122205Y-13697674D01*
X13122205Y-13697674D02*
X13122205Y-13716722D01*
D12*
X11470000Y-14140000D02*
X11490000Y-14160000D01*
X11490000Y-14140000D02*
X11470000Y-14160000D01*
D10*
X11788872Y-14041484D02*
X11807920Y-14041484D01*
X11807920Y-14041484D02*
X11826967Y-14051008D01*
X11826967Y-14051008D02*
X11836491Y-14060531D01*
X11836491Y-14060531D02*
X11846015Y-14079579D01*
X11846015Y-14079579D02*
X11855539Y-14117674D01*
X11855539Y-14117674D02*
X11855539Y-14165293D01*
X11855539Y-14165293D02*
X11846015Y-14203388D01*
X11846015Y-14203388D02*
X11836491Y-14222436D01*
X11836491Y-14222436D02*
X11826967Y-14231960D01*
X11826967Y-14231960D02*
X11807920Y-14241484D01*
X11807920Y-14241484D02*
X11788872Y-14241484D01*
X11788872Y-14241484D02*
X11769824Y-14231960D01*
X11769824Y-14231960D02*
X11760301Y-14222436D01*
X11760301Y-14222436D02*
X11750777Y-14203388D01*
X11750777Y-14203388D02*
X11741253Y-14165293D01*
X11741253Y-14165293D02*
X11741253Y-14117674D01*
X11741253Y-14117674D02*
X11750777Y-14079579D01*
X11750777Y-14079579D02*
X11760301Y-14060531D01*
X11760301Y-14060531D02*
X11769824Y-14051008D01*
X11769824Y-14051008D02*
X11788872Y-14041484D01*
X11941253Y-14222436D02*
X11950777Y-14231960D01*
X11950777Y-14231960D02*
X11941253Y-14241484D01*
X11941253Y-14241484D02*
X11931729Y-14231960D01*
X11931729Y-14231960D02*
X11941253Y-14222436D01*
X11941253Y-14222436D02*
X11941253Y-14241484D01*
X12026967Y-14060531D02*
X12036491Y-14051008D01*
X12036491Y-14051008D02*
X12055539Y-14041484D01*
X12055539Y-14041484D02*
X12103158Y-14041484D01*
X12103158Y-14041484D02*
X12122205Y-14051008D01*
X12122205Y-14051008D02*
X12131729Y-14060531D01*
X12131729Y-14060531D02*
X12141253Y-14079579D01*
X12141253Y-14079579D02*
X12141253Y-14098627D01*
X12141253Y-14098627D02*
X12131729Y-14127198D01*
X12131729Y-14127198D02*
X12017443Y-14241484D01*
X12017443Y-14241484D02*
X12141253Y-14241484D01*
X12265062Y-14041484D02*
X12284110Y-14041484D01*
X12284110Y-14041484D02*
X12303158Y-14051008D01*
X12303158Y-14051008D02*
X12312682Y-14060531D01*
X12312682Y-14060531D02*
X12322205Y-14079579D01*
X12322205Y-14079579D02*
X12331729Y-14117674D01*
X12331729Y-14117674D02*
X12331729Y-14165293D01*
X12331729Y-14165293D02*
X12322205Y-14203388D01*
X12322205Y-14203388D02*
X12312682Y-14222436D01*
X12312682Y-14222436D02*
X12303158Y-14231960D01*
X12303158Y-14231960D02*
X12284110Y-14241484D01*
X12284110Y-14241484D02*
X12265062Y-14241484D01*
X12265062Y-14241484D02*
X12246015Y-14231960D01*
X12246015Y-14231960D02*
X12236491Y-14222436D01*
X12236491Y-14222436D02*
X12226967Y-14203388D01*
X12226967Y-14203388D02*
X12217443Y-14165293D01*
X12217443Y-14165293D02*
X12217443Y-14117674D01*
X12217443Y-14117674D02*
X12226967Y-14079579D01*
X12226967Y-14079579D02*
X12236491Y-14060531D01*
X12236491Y-14060531D02*
X12246015Y-14051008D01*
X12246015Y-14051008D02*
X12265062Y-14041484D01*
X12455539Y-14041484D02*
X12474586Y-14041484D01*
X12474586Y-14041484D02*
X12493634Y-14051008D01*
X12493634Y-14051008D02*
X12503158Y-14060531D01*
X12503158Y-14060531D02*
X12512682Y-14079579D01*
X12512682Y-14079579D02*
X12522205Y-14117674D01*
X12522205Y-14117674D02*
X12522205Y-14165293D01*
X12522205Y-14165293D02*
X12512682Y-14203388D01*
X12512682Y-14203388D02*
X12503158Y-14222436D01*
X12503158Y-14222436D02*
X12493634Y-14231960D01*
X12493634Y-14231960D02*
X12474586Y-14241484D01*
X12474586Y-14241484D02*
X12455539Y-14241484D01*
X12455539Y-14241484D02*
X12436491Y-14231960D01*
X12436491Y-14231960D02*
X12426967Y-14222436D01*
X12426967Y-14222436D02*
X12417443Y-14203388D01*
X12417443Y-14203388D02*
X12407920Y-14165293D01*
X12407920Y-14165293D02*
X12407920Y-14117674D01*
X12407920Y-14117674D02*
X12417443Y-14079579D01*
X12417443Y-14079579D02*
X12426967Y-14060531D01*
X12426967Y-14060531D02*
X12436491Y-14051008D01*
X12436491Y-14051008D02*
X12455539Y-14041484D01*
X12607920Y-14241484D02*
X12607920Y-14108150D01*
X12607920Y-14127198D02*
X12617443Y-14117674D01*
X12617443Y-14117674D02*
X12636491Y-14108150D01*
X12636491Y-14108150D02*
X12665063Y-14108150D01*
X12665063Y-14108150D02*
X12684110Y-14117674D01*
X12684110Y-14117674D02*
X12693634Y-14136722D01*
X12693634Y-14136722D02*
X12693634Y-14241484D01*
X12693634Y-14136722D02*
X12703158Y-14117674D01*
X12703158Y-14117674D02*
X12722205Y-14108150D01*
X12722205Y-14108150D02*
X12750777Y-14108150D01*
X12750777Y-14108150D02*
X12769824Y-14117674D01*
X12769824Y-14117674D02*
X12779348Y-14136722D01*
X12779348Y-14136722D02*
X12779348Y-14241484D01*
X12874586Y-14241484D02*
X12874586Y-14108150D01*
X12874586Y-14127198D02*
X12884110Y-14117674D01*
X12884110Y-14117674D02*
X12903158Y-14108150D01*
X12903158Y-14108150D02*
X12931729Y-14108150D01*
X12931729Y-14108150D02*
X12950777Y-14117674D01*
X12950777Y-14117674D02*
X12960301Y-14136722D01*
X12960301Y-14136722D02*
X12960301Y-14241484D01*
X12960301Y-14136722D02*
X12969824Y-14117674D01*
X12969824Y-14117674D02*
X12988872Y-14108150D01*
X12988872Y-14108150D02*
X13017443Y-14108150D01*
X13017443Y-14108150D02*
X13036491Y-14117674D01*
X13036491Y-14117674D02*
X13046015Y-14136722D01*
X13046015Y-14136722D02*
X13046015Y-14241484D01*
X13436491Y-14031960D02*
X13265063Y-14289103D01*
X13693634Y-14041484D02*
X13712682Y-14041484D01*
X13712682Y-14041484D02*
X13731729Y-14051008D01*
X13731729Y-14051008D02*
X13741253Y-14060531D01*
X13741253Y-14060531D02*
X13750777Y-14079579D01*
X13750777Y-14079579D02*
X13760301Y-14117674D01*
X13760301Y-14117674D02*
X13760301Y-14165293D01*
X13760301Y-14165293D02*
X13750777Y-14203388D01*
X13750777Y-14203388D02*
X13741253Y-14222436D01*
X13741253Y-14222436D02*
X13731729Y-14231960D01*
X13731729Y-14231960D02*
X13712682Y-14241484D01*
X13712682Y-14241484D02*
X13693634Y-14241484D01*
X13693634Y-14241484D02*
X13674586Y-14231960D01*
X13674586Y-14231960D02*
X13665063Y-14222436D01*
X13665063Y-14222436D02*
X13655539Y-14203388D01*
X13655539Y-14203388D02*
X13646015Y-14165293D01*
X13646015Y-14165293D02*
X13646015Y-14117674D01*
X13646015Y-14117674D02*
X13655539Y-14079579D01*
X13655539Y-14079579D02*
X13665063Y-14060531D01*
X13665063Y-14060531D02*
X13674586Y-14051008D01*
X13674586Y-14051008D02*
X13693634Y-14041484D01*
X13846015Y-14222436D02*
X13855539Y-14231960D01*
X13855539Y-14231960D02*
X13846015Y-14241484D01*
X13846015Y-14241484D02*
X13836491Y-14231960D01*
X13836491Y-14231960D02*
X13846015Y-14222436D01*
X13846015Y-14222436D02*
X13846015Y-14241484D01*
X13979348Y-14041484D02*
X13998396Y-14041484D01*
X13998396Y-14041484D02*
X14017444Y-14051008D01*
X14017444Y-14051008D02*
X14026967Y-14060531D01*
X14026967Y-14060531D02*
X14036491Y-14079579D01*
X14036491Y-14079579D02*
X14046015Y-14117674D01*
X14046015Y-14117674D02*
X14046015Y-14165293D01*
X14046015Y-14165293D02*
X14036491Y-14203388D01*
X14036491Y-14203388D02*
X14026967Y-14222436D01*
X14026967Y-14222436D02*
X14017444Y-14231960D01*
X14017444Y-14231960D02*
X13998396Y-14241484D01*
X13998396Y-14241484D02*
X13979348Y-14241484D01*
X13979348Y-14241484D02*
X13960301Y-14231960D01*
X13960301Y-14231960D02*
X13950777Y-14222436D01*
X13950777Y-14222436D02*
X13941253Y-14203388D01*
X13941253Y-14203388D02*
X13931729Y-14165293D01*
X13931729Y-14165293D02*
X13931729Y-14117674D01*
X13931729Y-14117674D02*
X13941253Y-14079579D01*
X13941253Y-14079579D02*
X13950777Y-14060531D01*
X13950777Y-14060531D02*
X13960301Y-14051008D01*
X13960301Y-14051008D02*
X13979348Y-14041484D01*
X14169825Y-14041484D02*
X14188872Y-14041484D01*
X14188872Y-14041484D02*
X14207920Y-14051008D01*
X14207920Y-14051008D02*
X14217444Y-14060531D01*
X14217444Y-14060531D02*
X14226967Y-14079579D01*
X14226967Y-14079579D02*
X14236491Y-14117674D01*
X14236491Y-14117674D02*
X14236491Y-14165293D01*
X14236491Y-14165293D02*
X14226967Y-14203388D01*
X14226967Y-14203388D02*
X14217444Y-14222436D01*
X14217444Y-14222436D02*
X14207920Y-14231960D01*
X14207920Y-14231960D02*
X14188872Y-14241484D01*
X14188872Y-14241484D02*
X14169825Y-14241484D01*
X14169825Y-14241484D02*
X14150777Y-14231960D01*
X14150777Y-14231960D02*
X14141253Y-14222436D01*
X14141253Y-14222436D02*
X14131729Y-14203388D01*
X14131729Y-14203388D02*
X14122206Y-14165293D01*
X14122206Y-14165293D02*
X14122206Y-14117674D01*
X14122206Y-14117674D02*
X14131729Y-14079579D01*
X14131729Y-14079579D02*
X14141253Y-14060531D01*
X14141253Y-14060531D02*
X14150777Y-14051008D01*
X14150777Y-14051008D02*
X14169825Y-14041484D01*
X14303158Y-14041484D02*
X14436491Y-14041484D01*
X14436491Y-14041484D02*
X14350777Y-14241484D01*
X14522206Y-14241484D02*
X14560301Y-14241484D01*
X14560301Y-14241484D02*
X14579348Y-14231960D01*
X14579348Y-14231960D02*
X14588872Y-14222436D01*
X14588872Y-14222436D02*
X14607920Y-14193865D01*
X14607920Y-14193865D02*
X14617444Y-14155769D01*
X14617444Y-14155769D02*
X14617444Y-14079579D01*
X14617444Y-14079579D02*
X14607920Y-14060531D01*
X14607920Y-14060531D02*
X14598396Y-14051008D01*
X14598396Y-14051008D02*
X14579348Y-14041484D01*
X14579348Y-14041484D02*
X14541253Y-14041484D01*
X14541253Y-14041484D02*
X14522206Y-14051008D01*
X14522206Y-14051008D02*
X14512682Y-14060531D01*
X14512682Y-14060531D02*
X14503158Y-14079579D01*
X14503158Y-14079579D02*
X14503158Y-14127198D01*
X14503158Y-14127198D02*
X14512682Y-14146246D01*
X14512682Y-14146246D02*
X14522206Y-14155769D01*
X14522206Y-14155769D02*
X14541253Y-14165293D01*
X14541253Y-14165293D02*
X14579348Y-14165293D01*
X14579348Y-14165293D02*
X14598396Y-14155769D01*
X14598396Y-14155769D02*
X14607920Y-14146246D01*
X14607920Y-14146246D02*
X14617444Y-14127198D01*
X14693634Y-14041484D02*
X14693634Y-14079579D01*
X14769825Y-14041484D02*
X14769825Y-14079579D01*
X15065063Y-14317674D02*
X15055539Y-14308150D01*
X15055539Y-14308150D02*
X15036491Y-14279579D01*
X15036491Y-14279579D02*
X15026968Y-14260531D01*
X15026968Y-14260531D02*
X15017444Y-14231960D01*
X15017444Y-14231960D02*
X15007920Y-14184341D01*
X15007920Y-14184341D02*
X15007920Y-14146246D01*
X15007920Y-14146246D02*
X15017444Y-14098627D01*
X15017444Y-14098627D02*
X15026968Y-14070055D01*
X15026968Y-14070055D02*
X15036491Y-14051008D01*
X15036491Y-14051008D02*
X15055539Y-14022436D01*
X15055539Y-14022436D02*
X15065063Y-14012912D01*
X15246015Y-14241484D02*
X15131729Y-14241484D01*
X15188872Y-14241484D02*
X15188872Y-14041484D01*
X15188872Y-14041484D02*
X15169825Y-14070055D01*
X15169825Y-14070055D02*
X15150777Y-14089103D01*
X15150777Y-14089103D02*
X15131729Y-14098627D01*
X15322206Y-14060531D02*
X15331729Y-14051008D01*
X15331729Y-14051008D02*
X15350777Y-14041484D01*
X15350777Y-14041484D02*
X15398396Y-14041484D01*
X15398396Y-14041484D02*
X15417444Y-14051008D01*
X15417444Y-14051008D02*
X15426968Y-14060531D01*
X15426968Y-14060531D02*
X15436491Y-14079579D01*
X15436491Y-14079579D02*
X15436491Y-14098627D01*
X15436491Y-14098627D02*
X15426968Y-14127198D01*
X15426968Y-14127198D02*
X15312682Y-14241484D01*
X15312682Y-14241484D02*
X15436491Y-14241484D01*
X15674587Y-14241484D02*
X15674587Y-14041484D01*
X15760301Y-14241484D02*
X15760301Y-14136722D01*
X15760301Y-14136722D02*
X15750777Y-14117674D01*
X15750777Y-14117674D02*
X15731730Y-14108150D01*
X15731730Y-14108150D02*
X15703158Y-14108150D01*
X15703158Y-14108150D02*
X15684110Y-14117674D01*
X15684110Y-14117674D02*
X15674587Y-14127198D01*
X15884110Y-14241484D02*
X15865063Y-14231960D01*
X15865063Y-14231960D02*
X15855539Y-14222436D01*
X15855539Y-14222436D02*
X15846015Y-14203388D01*
X15846015Y-14203388D02*
X15846015Y-14146246D01*
X15846015Y-14146246D02*
X15855539Y-14127198D01*
X15855539Y-14127198D02*
X15865063Y-14117674D01*
X15865063Y-14117674D02*
X15884110Y-14108150D01*
X15884110Y-14108150D02*
X15912682Y-14108150D01*
X15912682Y-14108150D02*
X15931730Y-14117674D01*
X15931730Y-14117674D02*
X15941253Y-14127198D01*
X15941253Y-14127198D02*
X15950777Y-14146246D01*
X15950777Y-14146246D02*
X15950777Y-14203388D01*
X15950777Y-14203388D02*
X15941253Y-14222436D01*
X15941253Y-14222436D02*
X15931730Y-14231960D01*
X15931730Y-14231960D02*
X15912682Y-14241484D01*
X15912682Y-14241484D02*
X15884110Y-14241484D01*
X16065063Y-14241484D02*
X16046015Y-14231960D01*
X16046015Y-14231960D02*
X16036491Y-14212912D01*
X16036491Y-14212912D02*
X16036491Y-14041484D01*
X16217444Y-14231960D02*
X16198396Y-14241484D01*
X16198396Y-14241484D02*
X16160301Y-14241484D01*
X16160301Y-14241484D02*
X16141253Y-14231960D01*
X16141253Y-14231960D02*
X16131730Y-14212912D01*
X16131730Y-14212912D02*
X16131730Y-14136722D01*
X16131730Y-14136722D02*
X16141253Y-14117674D01*
X16141253Y-14117674D02*
X16160301Y-14108150D01*
X16160301Y-14108150D02*
X16198396Y-14108150D01*
X16198396Y-14108150D02*
X16217444Y-14117674D01*
X16217444Y-14117674D02*
X16226968Y-14136722D01*
X16226968Y-14136722D02*
X16226968Y-14155769D01*
X16226968Y-14155769D02*
X16131730Y-14174817D01*
X16303158Y-14231960D02*
X16322206Y-14241484D01*
X16322206Y-14241484D02*
X16360301Y-14241484D01*
X16360301Y-14241484D02*
X16379349Y-14231960D01*
X16379349Y-14231960D02*
X16388872Y-14212912D01*
X16388872Y-14212912D02*
X16388872Y-14203388D01*
X16388872Y-14203388D02*
X16379349Y-14184341D01*
X16379349Y-14184341D02*
X16360301Y-14174817D01*
X16360301Y-14174817D02*
X16331730Y-14174817D01*
X16331730Y-14174817D02*
X16312682Y-14165293D01*
X16312682Y-14165293D02*
X16303158Y-14146246D01*
X16303158Y-14146246D02*
X16303158Y-14136722D01*
X16303158Y-14136722D02*
X16312682Y-14117674D01*
X16312682Y-14117674D02*
X16331730Y-14108150D01*
X16331730Y-14108150D02*
X16360301Y-14108150D01*
X16360301Y-14108150D02*
X16379349Y-14117674D01*
X16455539Y-14317674D02*
X16465063Y-14308150D01*
X16465063Y-14308150D02*
X16484111Y-14279579D01*
X16484111Y-14279579D02*
X16493634Y-14260531D01*
X16493634Y-14260531D02*
X16503158Y-14231960D01*
X16503158Y-14231960D02*
X16512682Y-14184341D01*
X16512682Y-14184341D02*
X16512682Y-14146246D01*
X16512682Y-14146246D02*
X16503158Y-14098627D01*
X16503158Y-14098627D02*
X16493634Y-14070055D01*
X16493634Y-14070055D02*
X16484111Y-14051008D01*
X16484111Y-14051008D02*
X16465063Y-14022436D01*
X16465063Y-14022436D02*
X16455539Y-14012912D01*
D12*
X11490000Y-14414000D02*
G75*
G02*
X11460000Y-14414000I-15000J0D01*
G01*
X11460000Y-14414000D02*
G75*
G02*
X11490000Y-14414000I15000J0D01*
G01*
D10*
X11788872Y-14305484D02*
X11807920Y-14305484D01*
X11807920Y-14305484D02*
X11826967Y-14315008D01*
X11826967Y-14315008D02*
X11836491Y-14324531D01*
X11836491Y-14324531D02*
X11846015Y-14343579D01*
X11846015Y-14343579D02*
X11855539Y-14381674D01*
X11855539Y-14381674D02*
X11855539Y-14429293D01*
X11855539Y-14429293D02*
X11846015Y-14467388D01*
X11846015Y-14467388D02*
X11836491Y-14486436D01*
X11836491Y-14486436D02*
X11826967Y-14495960D01*
X11826967Y-14495960D02*
X11807920Y-14505484D01*
X11807920Y-14505484D02*
X11788872Y-14505484D01*
X11788872Y-14505484D02*
X11769824Y-14495960D01*
X11769824Y-14495960D02*
X11760301Y-14486436D01*
X11760301Y-14486436D02*
X11750777Y-14467388D01*
X11750777Y-14467388D02*
X11741253Y-14429293D01*
X11741253Y-14429293D02*
X11741253Y-14381674D01*
X11741253Y-14381674D02*
X11750777Y-14343579D01*
X11750777Y-14343579D02*
X11760301Y-14324531D01*
X11760301Y-14324531D02*
X11769824Y-14315008D01*
X11769824Y-14315008D02*
X11788872Y-14305484D01*
X11941253Y-14486436D02*
X11950777Y-14495960D01*
X11950777Y-14495960D02*
X11941253Y-14505484D01*
X11941253Y-14505484D02*
X11931729Y-14495960D01*
X11931729Y-14495960D02*
X11941253Y-14486436D01*
X11941253Y-14486436D02*
X11941253Y-14505484D01*
X12017443Y-14305484D02*
X12141253Y-14305484D01*
X12141253Y-14305484D02*
X12074586Y-14381674D01*
X12074586Y-14381674D02*
X12103158Y-14381674D01*
X12103158Y-14381674D02*
X12122205Y-14391198D01*
X12122205Y-14391198D02*
X12131729Y-14400722D01*
X12131729Y-14400722D02*
X12141253Y-14419769D01*
X12141253Y-14419769D02*
X12141253Y-14467388D01*
X12141253Y-14467388D02*
X12131729Y-14486436D01*
X12131729Y-14486436D02*
X12122205Y-14495960D01*
X12122205Y-14495960D02*
X12103158Y-14505484D01*
X12103158Y-14505484D02*
X12046015Y-14505484D01*
X12046015Y-14505484D02*
X12026967Y-14495960D01*
X12026967Y-14495960D02*
X12017443Y-14486436D01*
X12265062Y-14305484D02*
X12284110Y-14305484D01*
X12284110Y-14305484D02*
X12303158Y-14315008D01*
X12303158Y-14315008D02*
X12312682Y-14324531D01*
X12312682Y-14324531D02*
X12322205Y-14343579D01*
X12322205Y-14343579D02*
X12331729Y-14381674D01*
X12331729Y-14381674D02*
X12331729Y-14429293D01*
X12331729Y-14429293D02*
X12322205Y-14467388D01*
X12322205Y-14467388D02*
X12312682Y-14486436D01*
X12312682Y-14486436D02*
X12303158Y-14495960D01*
X12303158Y-14495960D02*
X12284110Y-14505484D01*
X12284110Y-14505484D02*
X12265062Y-14505484D01*
X12265062Y-14505484D02*
X12246015Y-14495960D01*
X12246015Y-14495960D02*
X12236491Y-14486436D01*
X12236491Y-14486436D02*
X12226967Y-14467388D01*
X12226967Y-14467388D02*
X12217443Y-14429293D01*
X12217443Y-14429293D02*
X12217443Y-14381674D01*
X12217443Y-14381674D02*
X12226967Y-14343579D01*
X12226967Y-14343579D02*
X12236491Y-14324531D01*
X12236491Y-14324531D02*
X12246015Y-14315008D01*
X12246015Y-14315008D02*
X12265062Y-14305484D01*
X12455539Y-14305484D02*
X12474586Y-14305484D01*
X12474586Y-14305484D02*
X12493634Y-14315008D01*
X12493634Y-14315008D02*
X12503158Y-14324531D01*
X12503158Y-14324531D02*
X12512682Y-14343579D01*
X12512682Y-14343579D02*
X12522205Y-14381674D01*
X12522205Y-14381674D02*
X12522205Y-14429293D01*
X12522205Y-14429293D02*
X12512682Y-14467388D01*
X12512682Y-14467388D02*
X12503158Y-14486436D01*
X12503158Y-14486436D02*
X12493634Y-14495960D01*
X12493634Y-14495960D02*
X12474586Y-14505484D01*
X12474586Y-14505484D02*
X12455539Y-14505484D01*
X12455539Y-14505484D02*
X12436491Y-14495960D01*
X12436491Y-14495960D02*
X12426967Y-14486436D01*
X12426967Y-14486436D02*
X12417443Y-14467388D01*
X12417443Y-14467388D02*
X12407920Y-14429293D01*
X12407920Y-14429293D02*
X12407920Y-14381674D01*
X12407920Y-14381674D02*
X12417443Y-14343579D01*
X12417443Y-14343579D02*
X12426967Y-14324531D01*
X12426967Y-14324531D02*
X12436491Y-14315008D01*
X12436491Y-14315008D02*
X12455539Y-14305484D01*
X12607920Y-14505484D02*
X12607920Y-14372150D01*
X12607920Y-14391198D02*
X12617443Y-14381674D01*
X12617443Y-14381674D02*
X12636491Y-14372150D01*
X12636491Y-14372150D02*
X12665063Y-14372150D01*
X12665063Y-14372150D02*
X12684110Y-14381674D01*
X12684110Y-14381674D02*
X12693634Y-14400722D01*
X12693634Y-14400722D02*
X12693634Y-14505484D01*
X12693634Y-14400722D02*
X12703158Y-14381674D01*
X12703158Y-14381674D02*
X12722205Y-14372150D01*
X12722205Y-14372150D02*
X12750777Y-14372150D01*
X12750777Y-14372150D02*
X12769824Y-14381674D01*
X12769824Y-14381674D02*
X12779348Y-14400722D01*
X12779348Y-14400722D02*
X12779348Y-14505484D01*
X12874586Y-14505484D02*
X12874586Y-14372150D01*
X12874586Y-14391198D02*
X12884110Y-14381674D01*
X12884110Y-14381674D02*
X12903158Y-14372150D01*
X12903158Y-14372150D02*
X12931729Y-14372150D01*
X12931729Y-14372150D02*
X12950777Y-14381674D01*
X12950777Y-14381674D02*
X12960301Y-14400722D01*
X12960301Y-14400722D02*
X12960301Y-14505484D01*
X12960301Y-14400722D02*
X12969824Y-14381674D01*
X12969824Y-14381674D02*
X12988872Y-14372150D01*
X12988872Y-14372150D02*
X13017443Y-14372150D01*
X13017443Y-14372150D02*
X13036491Y-14381674D01*
X13036491Y-14381674D02*
X13046015Y-14400722D01*
X13046015Y-14400722D02*
X13046015Y-14505484D01*
X13436491Y-14295960D02*
X13265063Y-14553103D01*
X13693634Y-14305484D02*
X13712682Y-14305484D01*
X13712682Y-14305484D02*
X13731729Y-14315008D01*
X13731729Y-14315008D02*
X13741253Y-14324531D01*
X13741253Y-14324531D02*
X13750777Y-14343579D01*
X13750777Y-14343579D02*
X13760301Y-14381674D01*
X13760301Y-14381674D02*
X13760301Y-14429293D01*
X13760301Y-14429293D02*
X13750777Y-14467388D01*
X13750777Y-14467388D02*
X13741253Y-14486436D01*
X13741253Y-14486436D02*
X13731729Y-14495960D01*
X13731729Y-14495960D02*
X13712682Y-14505484D01*
X13712682Y-14505484D02*
X13693634Y-14505484D01*
X13693634Y-14505484D02*
X13674586Y-14495960D01*
X13674586Y-14495960D02*
X13665063Y-14486436D01*
X13665063Y-14486436D02*
X13655539Y-14467388D01*
X13655539Y-14467388D02*
X13646015Y-14429293D01*
X13646015Y-14429293D02*
X13646015Y-14381674D01*
X13646015Y-14381674D02*
X13655539Y-14343579D01*
X13655539Y-14343579D02*
X13665063Y-14324531D01*
X13665063Y-14324531D02*
X13674586Y-14315008D01*
X13674586Y-14315008D02*
X13693634Y-14305484D01*
X13846015Y-14486436D02*
X13855539Y-14495960D01*
X13855539Y-14495960D02*
X13846015Y-14505484D01*
X13846015Y-14505484D02*
X13836491Y-14495960D01*
X13836491Y-14495960D02*
X13846015Y-14486436D01*
X13846015Y-14486436D02*
X13846015Y-14505484D01*
X13979348Y-14305484D02*
X13998396Y-14305484D01*
X13998396Y-14305484D02*
X14017444Y-14315008D01*
X14017444Y-14315008D02*
X14026967Y-14324531D01*
X14026967Y-14324531D02*
X14036491Y-14343579D01*
X14036491Y-14343579D02*
X14046015Y-14381674D01*
X14046015Y-14381674D02*
X14046015Y-14429293D01*
X14046015Y-14429293D02*
X14036491Y-14467388D01*
X14036491Y-14467388D02*
X14026967Y-14486436D01*
X14026967Y-14486436D02*
X14017444Y-14495960D01*
X14017444Y-14495960D02*
X13998396Y-14505484D01*
X13998396Y-14505484D02*
X13979348Y-14505484D01*
X13979348Y-14505484D02*
X13960301Y-14495960D01*
X13960301Y-14495960D02*
X13950777Y-14486436D01*
X13950777Y-14486436D02*
X13941253Y-14467388D01*
X13941253Y-14467388D02*
X13931729Y-14429293D01*
X13931729Y-14429293D02*
X13931729Y-14381674D01*
X13931729Y-14381674D02*
X13941253Y-14343579D01*
X13941253Y-14343579D02*
X13950777Y-14324531D01*
X13950777Y-14324531D02*
X13960301Y-14315008D01*
X13960301Y-14315008D02*
X13979348Y-14305484D01*
X14236491Y-14505484D02*
X14122206Y-14505484D01*
X14179348Y-14505484D02*
X14179348Y-14305484D01*
X14179348Y-14305484D02*
X14160301Y-14334055D01*
X14160301Y-14334055D02*
X14141253Y-14353103D01*
X14141253Y-14353103D02*
X14122206Y-14362627D01*
X14426967Y-14505484D02*
X14312682Y-14505484D01*
X14369825Y-14505484D02*
X14369825Y-14305484D01*
X14369825Y-14305484D02*
X14350777Y-14334055D01*
X14350777Y-14334055D02*
X14331729Y-14353103D01*
X14331729Y-14353103D02*
X14312682Y-14362627D01*
X14541253Y-14391198D02*
X14522206Y-14381674D01*
X14522206Y-14381674D02*
X14512682Y-14372150D01*
X14512682Y-14372150D02*
X14503158Y-14353103D01*
X14503158Y-14353103D02*
X14503158Y-14343579D01*
X14503158Y-14343579D02*
X14512682Y-14324531D01*
X14512682Y-14324531D02*
X14522206Y-14315008D01*
X14522206Y-14315008D02*
X14541253Y-14305484D01*
X14541253Y-14305484D02*
X14579348Y-14305484D01*
X14579348Y-14305484D02*
X14598396Y-14315008D01*
X14598396Y-14315008D02*
X14607920Y-14324531D01*
X14607920Y-14324531D02*
X14617444Y-14343579D01*
X14617444Y-14343579D02*
X14617444Y-14353103D01*
X14617444Y-14353103D02*
X14607920Y-14372150D01*
X14607920Y-14372150D02*
X14598396Y-14381674D01*
X14598396Y-14381674D02*
X14579348Y-14391198D01*
X14579348Y-14391198D02*
X14541253Y-14391198D01*
X14541253Y-14391198D02*
X14522206Y-14400722D01*
X14522206Y-14400722D02*
X14512682Y-14410246D01*
X14512682Y-14410246D02*
X14503158Y-14429293D01*
X14503158Y-14429293D02*
X14503158Y-14467388D01*
X14503158Y-14467388D02*
X14512682Y-14486436D01*
X14512682Y-14486436D02*
X14522206Y-14495960D01*
X14522206Y-14495960D02*
X14541253Y-14505484D01*
X14541253Y-14505484D02*
X14579348Y-14505484D01*
X14579348Y-14505484D02*
X14598396Y-14495960D01*
X14598396Y-14495960D02*
X14607920Y-14486436D01*
X14607920Y-14486436D02*
X14617444Y-14467388D01*
X14617444Y-14467388D02*
X14617444Y-14429293D01*
X14617444Y-14429293D02*
X14607920Y-14410246D01*
X14607920Y-14410246D02*
X14598396Y-14400722D01*
X14598396Y-14400722D02*
X14579348Y-14391198D01*
X14693634Y-14305484D02*
X14693634Y-14343579D01*
X14769825Y-14305484D02*
X14769825Y-14343579D01*
X15065063Y-14581674D02*
X15055539Y-14572150D01*
X15055539Y-14572150D02*
X15036491Y-14543579D01*
X15036491Y-14543579D02*
X15026968Y-14524531D01*
X15026968Y-14524531D02*
X15017444Y-14495960D01*
X15017444Y-14495960D02*
X15007920Y-14448341D01*
X15007920Y-14448341D02*
X15007920Y-14410246D01*
X15007920Y-14410246D02*
X15017444Y-14362627D01*
X15017444Y-14362627D02*
X15026968Y-14334055D01*
X15026968Y-14334055D02*
X15036491Y-14315008D01*
X15036491Y-14315008D02*
X15055539Y-14286436D01*
X15055539Y-14286436D02*
X15065063Y-14276912D01*
X15246015Y-14505484D02*
X15131729Y-14505484D01*
X15188872Y-14505484D02*
X15188872Y-14305484D01*
X15188872Y-14305484D02*
X15169825Y-14334055D01*
X15169825Y-14334055D02*
X15150777Y-14353103D01*
X15150777Y-14353103D02*
X15131729Y-14362627D01*
X15360301Y-14391198D02*
X15341253Y-14381674D01*
X15341253Y-14381674D02*
X15331729Y-14372150D01*
X15331729Y-14372150D02*
X15322206Y-14353103D01*
X15322206Y-14353103D02*
X15322206Y-14343579D01*
X15322206Y-14343579D02*
X15331729Y-14324531D01*
X15331729Y-14324531D02*
X15341253Y-14315008D01*
X15341253Y-14315008D02*
X15360301Y-14305484D01*
X15360301Y-14305484D02*
X15398396Y-14305484D01*
X15398396Y-14305484D02*
X15417444Y-14315008D01*
X15417444Y-14315008D02*
X15426968Y-14324531D01*
X15426968Y-14324531D02*
X15436491Y-14343579D01*
X15436491Y-14343579D02*
X15436491Y-14353103D01*
X15436491Y-14353103D02*
X15426968Y-14372150D01*
X15426968Y-14372150D02*
X15417444Y-14381674D01*
X15417444Y-14381674D02*
X15398396Y-14391198D01*
X15398396Y-14391198D02*
X15360301Y-14391198D01*
X15360301Y-14391198D02*
X15341253Y-14400722D01*
X15341253Y-14400722D02*
X15331729Y-14410246D01*
X15331729Y-14410246D02*
X15322206Y-14429293D01*
X15322206Y-14429293D02*
X15322206Y-14467388D01*
X15322206Y-14467388D02*
X15331729Y-14486436D01*
X15331729Y-14486436D02*
X15341253Y-14495960D01*
X15341253Y-14495960D02*
X15360301Y-14505484D01*
X15360301Y-14505484D02*
X15398396Y-14505484D01*
X15398396Y-14505484D02*
X15417444Y-14495960D01*
X15417444Y-14495960D02*
X15426968Y-14486436D01*
X15426968Y-14486436D02*
X15436491Y-14467388D01*
X15436491Y-14467388D02*
X15436491Y-14429293D01*
X15436491Y-14429293D02*
X15426968Y-14410246D01*
X15426968Y-14410246D02*
X15417444Y-14400722D01*
X15417444Y-14400722D02*
X15398396Y-14391198D01*
X15607920Y-14305484D02*
X15569825Y-14305484D01*
X15569825Y-14305484D02*
X15550777Y-14315008D01*
X15550777Y-14315008D02*
X15541253Y-14324531D01*
X15541253Y-14324531D02*
X15522206Y-14353103D01*
X15522206Y-14353103D02*
X15512682Y-14391198D01*
X15512682Y-14391198D02*
X15512682Y-14467388D01*
X15512682Y-14467388D02*
X15522206Y-14486436D01*
X15522206Y-14486436D02*
X15531729Y-14495960D01*
X15531729Y-14495960D02*
X15550777Y-14505484D01*
X15550777Y-14505484D02*
X15588872Y-14505484D01*
X15588872Y-14505484D02*
X15607920Y-14495960D01*
X15607920Y-14495960D02*
X15617444Y-14486436D01*
X15617444Y-14486436D02*
X15626968Y-14467388D01*
X15626968Y-14467388D02*
X15626968Y-14419769D01*
X15626968Y-14419769D02*
X15617444Y-14400722D01*
X15617444Y-14400722D02*
X15607920Y-14391198D01*
X15607920Y-14391198D02*
X15588872Y-14381674D01*
X15588872Y-14381674D02*
X15550777Y-14381674D01*
X15550777Y-14381674D02*
X15531729Y-14391198D01*
X15531729Y-14391198D02*
X15522206Y-14400722D01*
X15522206Y-14400722D02*
X15512682Y-14419769D01*
X15865063Y-14505484D02*
X15865063Y-14305484D01*
X15950777Y-14505484D02*
X15950777Y-14400722D01*
X15950777Y-14400722D02*
X15941253Y-14381674D01*
X15941253Y-14381674D02*
X15922206Y-14372150D01*
X15922206Y-14372150D02*
X15893634Y-14372150D01*
X15893634Y-14372150D02*
X15874587Y-14381674D01*
X15874587Y-14381674D02*
X15865063Y-14391198D01*
X16074587Y-14505484D02*
X16055539Y-14495960D01*
X16055539Y-14495960D02*
X16046015Y-14486436D01*
X16046015Y-14486436D02*
X16036491Y-14467388D01*
X16036491Y-14467388D02*
X16036491Y-14410246D01*
X16036491Y-14410246D02*
X16046015Y-14391198D01*
X16046015Y-14391198D02*
X16055539Y-14381674D01*
X16055539Y-14381674D02*
X16074587Y-14372150D01*
X16074587Y-14372150D02*
X16103158Y-14372150D01*
X16103158Y-14372150D02*
X16122206Y-14381674D01*
X16122206Y-14381674D02*
X16131730Y-14391198D01*
X16131730Y-14391198D02*
X16141253Y-14410246D01*
X16141253Y-14410246D02*
X16141253Y-14467388D01*
X16141253Y-14467388D02*
X16131730Y-14486436D01*
X16131730Y-14486436D02*
X16122206Y-14495960D01*
X16122206Y-14495960D02*
X16103158Y-14505484D01*
X16103158Y-14505484D02*
X16074587Y-14505484D01*
X16255539Y-14505484D02*
X16236491Y-14495960D01*
X16236491Y-14495960D02*
X16226968Y-14476912D01*
X16226968Y-14476912D02*
X16226968Y-14305484D01*
X16407920Y-14495960D02*
X16388872Y-14505484D01*
X16388872Y-14505484D02*
X16350777Y-14505484D01*
X16350777Y-14505484D02*
X16331730Y-14495960D01*
X16331730Y-14495960D02*
X16322206Y-14476912D01*
X16322206Y-14476912D02*
X16322206Y-14400722D01*
X16322206Y-14400722D02*
X16331730Y-14381674D01*
X16331730Y-14381674D02*
X16350777Y-14372150D01*
X16350777Y-14372150D02*
X16388872Y-14372150D01*
X16388872Y-14372150D02*
X16407920Y-14381674D01*
X16407920Y-14381674D02*
X16417444Y-14400722D01*
X16417444Y-14400722D02*
X16417444Y-14419769D01*
X16417444Y-14419769D02*
X16322206Y-14438817D01*
X16493634Y-14495960D02*
X16512682Y-14505484D01*
X16512682Y-14505484D02*
X16550777Y-14505484D01*
X16550777Y-14505484D02*
X16569825Y-14495960D01*
X16569825Y-14495960D02*
X16579349Y-14476912D01*
X16579349Y-14476912D02*
X16579349Y-14467388D01*
X16579349Y-14467388D02*
X16569825Y-14448341D01*
X16569825Y-14448341D02*
X16550777Y-14438817D01*
X16550777Y-14438817D02*
X16522206Y-14438817D01*
X16522206Y-14438817D02*
X16503158Y-14429293D01*
X16503158Y-14429293D02*
X16493634Y-14410246D01*
X16493634Y-14410246D02*
X16493634Y-14400722D01*
X16493634Y-14400722D02*
X16503158Y-14381674D01*
X16503158Y-14381674D02*
X16522206Y-14372150D01*
X16522206Y-14372150D02*
X16550777Y-14372150D01*
X16550777Y-14372150D02*
X16569825Y-14381674D01*
X16646015Y-14581674D02*
X16655539Y-14572150D01*
X16655539Y-14572150D02*
X16674587Y-14543579D01*
X16674587Y-14543579D02*
X16684111Y-14524531D01*
X16684111Y-14524531D02*
X16693634Y-14495960D01*
X16693634Y-14495960D02*
X16703158Y-14448341D01*
X16703158Y-14448341D02*
X16703158Y-14410246D01*
X16703158Y-14410246D02*
X16693634Y-14362627D01*
X16693634Y-14362627D02*
X16684111Y-14334055D01*
X16684111Y-14334055D02*
X16674587Y-14315008D01*
X16674587Y-14315008D02*
X16655539Y-14286436D01*
X16655539Y-14286436D02*
X16646015Y-14276912D01*
D12*
X11460000Y-14648000D02*
X11460000Y-14708000D01*
X11430000Y-14678000D02*
X11490000Y-14678000D01*
D10*
X11788872Y-14569484D02*
X11807920Y-14569484D01*
X11807920Y-14569484D02*
X11826967Y-14579008D01*
X11826967Y-14579008D02*
X11836491Y-14588531D01*
X11836491Y-14588531D02*
X11846015Y-14607579D01*
X11846015Y-14607579D02*
X11855539Y-14645674D01*
X11855539Y-14645674D02*
X11855539Y-14693293D01*
X11855539Y-14693293D02*
X11846015Y-14731388D01*
X11846015Y-14731388D02*
X11836491Y-14750436D01*
X11836491Y-14750436D02*
X11826967Y-14759960D01*
X11826967Y-14759960D02*
X11807920Y-14769484D01*
X11807920Y-14769484D02*
X11788872Y-14769484D01*
X11788872Y-14769484D02*
X11769824Y-14759960D01*
X11769824Y-14759960D02*
X11760301Y-14750436D01*
X11760301Y-14750436D02*
X11750777Y-14731388D01*
X11750777Y-14731388D02*
X11741253Y-14693293D01*
X11741253Y-14693293D02*
X11741253Y-14645674D01*
X11741253Y-14645674D02*
X11750777Y-14607579D01*
X11750777Y-14607579D02*
X11760301Y-14588531D01*
X11760301Y-14588531D02*
X11769824Y-14579008D01*
X11769824Y-14579008D02*
X11788872Y-14569484D01*
X11941253Y-14750436D02*
X11950777Y-14759960D01*
X11950777Y-14759960D02*
X11941253Y-14769484D01*
X11941253Y-14769484D02*
X11931729Y-14759960D01*
X11931729Y-14759960D02*
X11941253Y-14750436D01*
X11941253Y-14750436D02*
X11941253Y-14769484D01*
X12122205Y-14569484D02*
X12084110Y-14569484D01*
X12084110Y-14569484D02*
X12065062Y-14579008D01*
X12065062Y-14579008D02*
X12055539Y-14588531D01*
X12055539Y-14588531D02*
X12036491Y-14617103D01*
X12036491Y-14617103D02*
X12026967Y-14655198D01*
X12026967Y-14655198D02*
X12026967Y-14731388D01*
X12026967Y-14731388D02*
X12036491Y-14750436D01*
X12036491Y-14750436D02*
X12046015Y-14759960D01*
X12046015Y-14759960D02*
X12065062Y-14769484D01*
X12065062Y-14769484D02*
X12103158Y-14769484D01*
X12103158Y-14769484D02*
X12122205Y-14759960D01*
X12122205Y-14759960D02*
X12131729Y-14750436D01*
X12131729Y-14750436D02*
X12141253Y-14731388D01*
X12141253Y-14731388D02*
X12141253Y-14683769D01*
X12141253Y-14683769D02*
X12131729Y-14664722D01*
X12131729Y-14664722D02*
X12122205Y-14655198D01*
X12122205Y-14655198D02*
X12103158Y-14645674D01*
X12103158Y-14645674D02*
X12065062Y-14645674D01*
X12065062Y-14645674D02*
X12046015Y-14655198D01*
X12046015Y-14655198D02*
X12036491Y-14664722D01*
X12036491Y-14664722D02*
X12026967Y-14683769D01*
X12265062Y-14569484D02*
X12284110Y-14569484D01*
X12284110Y-14569484D02*
X12303158Y-14579008D01*
X12303158Y-14579008D02*
X12312682Y-14588531D01*
X12312682Y-14588531D02*
X12322205Y-14607579D01*
X12322205Y-14607579D02*
X12331729Y-14645674D01*
X12331729Y-14645674D02*
X12331729Y-14693293D01*
X12331729Y-14693293D02*
X12322205Y-14731388D01*
X12322205Y-14731388D02*
X12312682Y-14750436D01*
X12312682Y-14750436D02*
X12303158Y-14759960D01*
X12303158Y-14759960D02*
X12284110Y-14769484D01*
X12284110Y-14769484D02*
X12265062Y-14769484D01*
X12265062Y-14769484D02*
X12246015Y-14759960D01*
X12246015Y-14759960D02*
X12236491Y-14750436D01*
X12236491Y-14750436D02*
X12226967Y-14731388D01*
X12226967Y-14731388D02*
X12217443Y-14693293D01*
X12217443Y-14693293D02*
X12217443Y-14645674D01*
X12217443Y-14645674D02*
X12226967Y-14607579D01*
X12226967Y-14607579D02*
X12236491Y-14588531D01*
X12236491Y-14588531D02*
X12246015Y-14579008D01*
X12246015Y-14579008D02*
X12265062Y-14569484D01*
X12455539Y-14569484D02*
X12474586Y-14569484D01*
X12474586Y-14569484D02*
X12493634Y-14579008D01*
X12493634Y-14579008D02*
X12503158Y-14588531D01*
X12503158Y-14588531D02*
X12512682Y-14607579D01*
X12512682Y-14607579D02*
X12522205Y-14645674D01*
X12522205Y-14645674D02*
X12522205Y-14693293D01*
X12522205Y-14693293D02*
X12512682Y-14731388D01*
X12512682Y-14731388D02*
X12503158Y-14750436D01*
X12503158Y-14750436D02*
X12493634Y-14759960D01*
X12493634Y-14759960D02*
X12474586Y-14769484D01*
X12474586Y-14769484D02*
X12455539Y-14769484D01*
X12455539Y-14769484D02*
X12436491Y-14759960D01*
X12436491Y-14759960D02*
X12426967Y-14750436D01*
X12426967Y-14750436D02*
X12417443Y-14731388D01*
X12417443Y-14731388D02*
X12407920Y-14693293D01*
X12407920Y-14693293D02*
X12407920Y-14645674D01*
X12407920Y-14645674D02*
X12417443Y-14607579D01*
X12417443Y-14607579D02*
X12426967Y-14588531D01*
X12426967Y-14588531D02*
X12436491Y-14579008D01*
X12436491Y-14579008D02*
X12455539Y-14569484D01*
X12607920Y-14769484D02*
X12607920Y-14636150D01*
X12607920Y-14655198D02*
X12617443Y-14645674D01*
X12617443Y-14645674D02*
X12636491Y-14636150D01*
X12636491Y-14636150D02*
X12665063Y-14636150D01*
X12665063Y-14636150D02*
X12684110Y-14645674D01*
X12684110Y-14645674D02*
X12693634Y-14664722D01*
X12693634Y-14664722D02*
X12693634Y-14769484D01*
X12693634Y-14664722D02*
X12703158Y-14645674D01*
X12703158Y-14645674D02*
X12722205Y-14636150D01*
X12722205Y-14636150D02*
X12750777Y-14636150D01*
X12750777Y-14636150D02*
X12769824Y-14645674D01*
X12769824Y-14645674D02*
X12779348Y-14664722D01*
X12779348Y-14664722D02*
X12779348Y-14769484D01*
X12874586Y-14769484D02*
X12874586Y-14636150D01*
X12874586Y-14655198D02*
X12884110Y-14645674D01*
X12884110Y-14645674D02*
X12903158Y-14636150D01*
X12903158Y-14636150D02*
X12931729Y-14636150D01*
X12931729Y-14636150D02*
X12950777Y-14645674D01*
X12950777Y-14645674D02*
X12960301Y-14664722D01*
X12960301Y-14664722D02*
X12960301Y-14769484D01*
X12960301Y-14664722D02*
X12969824Y-14645674D01*
X12969824Y-14645674D02*
X12988872Y-14636150D01*
X12988872Y-14636150D02*
X13017443Y-14636150D01*
X13017443Y-14636150D02*
X13036491Y-14645674D01*
X13036491Y-14645674D02*
X13046015Y-14664722D01*
X13046015Y-14664722D02*
X13046015Y-14769484D01*
X13436491Y-14559960D02*
X13265063Y-14817103D01*
X13693634Y-14569484D02*
X13712682Y-14569484D01*
X13712682Y-14569484D02*
X13731729Y-14579008D01*
X13731729Y-14579008D02*
X13741253Y-14588531D01*
X13741253Y-14588531D02*
X13750777Y-14607579D01*
X13750777Y-14607579D02*
X13760301Y-14645674D01*
X13760301Y-14645674D02*
X13760301Y-14693293D01*
X13760301Y-14693293D02*
X13750777Y-14731388D01*
X13750777Y-14731388D02*
X13741253Y-14750436D01*
X13741253Y-14750436D02*
X13731729Y-14759960D01*
X13731729Y-14759960D02*
X13712682Y-14769484D01*
X13712682Y-14769484D02*
X13693634Y-14769484D01*
X13693634Y-14769484D02*
X13674586Y-14759960D01*
X13674586Y-14759960D02*
X13665063Y-14750436D01*
X13665063Y-14750436D02*
X13655539Y-14731388D01*
X13655539Y-14731388D02*
X13646015Y-14693293D01*
X13646015Y-14693293D02*
X13646015Y-14645674D01*
X13646015Y-14645674D02*
X13655539Y-14607579D01*
X13655539Y-14607579D02*
X13665063Y-14588531D01*
X13665063Y-14588531D02*
X13674586Y-14579008D01*
X13674586Y-14579008D02*
X13693634Y-14569484D01*
X13846015Y-14750436D02*
X13855539Y-14759960D01*
X13855539Y-14759960D02*
X13846015Y-14769484D01*
X13846015Y-14769484D02*
X13836491Y-14759960D01*
X13836491Y-14759960D02*
X13846015Y-14750436D01*
X13846015Y-14750436D02*
X13846015Y-14769484D01*
X13979348Y-14569484D02*
X13998396Y-14569484D01*
X13998396Y-14569484D02*
X14017444Y-14579008D01*
X14017444Y-14579008D02*
X14026967Y-14588531D01*
X14026967Y-14588531D02*
X14036491Y-14607579D01*
X14036491Y-14607579D02*
X14046015Y-14645674D01*
X14046015Y-14645674D02*
X14046015Y-14693293D01*
X14046015Y-14693293D02*
X14036491Y-14731388D01*
X14036491Y-14731388D02*
X14026967Y-14750436D01*
X14026967Y-14750436D02*
X14017444Y-14759960D01*
X14017444Y-14759960D02*
X13998396Y-14769484D01*
X13998396Y-14769484D02*
X13979348Y-14769484D01*
X13979348Y-14769484D02*
X13960301Y-14759960D01*
X13960301Y-14759960D02*
X13950777Y-14750436D01*
X13950777Y-14750436D02*
X13941253Y-14731388D01*
X13941253Y-14731388D02*
X13931729Y-14693293D01*
X13931729Y-14693293D02*
X13931729Y-14645674D01*
X13931729Y-14645674D02*
X13941253Y-14607579D01*
X13941253Y-14607579D02*
X13950777Y-14588531D01*
X13950777Y-14588531D02*
X13960301Y-14579008D01*
X13960301Y-14579008D02*
X13979348Y-14569484D01*
X14122206Y-14588531D02*
X14131729Y-14579008D01*
X14131729Y-14579008D02*
X14150777Y-14569484D01*
X14150777Y-14569484D02*
X14198396Y-14569484D01*
X14198396Y-14569484D02*
X14217444Y-14579008D01*
X14217444Y-14579008D02*
X14226967Y-14588531D01*
X14226967Y-14588531D02*
X14236491Y-14607579D01*
X14236491Y-14607579D02*
X14236491Y-14626627D01*
X14236491Y-14626627D02*
X14226967Y-14655198D01*
X14226967Y-14655198D02*
X14112682Y-14769484D01*
X14112682Y-14769484D02*
X14236491Y-14769484D01*
X14303158Y-14569484D02*
X14426967Y-14569484D01*
X14426967Y-14569484D02*
X14360301Y-14645674D01*
X14360301Y-14645674D02*
X14388872Y-14645674D01*
X14388872Y-14645674D02*
X14407920Y-14655198D01*
X14407920Y-14655198D02*
X14417444Y-14664722D01*
X14417444Y-14664722D02*
X14426967Y-14683769D01*
X14426967Y-14683769D02*
X14426967Y-14731388D01*
X14426967Y-14731388D02*
X14417444Y-14750436D01*
X14417444Y-14750436D02*
X14407920Y-14759960D01*
X14407920Y-14759960D02*
X14388872Y-14769484D01*
X14388872Y-14769484D02*
X14331729Y-14769484D01*
X14331729Y-14769484D02*
X14312682Y-14759960D01*
X14312682Y-14759960D02*
X14303158Y-14750436D01*
X14598396Y-14569484D02*
X14560301Y-14569484D01*
X14560301Y-14569484D02*
X14541253Y-14579008D01*
X14541253Y-14579008D02*
X14531729Y-14588531D01*
X14531729Y-14588531D02*
X14512682Y-14617103D01*
X14512682Y-14617103D02*
X14503158Y-14655198D01*
X14503158Y-14655198D02*
X14503158Y-14731388D01*
X14503158Y-14731388D02*
X14512682Y-14750436D01*
X14512682Y-14750436D02*
X14522206Y-14759960D01*
X14522206Y-14759960D02*
X14541253Y-14769484D01*
X14541253Y-14769484D02*
X14579348Y-14769484D01*
X14579348Y-14769484D02*
X14598396Y-14759960D01*
X14598396Y-14759960D02*
X14607920Y-14750436D01*
X14607920Y-14750436D02*
X14617444Y-14731388D01*
X14617444Y-14731388D02*
X14617444Y-14683769D01*
X14617444Y-14683769D02*
X14607920Y-14664722D01*
X14607920Y-14664722D02*
X14598396Y-14655198D01*
X14598396Y-14655198D02*
X14579348Y-14645674D01*
X14579348Y-14645674D02*
X14541253Y-14645674D01*
X14541253Y-14645674D02*
X14522206Y-14655198D01*
X14522206Y-14655198D02*
X14512682Y-14664722D01*
X14512682Y-14664722D02*
X14503158Y-14683769D01*
X14693634Y-14569484D02*
X14693634Y-14607579D01*
X14769825Y-14569484D02*
X14769825Y-14607579D01*
X15065063Y-14845674D02*
X15055539Y-14836150D01*
X15055539Y-14836150D02*
X15036491Y-14807579D01*
X15036491Y-14807579D02*
X15026968Y-14788531D01*
X15026968Y-14788531D02*
X15017444Y-14759960D01*
X15017444Y-14759960D02*
X15007920Y-14712341D01*
X15007920Y-14712341D02*
X15007920Y-14674246D01*
X15007920Y-14674246D02*
X15017444Y-14626627D01*
X15017444Y-14626627D02*
X15026968Y-14598055D01*
X15026968Y-14598055D02*
X15036491Y-14579008D01*
X15036491Y-14579008D02*
X15055539Y-14550436D01*
X15055539Y-14550436D02*
X15065063Y-14540912D01*
X15179348Y-14569484D02*
X15198396Y-14569484D01*
X15198396Y-14569484D02*
X15217444Y-14579008D01*
X15217444Y-14579008D02*
X15226968Y-14588531D01*
X15226968Y-14588531D02*
X15236491Y-14607579D01*
X15236491Y-14607579D02*
X15246015Y-14645674D01*
X15246015Y-14645674D02*
X15246015Y-14693293D01*
X15246015Y-14693293D02*
X15236491Y-14731388D01*
X15236491Y-14731388D02*
X15226968Y-14750436D01*
X15226968Y-14750436D02*
X15217444Y-14759960D01*
X15217444Y-14759960D02*
X15198396Y-14769484D01*
X15198396Y-14769484D02*
X15179348Y-14769484D01*
X15179348Y-14769484D02*
X15160301Y-14759960D01*
X15160301Y-14759960D02*
X15150777Y-14750436D01*
X15150777Y-14750436D02*
X15141253Y-14731388D01*
X15141253Y-14731388D02*
X15131729Y-14693293D01*
X15131729Y-14693293D02*
X15131729Y-14645674D01*
X15131729Y-14645674D02*
X15141253Y-14607579D01*
X15141253Y-14607579D02*
X15150777Y-14588531D01*
X15150777Y-14588531D02*
X15160301Y-14579008D01*
X15160301Y-14579008D02*
X15179348Y-14569484D01*
X15484110Y-14769484D02*
X15484110Y-14569484D01*
X15569825Y-14769484D02*
X15569825Y-14664722D01*
X15569825Y-14664722D02*
X15560301Y-14645674D01*
X15560301Y-14645674D02*
X15541253Y-14636150D01*
X15541253Y-14636150D02*
X15512682Y-14636150D01*
X15512682Y-14636150D02*
X15493634Y-14645674D01*
X15493634Y-14645674D02*
X15484110Y-14655198D01*
X15693634Y-14769484D02*
X15674587Y-14759960D01*
X15674587Y-14759960D02*
X15665063Y-14750436D01*
X15665063Y-14750436D02*
X15655539Y-14731388D01*
X15655539Y-14731388D02*
X15655539Y-14674246D01*
X15655539Y-14674246D02*
X15665063Y-14655198D01*
X15665063Y-14655198D02*
X15674587Y-14645674D01*
X15674587Y-14645674D02*
X15693634Y-14636150D01*
X15693634Y-14636150D02*
X15722206Y-14636150D01*
X15722206Y-14636150D02*
X15741253Y-14645674D01*
X15741253Y-14645674D02*
X15750777Y-14655198D01*
X15750777Y-14655198D02*
X15760301Y-14674246D01*
X15760301Y-14674246D02*
X15760301Y-14731388D01*
X15760301Y-14731388D02*
X15750777Y-14750436D01*
X15750777Y-14750436D02*
X15741253Y-14759960D01*
X15741253Y-14759960D02*
X15722206Y-14769484D01*
X15722206Y-14769484D02*
X15693634Y-14769484D01*
X15874587Y-14769484D02*
X15855539Y-14759960D01*
X15855539Y-14759960D02*
X15846015Y-14740912D01*
X15846015Y-14740912D02*
X15846015Y-14569484D01*
X16026968Y-14759960D02*
X16007920Y-14769484D01*
X16007920Y-14769484D02*
X15969825Y-14769484D01*
X15969825Y-14769484D02*
X15950777Y-14759960D01*
X15950777Y-14759960D02*
X15941253Y-14740912D01*
X15941253Y-14740912D02*
X15941253Y-14664722D01*
X15941253Y-14664722D02*
X15950777Y-14645674D01*
X15950777Y-14645674D02*
X15969825Y-14636150D01*
X15969825Y-14636150D02*
X16007920Y-14636150D01*
X16007920Y-14636150D02*
X16026968Y-14645674D01*
X16026968Y-14645674D02*
X16036491Y-14664722D01*
X16036491Y-14664722D02*
X16036491Y-14683769D01*
X16036491Y-14683769D02*
X15941253Y-14702817D01*
X16112682Y-14759960D02*
X16131730Y-14769484D01*
X16131730Y-14769484D02*
X16169825Y-14769484D01*
X16169825Y-14769484D02*
X16188872Y-14759960D01*
X16188872Y-14759960D02*
X16198396Y-14740912D01*
X16198396Y-14740912D02*
X16198396Y-14731388D01*
X16198396Y-14731388D02*
X16188872Y-14712341D01*
X16188872Y-14712341D02*
X16169825Y-14702817D01*
X16169825Y-14702817D02*
X16141253Y-14702817D01*
X16141253Y-14702817D02*
X16122206Y-14693293D01*
X16122206Y-14693293D02*
X16112682Y-14674246D01*
X16112682Y-14674246D02*
X16112682Y-14664722D01*
X16112682Y-14664722D02*
X16122206Y-14645674D01*
X16122206Y-14645674D02*
X16141253Y-14636150D01*
X16141253Y-14636150D02*
X16169825Y-14636150D01*
X16169825Y-14636150D02*
X16188872Y-14645674D01*
X16436492Y-14693293D02*
X16588873Y-14693293D01*
X16512682Y-14769484D02*
X16512682Y-14617103D01*
X16922206Y-14636150D02*
X16922206Y-14769484D01*
X16874587Y-14559960D02*
X16826968Y-14702817D01*
X16826968Y-14702817D02*
X16950777Y-14702817D01*
X17169825Y-14759960D02*
X17188873Y-14769484D01*
X17188873Y-14769484D02*
X17226968Y-14769484D01*
X17226968Y-14769484D02*
X17246016Y-14759960D01*
X17246016Y-14759960D02*
X17255539Y-14740912D01*
X17255539Y-14740912D02*
X17255539Y-14731388D01*
X17255539Y-14731388D02*
X17246016Y-14712341D01*
X17246016Y-14712341D02*
X17226968Y-14702817D01*
X17226968Y-14702817D02*
X17198396Y-14702817D01*
X17198396Y-14702817D02*
X17179349Y-14693293D01*
X17179349Y-14693293D02*
X17169825Y-14674246D01*
X17169825Y-14674246D02*
X17169825Y-14664722D01*
X17169825Y-14664722D02*
X17179349Y-14645674D01*
X17179349Y-14645674D02*
X17198396Y-14636150D01*
X17198396Y-14636150D02*
X17226968Y-14636150D01*
X17226968Y-14636150D02*
X17246016Y-14645674D01*
X17369825Y-14769484D02*
X17350777Y-14759960D01*
X17350777Y-14759960D02*
X17341254Y-14740912D01*
X17341254Y-14740912D02*
X17341254Y-14569484D01*
X17474587Y-14769484D02*
X17455539Y-14759960D01*
X17455539Y-14759960D02*
X17446016Y-14750436D01*
X17446016Y-14750436D02*
X17436492Y-14731388D01*
X17436492Y-14731388D02*
X17436492Y-14674246D01*
X17436492Y-14674246D02*
X17446016Y-14655198D01*
X17446016Y-14655198D02*
X17455539Y-14645674D01*
X17455539Y-14645674D02*
X17474587Y-14636150D01*
X17474587Y-14636150D02*
X17503158Y-14636150D01*
X17503158Y-14636150D02*
X17522206Y-14645674D01*
X17522206Y-14645674D02*
X17531730Y-14655198D01*
X17531730Y-14655198D02*
X17541254Y-14674246D01*
X17541254Y-14674246D02*
X17541254Y-14731388D01*
X17541254Y-14731388D02*
X17531730Y-14750436D01*
X17531730Y-14750436D02*
X17522206Y-14759960D01*
X17522206Y-14759960D02*
X17503158Y-14769484D01*
X17503158Y-14769484D02*
X17474587Y-14769484D01*
X17598397Y-14636150D02*
X17674587Y-14636150D01*
X17626968Y-14569484D02*
X17626968Y-14740912D01*
X17626968Y-14740912D02*
X17636492Y-14759960D01*
X17636492Y-14759960D02*
X17655539Y-14769484D01*
X17655539Y-14769484D02*
X17674587Y-14769484D01*
X17731730Y-14759960D02*
X17750777Y-14769484D01*
X17750777Y-14769484D02*
X17788873Y-14769484D01*
X17788873Y-14769484D02*
X17807920Y-14759960D01*
X17807920Y-14759960D02*
X17817444Y-14740912D01*
X17817444Y-14740912D02*
X17817444Y-14731388D01*
X17817444Y-14731388D02*
X17807920Y-14712341D01*
X17807920Y-14712341D02*
X17788873Y-14702817D01*
X17788873Y-14702817D02*
X17760301Y-14702817D01*
X17760301Y-14702817D02*
X17741254Y-14693293D01*
X17741254Y-14693293D02*
X17731730Y-14674246D01*
X17731730Y-14674246D02*
X17731730Y-14664722D01*
X17731730Y-14664722D02*
X17741254Y-14645674D01*
X17741254Y-14645674D02*
X17760301Y-14636150D01*
X17760301Y-14636150D02*
X17788873Y-14636150D01*
X17788873Y-14636150D02*
X17807920Y-14645674D01*
X17884111Y-14845674D02*
X17893635Y-14836150D01*
X17893635Y-14836150D02*
X17912682Y-14807579D01*
X17912682Y-14807579D02*
X17922206Y-14788531D01*
X17922206Y-14788531D02*
X17931730Y-14759960D01*
X17931730Y-14759960D02*
X17941254Y-14712341D01*
X17941254Y-14712341D02*
X17941254Y-14674246D01*
X17941254Y-14674246D02*
X17931730Y-14626627D01*
X17931730Y-14626627D02*
X17922206Y-14598055D01*
X17922206Y-14598055D02*
X17912682Y-14579008D01*
X17912682Y-14579008D02*
X17893635Y-14550436D01*
X17893635Y-14550436D02*
X17884111Y-14540912D01*
D12*
X11475356Y-14977356D02*
X11475356Y-14906644D01*
X11404644Y-14906644D01*
X11404644Y-14977356D01*
X11475356Y-14977356D01*
D10*
X11855539Y-15033484D02*
X11741253Y-15033484D01*
X11798396Y-15033484D02*
X11798396Y-14833484D01*
X11798396Y-14833484D02*
X11779348Y-14862055D01*
X11779348Y-14862055D02*
X11760301Y-14881103D01*
X11760301Y-14881103D02*
X11741253Y-14890627D01*
X11941253Y-15014436D02*
X11950777Y-15023960D01*
X11950777Y-15023960D02*
X11941253Y-15033484D01*
X11941253Y-15033484D02*
X11931729Y-15023960D01*
X11931729Y-15023960D02*
X11941253Y-15014436D01*
X11941253Y-15014436D02*
X11941253Y-15033484D01*
X12074586Y-14833484D02*
X12093634Y-14833484D01*
X12093634Y-14833484D02*
X12112682Y-14843008D01*
X12112682Y-14843008D02*
X12122205Y-14852531D01*
X12122205Y-14852531D02*
X12131729Y-14871579D01*
X12131729Y-14871579D02*
X12141253Y-14909674D01*
X12141253Y-14909674D02*
X12141253Y-14957293D01*
X12141253Y-14957293D02*
X12131729Y-14995388D01*
X12131729Y-14995388D02*
X12122205Y-15014436D01*
X12122205Y-15014436D02*
X12112682Y-15023960D01*
X12112682Y-15023960D02*
X12093634Y-15033484D01*
X12093634Y-15033484D02*
X12074586Y-15033484D01*
X12074586Y-15033484D02*
X12055539Y-15023960D01*
X12055539Y-15023960D02*
X12046015Y-15014436D01*
X12046015Y-15014436D02*
X12036491Y-14995388D01*
X12036491Y-14995388D02*
X12026967Y-14957293D01*
X12026967Y-14957293D02*
X12026967Y-14909674D01*
X12026967Y-14909674D02*
X12036491Y-14871579D01*
X12036491Y-14871579D02*
X12046015Y-14852531D01*
X12046015Y-14852531D02*
X12055539Y-14843008D01*
X12055539Y-14843008D02*
X12074586Y-14833484D01*
X12265062Y-14833484D02*
X12284110Y-14833484D01*
X12284110Y-14833484D02*
X12303158Y-14843008D01*
X12303158Y-14843008D02*
X12312682Y-14852531D01*
X12312682Y-14852531D02*
X12322205Y-14871579D01*
X12322205Y-14871579D02*
X12331729Y-14909674D01*
X12331729Y-14909674D02*
X12331729Y-14957293D01*
X12331729Y-14957293D02*
X12322205Y-14995388D01*
X12322205Y-14995388D02*
X12312682Y-15014436D01*
X12312682Y-15014436D02*
X12303158Y-15023960D01*
X12303158Y-15023960D02*
X12284110Y-15033484D01*
X12284110Y-15033484D02*
X12265062Y-15033484D01*
X12265062Y-15033484D02*
X12246015Y-15023960D01*
X12246015Y-15023960D02*
X12236491Y-15014436D01*
X12236491Y-15014436D02*
X12226967Y-14995388D01*
X12226967Y-14995388D02*
X12217443Y-14957293D01*
X12217443Y-14957293D02*
X12217443Y-14909674D01*
X12217443Y-14909674D02*
X12226967Y-14871579D01*
X12226967Y-14871579D02*
X12236491Y-14852531D01*
X12236491Y-14852531D02*
X12246015Y-14843008D01*
X12246015Y-14843008D02*
X12265062Y-14833484D01*
X12455539Y-14833484D02*
X12474586Y-14833484D01*
X12474586Y-14833484D02*
X12493634Y-14843008D01*
X12493634Y-14843008D02*
X12503158Y-14852531D01*
X12503158Y-14852531D02*
X12512682Y-14871579D01*
X12512682Y-14871579D02*
X12522205Y-14909674D01*
X12522205Y-14909674D02*
X12522205Y-14957293D01*
X12522205Y-14957293D02*
X12512682Y-14995388D01*
X12512682Y-14995388D02*
X12503158Y-15014436D01*
X12503158Y-15014436D02*
X12493634Y-15023960D01*
X12493634Y-15023960D02*
X12474586Y-15033484D01*
X12474586Y-15033484D02*
X12455539Y-15033484D01*
X12455539Y-15033484D02*
X12436491Y-15023960D01*
X12436491Y-15023960D02*
X12426967Y-15014436D01*
X12426967Y-15014436D02*
X12417443Y-14995388D01*
X12417443Y-14995388D02*
X12407920Y-14957293D01*
X12407920Y-14957293D02*
X12407920Y-14909674D01*
X12407920Y-14909674D02*
X12417443Y-14871579D01*
X12417443Y-14871579D02*
X12426967Y-14852531D01*
X12426967Y-14852531D02*
X12436491Y-14843008D01*
X12436491Y-14843008D02*
X12455539Y-14833484D01*
X12607920Y-15033484D02*
X12607920Y-14900150D01*
X12607920Y-14919198D02*
X12617443Y-14909674D01*
X12617443Y-14909674D02*
X12636491Y-14900150D01*
X12636491Y-14900150D02*
X12665063Y-14900150D01*
X12665063Y-14900150D02*
X12684110Y-14909674D01*
X12684110Y-14909674D02*
X12693634Y-14928722D01*
X12693634Y-14928722D02*
X12693634Y-15033484D01*
X12693634Y-14928722D02*
X12703158Y-14909674D01*
X12703158Y-14909674D02*
X12722205Y-14900150D01*
X12722205Y-14900150D02*
X12750777Y-14900150D01*
X12750777Y-14900150D02*
X12769824Y-14909674D01*
X12769824Y-14909674D02*
X12779348Y-14928722D01*
X12779348Y-14928722D02*
X12779348Y-15033484D01*
X12874586Y-15033484D02*
X12874586Y-14900150D01*
X12874586Y-14919198D02*
X12884110Y-14909674D01*
X12884110Y-14909674D02*
X12903158Y-14900150D01*
X12903158Y-14900150D02*
X12931729Y-14900150D01*
X12931729Y-14900150D02*
X12950777Y-14909674D01*
X12950777Y-14909674D02*
X12960301Y-14928722D01*
X12960301Y-14928722D02*
X12960301Y-15033484D01*
X12960301Y-14928722D02*
X12969824Y-14909674D01*
X12969824Y-14909674D02*
X12988872Y-14900150D01*
X12988872Y-14900150D02*
X13017443Y-14900150D01*
X13017443Y-14900150D02*
X13036491Y-14909674D01*
X13036491Y-14909674D02*
X13046015Y-14928722D01*
X13046015Y-14928722D02*
X13046015Y-15033484D01*
X13436491Y-14823960D02*
X13265063Y-15081103D01*
X13693634Y-14833484D02*
X13712682Y-14833484D01*
X13712682Y-14833484D02*
X13731729Y-14843008D01*
X13731729Y-14843008D02*
X13741253Y-14852531D01*
X13741253Y-14852531D02*
X13750777Y-14871579D01*
X13750777Y-14871579D02*
X13760301Y-14909674D01*
X13760301Y-14909674D02*
X13760301Y-14957293D01*
X13760301Y-14957293D02*
X13750777Y-14995388D01*
X13750777Y-14995388D02*
X13741253Y-15014436D01*
X13741253Y-15014436D02*
X13731729Y-15023960D01*
X13731729Y-15023960D02*
X13712682Y-15033484D01*
X13712682Y-15033484D02*
X13693634Y-15033484D01*
X13693634Y-15033484D02*
X13674586Y-15023960D01*
X13674586Y-15023960D02*
X13665063Y-15014436D01*
X13665063Y-15014436D02*
X13655539Y-14995388D01*
X13655539Y-14995388D02*
X13646015Y-14957293D01*
X13646015Y-14957293D02*
X13646015Y-14909674D01*
X13646015Y-14909674D02*
X13655539Y-14871579D01*
X13655539Y-14871579D02*
X13665063Y-14852531D01*
X13665063Y-14852531D02*
X13674586Y-14843008D01*
X13674586Y-14843008D02*
X13693634Y-14833484D01*
X13846015Y-15014436D02*
X13855539Y-15023960D01*
X13855539Y-15023960D02*
X13846015Y-15033484D01*
X13846015Y-15033484D02*
X13836491Y-15023960D01*
X13836491Y-15023960D02*
X13846015Y-15014436D01*
X13846015Y-15014436D02*
X13846015Y-15033484D01*
X13979348Y-14833484D02*
X13998396Y-14833484D01*
X13998396Y-14833484D02*
X14017444Y-14843008D01*
X14017444Y-14843008D02*
X14026967Y-14852531D01*
X14026967Y-14852531D02*
X14036491Y-14871579D01*
X14036491Y-14871579D02*
X14046015Y-14909674D01*
X14046015Y-14909674D02*
X14046015Y-14957293D01*
X14046015Y-14957293D02*
X14036491Y-14995388D01*
X14036491Y-14995388D02*
X14026967Y-15014436D01*
X14026967Y-15014436D02*
X14017444Y-15023960D01*
X14017444Y-15023960D02*
X13998396Y-15033484D01*
X13998396Y-15033484D02*
X13979348Y-15033484D01*
X13979348Y-15033484D02*
X13960301Y-15023960D01*
X13960301Y-15023960D02*
X13950777Y-15014436D01*
X13950777Y-15014436D02*
X13941253Y-14995388D01*
X13941253Y-14995388D02*
X13931729Y-14957293D01*
X13931729Y-14957293D02*
X13931729Y-14909674D01*
X13931729Y-14909674D02*
X13941253Y-14871579D01*
X13941253Y-14871579D02*
X13950777Y-14852531D01*
X13950777Y-14852531D02*
X13960301Y-14843008D01*
X13960301Y-14843008D02*
X13979348Y-14833484D01*
X14112682Y-14833484D02*
X14236491Y-14833484D01*
X14236491Y-14833484D02*
X14169825Y-14909674D01*
X14169825Y-14909674D02*
X14198396Y-14909674D01*
X14198396Y-14909674D02*
X14217444Y-14919198D01*
X14217444Y-14919198D02*
X14226967Y-14928722D01*
X14226967Y-14928722D02*
X14236491Y-14947769D01*
X14236491Y-14947769D02*
X14236491Y-14995388D01*
X14236491Y-14995388D02*
X14226967Y-15014436D01*
X14226967Y-15014436D02*
X14217444Y-15023960D01*
X14217444Y-15023960D02*
X14198396Y-15033484D01*
X14198396Y-15033484D02*
X14141253Y-15033484D01*
X14141253Y-15033484D02*
X14122206Y-15023960D01*
X14122206Y-15023960D02*
X14112682Y-15014436D01*
X14331729Y-15033484D02*
X14369825Y-15033484D01*
X14369825Y-15033484D02*
X14388872Y-15023960D01*
X14388872Y-15023960D02*
X14398396Y-15014436D01*
X14398396Y-15014436D02*
X14417444Y-14985865D01*
X14417444Y-14985865D02*
X14426967Y-14947769D01*
X14426967Y-14947769D02*
X14426967Y-14871579D01*
X14426967Y-14871579D02*
X14417444Y-14852531D01*
X14417444Y-14852531D02*
X14407920Y-14843008D01*
X14407920Y-14843008D02*
X14388872Y-14833484D01*
X14388872Y-14833484D02*
X14350777Y-14833484D01*
X14350777Y-14833484D02*
X14331729Y-14843008D01*
X14331729Y-14843008D02*
X14322206Y-14852531D01*
X14322206Y-14852531D02*
X14312682Y-14871579D01*
X14312682Y-14871579D02*
X14312682Y-14919198D01*
X14312682Y-14919198D02*
X14322206Y-14938246D01*
X14322206Y-14938246D02*
X14331729Y-14947769D01*
X14331729Y-14947769D02*
X14350777Y-14957293D01*
X14350777Y-14957293D02*
X14388872Y-14957293D01*
X14388872Y-14957293D02*
X14407920Y-14947769D01*
X14407920Y-14947769D02*
X14417444Y-14938246D01*
X14417444Y-14938246D02*
X14426967Y-14919198D01*
X14598396Y-14900150D02*
X14598396Y-15033484D01*
X14550777Y-14823960D02*
X14503158Y-14966817D01*
X14503158Y-14966817D02*
X14626967Y-14966817D01*
X14693634Y-14833484D02*
X14693634Y-14871579D01*
X14769825Y-14833484D02*
X14769825Y-14871579D01*
X15065063Y-15109674D02*
X15055539Y-15100150D01*
X15055539Y-15100150D02*
X15036491Y-15071579D01*
X15036491Y-15071579D02*
X15026968Y-15052531D01*
X15026968Y-15052531D02*
X15017444Y-15023960D01*
X15017444Y-15023960D02*
X15007920Y-14976341D01*
X15007920Y-14976341D02*
X15007920Y-14938246D01*
X15007920Y-14938246D02*
X15017444Y-14890627D01*
X15017444Y-14890627D02*
X15026968Y-14862055D01*
X15026968Y-14862055D02*
X15036491Y-14843008D01*
X15036491Y-14843008D02*
X15055539Y-14814436D01*
X15055539Y-14814436D02*
X15065063Y-14804912D01*
X15150777Y-15033484D02*
X15188872Y-15033484D01*
X15188872Y-15033484D02*
X15207920Y-15023960D01*
X15207920Y-15023960D02*
X15217444Y-15014436D01*
X15217444Y-15014436D02*
X15236491Y-14985865D01*
X15236491Y-14985865D02*
X15246015Y-14947769D01*
X15246015Y-14947769D02*
X15246015Y-14871579D01*
X15246015Y-14871579D02*
X15236491Y-14852531D01*
X15236491Y-14852531D02*
X15226968Y-14843008D01*
X15226968Y-14843008D02*
X15207920Y-14833484D01*
X15207920Y-14833484D02*
X15169825Y-14833484D01*
X15169825Y-14833484D02*
X15150777Y-14843008D01*
X15150777Y-14843008D02*
X15141253Y-14852531D01*
X15141253Y-14852531D02*
X15131729Y-14871579D01*
X15131729Y-14871579D02*
X15131729Y-14919198D01*
X15131729Y-14919198D02*
X15141253Y-14938246D01*
X15141253Y-14938246D02*
X15150777Y-14947769D01*
X15150777Y-14947769D02*
X15169825Y-14957293D01*
X15169825Y-14957293D02*
X15207920Y-14957293D01*
X15207920Y-14957293D02*
X15226968Y-14947769D01*
X15226968Y-14947769D02*
X15236491Y-14938246D01*
X15236491Y-14938246D02*
X15246015Y-14919198D01*
X15484110Y-15033484D02*
X15484110Y-14833484D01*
X15569825Y-15033484D02*
X15569825Y-14928722D01*
X15569825Y-14928722D02*
X15560301Y-14909674D01*
X15560301Y-14909674D02*
X15541253Y-14900150D01*
X15541253Y-14900150D02*
X15512682Y-14900150D01*
X15512682Y-14900150D02*
X15493634Y-14909674D01*
X15493634Y-14909674D02*
X15484110Y-14919198D01*
X15693634Y-15033484D02*
X15674587Y-15023960D01*
X15674587Y-15023960D02*
X15665063Y-15014436D01*
X15665063Y-15014436D02*
X15655539Y-14995388D01*
X15655539Y-14995388D02*
X15655539Y-14938246D01*
X15655539Y-14938246D02*
X15665063Y-14919198D01*
X15665063Y-14919198D02*
X15674587Y-14909674D01*
X15674587Y-14909674D02*
X15693634Y-14900150D01*
X15693634Y-14900150D02*
X15722206Y-14900150D01*
X15722206Y-14900150D02*
X15741253Y-14909674D01*
X15741253Y-14909674D02*
X15750777Y-14919198D01*
X15750777Y-14919198D02*
X15760301Y-14938246D01*
X15760301Y-14938246D02*
X15760301Y-14995388D01*
X15760301Y-14995388D02*
X15750777Y-15014436D01*
X15750777Y-15014436D02*
X15741253Y-15023960D01*
X15741253Y-15023960D02*
X15722206Y-15033484D01*
X15722206Y-15033484D02*
X15693634Y-15033484D01*
X15874587Y-15033484D02*
X15855539Y-15023960D01*
X15855539Y-15023960D02*
X15846015Y-15004912D01*
X15846015Y-15004912D02*
X15846015Y-14833484D01*
X16026968Y-15023960D02*
X16007920Y-15033484D01*
X16007920Y-15033484D02*
X15969825Y-15033484D01*
X15969825Y-15033484D02*
X15950777Y-15023960D01*
X15950777Y-15023960D02*
X15941253Y-15004912D01*
X15941253Y-15004912D02*
X15941253Y-14928722D01*
X15941253Y-14928722D02*
X15950777Y-14909674D01*
X15950777Y-14909674D02*
X15969825Y-14900150D01*
X15969825Y-14900150D02*
X16007920Y-14900150D01*
X16007920Y-14900150D02*
X16026968Y-14909674D01*
X16026968Y-14909674D02*
X16036491Y-14928722D01*
X16036491Y-14928722D02*
X16036491Y-14947769D01*
X16036491Y-14947769D02*
X15941253Y-14966817D01*
X16112682Y-15023960D02*
X16131730Y-15033484D01*
X16131730Y-15033484D02*
X16169825Y-15033484D01*
X16169825Y-15033484D02*
X16188872Y-15023960D01*
X16188872Y-15023960D02*
X16198396Y-15004912D01*
X16198396Y-15004912D02*
X16198396Y-14995388D01*
X16198396Y-14995388D02*
X16188872Y-14976341D01*
X16188872Y-14976341D02*
X16169825Y-14966817D01*
X16169825Y-14966817D02*
X16141253Y-14966817D01*
X16141253Y-14966817D02*
X16122206Y-14957293D01*
X16122206Y-14957293D02*
X16112682Y-14938246D01*
X16112682Y-14938246D02*
X16112682Y-14928722D01*
X16112682Y-14928722D02*
X16122206Y-14909674D01*
X16122206Y-14909674D02*
X16141253Y-14900150D01*
X16141253Y-14900150D02*
X16169825Y-14900150D01*
X16169825Y-14900150D02*
X16188872Y-14909674D01*
X16265063Y-15109674D02*
X16274587Y-15100150D01*
X16274587Y-15100150D02*
X16293634Y-15071579D01*
X16293634Y-15071579D02*
X16303158Y-15052531D01*
X16303158Y-15052531D02*
X16312682Y-15023960D01*
X16312682Y-15023960D02*
X16322206Y-14976341D01*
X16322206Y-14976341D02*
X16322206Y-14938246D01*
X16322206Y-14938246D02*
X16312682Y-14890627D01*
X16312682Y-14890627D02*
X16303158Y-14862055D01*
X16303158Y-14862055D02*
X16293634Y-14843008D01*
X16293634Y-14843008D02*
X16274587Y-14814436D01*
X16274587Y-14814436D02*
X16265063Y-14804912D01*
M02*
