G04 #@! TF.GenerationSoftware,KiCad,Pcbnew,9.0.6-rc2*
G04 #@! TF.CreationDate,2025-10-27T21:23:21+01:00*
G04 #@! TF.ProjectId,windsensor,77696e64-7365-46e7-936f-722e6b696361,v1.0*
G04 #@! TF.SameCoordinates,Original*
G04 #@! TF.FileFunction,Paste,Bot*
G04 #@! TF.FilePolarity,Positive*
%FSLAX46Y46*%
G04 Gerber Fmt 4.6, Leading zero omitted, Abs format (unit mm)*
G04 Created by KiCad (PCBNEW 9.0.6-rc2) date 2025-10-27 21:23:21*
%MOMM*%
%LPD*%
G01*
G04 APERTURE LIST*
G04 Aperture macros list*
%AMRoundRect*
0 Rectangle with rounded corners*
0 $1 Rounding radius*
0 $2 $3 $4 $5 $6 $7 $8 $9 X,Y pos of 4 corners*
0 Add a 4 corners polygon primitive as box body*
4,1,4,$2,$3,$4,$5,$6,$7,$8,$9,$2,$3,0*
0 Add four circle primitives for the rounded corners*
1,1,$1+$1,$2,$3*
1,1,$1+$1,$4,$5*
1,1,$1+$1,$6,$7*
1,1,$1+$1,$8,$9*
0 Add four rect primitives between the rounded corners*
20,1,$1+$1,$2,$3,$4,$5,0*
20,1,$1+$1,$4,$5,$6,$7,0*
20,1,$1+$1,$6,$7,$8,$9,0*
20,1,$1+$1,$8,$9,$2,$3,0*%
G04 Aperture macros list end*
%ADD10C,0.000000*%
%ADD11C,0.175000*%
%ADD12RoundRect,0.140000X0.170000X-0.140000X0.170000X0.140000X-0.170000X0.140000X-0.170000X-0.140000X0*%
%ADD13RoundRect,0.135000X0.135000X0.185000X-0.135000X0.185000X-0.135000X-0.185000X0.135000X-0.185000X0*%
%ADD14R,0.775498X0.202494*%
%ADD15R,0.199998X0.700000*%
%ADD16R,0.624992X0.200000*%
%ADD17R,0.775503X0.199998*%
%ADD18R,0.200000X0.699998*%
%ADD19R,0.200000X0.599999*%
%ADD20R,0.200000X0.999998*%
%ADD21R,0.825000X0.200000*%
%ADD22R,0.599999X0.200000*%
%ADD23R,0.200001X0.699998*%
%ADD24R,0.699998X0.200001*%
%ADD25R,0.200000X0.618998*%
%ADD26R,0.900000X0.900000*%
%ADD27R,0.900000X1.500000*%
%ADD28R,1.500000X0.900000*%
%ADD29RoundRect,0.140000X-0.170000X0.140000X-0.170000X-0.140000X0.170000X-0.140000X0.170000X0.140000X0*%
%ADD30R,0.480000X0.400000*%
%ADD31RoundRect,0.140000X-0.140000X-0.170000X0.140000X-0.170000X0.140000X0.170000X-0.140000X0.170000X0*%
%ADD32RoundRect,0.140000X0.140000X0.170000X-0.140000X0.170000X-0.140000X-0.170000X0.140000X-0.170000X0*%
%ADD33RoundRect,0.135000X-0.135000X-0.185000X0.135000X-0.185000X0.135000X0.185000X-0.135000X0.185000X0*%
%ADD34RoundRect,0.150000X0.150000X0.425000X-0.150000X0.425000X-0.150000X-0.425000X0.150000X-0.425000X0*%
%ADD35RoundRect,0.075000X0.075000X0.500000X-0.075000X0.500000X-0.075000X-0.500000X0.075000X-0.500000X0*%
%ADD36O,1.000000X1.800000*%
%ADD37O,1.000000X2.100000*%
%ADD38RoundRect,0.175000X-1.675000X0.175000X-1.675000X-0.175000X1.675000X-0.175000X1.675000X0.175000X0*%
%ADD39RoundRect,0.250001X-0.899999X0.499999X-0.899999X-0.499999X0.899999X-0.499999X0.899999X0.499999X0*%
%ADD40R,0.300000X0.750000*%
%ADD41R,0.750000X0.300000*%
%ADD42R,2.700000X2.700000*%
%ADD43RoundRect,0.200000X-0.200000X-0.275000X0.200000X-0.275000X0.200000X0.275000X-0.200000X0.275000X0*%
G04 APERTURE END LIST*
D10*
G04 #@! TO.C,U1*
G36*
X139175001Y-109849999D02*
G01*
X138399498Y-109849999D01*
X138399498Y-109650001D01*
X138975001Y-109650001D01*
X138975001Y-109150000D01*
X139175001Y-109150000D01*
X139175001Y-109849999D01*
G37*
G36*
X139175001Y-111350001D02*
G01*
X139175001Y-112050000D01*
X138975001Y-112050000D01*
X138975001Y-111549999D01*
X138399498Y-111549999D01*
X138399498Y-111349999D01*
X139175001Y-111350001D01*
G37*
G36*
X141174999Y-109650001D02*
G01*
X141799999Y-109650001D01*
X141799999Y-109850001D01*
X140974999Y-109850001D01*
X140974999Y-109150000D01*
X141174999Y-109150000D01*
X141174999Y-109650001D01*
G37*
G36*
X141799999Y-111549999D02*
G01*
X141174999Y-111549999D01*
X141174999Y-112050000D01*
X140974999Y-112050000D01*
X140974999Y-111350001D01*
X141799999Y-111349999D01*
X141799999Y-111549999D01*
G37*
D11*
G04 #@! TO.C,U4*
X141363000Y-99025000D02*
G75*
G02*
X141187000Y-99025000I-88000J0D01*
G01*
X141187000Y-99025000D02*
G75*
G02*
X141363000Y-99025000I88000J0D01*
G01*
X141363000Y-99675000D02*
G75*
G02*
X141187000Y-99675000I-88000J0D01*
G01*
X141187000Y-99675000D02*
G75*
G02*
X141363000Y-99675000I88000J0D01*
G01*
X141363000Y-100325000D02*
G75*
G02*
X141187000Y-100325000I-88000J0D01*
G01*
X141187000Y-100325000D02*
G75*
G02*
X141363000Y-100325000I88000J0D01*
G01*
X141363000Y-100975000D02*
G75*
G02*
X141187000Y-100975000I-88000J0D01*
G01*
X141187000Y-100975000D02*
G75*
G02*
X141363000Y-100975000I88000J0D01*
G01*
X142813000Y-99025000D02*
G75*
G02*
X142637000Y-99025000I-88000J0D01*
G01*
X142637000Y-99025000D02*
G75*
G02*
X142813000Y-99025000I88000J0D01*
G01*
X142813000Y-99675000D02*
G75*
G02*
X142637000Y-99675000I-88000J0D01*
G01*
X142637000Y-99675000D02*
G75*
G02*
X142813000Y-99675000I88000J0D01*
G01*
X142813000Y-100325000D02*
G75*
G02*
X142637000Y-100325000I-88000J0D01*
G01*
X142637000Y-100325000D02*
G75*
G02*
X142813000Y-100325000I88000J0D01*
G01*
X142813000Y-100975000D02*
G75*
G02*
X142637000Y-100975000I-88000J0D01*
G01*
X142637000Y-100975000D02*
G75*
G02*
X142813000Y-100975000I88000J0D01*
G01*
D10*
G04 #@! TO.C,U2*
G36*
X131425001Y-109924999D02*
G01*
X131425001Y-110075001D01*
X131375001Y-110125001D01*
X131224999Y-110125001D01*
X131174999Y-110075001D01*
X131174999Y-109924999D01*
X131224999Y-109874999D01*
X131375001Y-109874999D01*
X131425001Y-109924999D01*
G37*
G36*
X131425001Y-110324998D02*
G01*
X131425001Y-110475000D01*
X131375001Y-110525000D01*
X131224999Y-110525000D01*
X131174999Y-110475000D01*
X131174999Y-110324998D01*
X131224999Y-110274998D01*
X131375001Y-110274998D01*
X131425001Y-110324998D01*
G37*
G36*
X131425001Y-110725000D02*
G01*
X131425001Y-110875002D01*
X131375001Y-110925002D01*
X131224999Y-110925002D01*
X131174999Y-110875002D01*
X131174999Y-110725000D01*
X131224999Y-110675000D01*
X131375001Y-110675000D01*
X131425001Y-110725000D01*
G37*
G36*
X131425001Y-111124999D02*
G01*
X131425001Y-111275001D01*
X131375001Y-111325001D01*
X131224999Y-111325001D01*
X131174999Y-111275001D01*
X131174999Y-111124999D01*
X131224999Y-111074999D01*
X131375001Y-111074999D01*
X131425001Y-111124999D01*
G37*
G36*
X131425001Y-111524998D02*
G01*
X131425001Y-111675001D01*
X131375001Y-111725000D01*
X131224999Y-111725000D01*
X131174999Y-111675001D01*
X131174999Y-111524998D01*
X131224999Y-111474998D01*
X131375001Y-111474998D01*
X131425001Y-111524998D01*
G37*
G36*
X131825000Y-109924999D02*
G01*
X131825000Y-110075001D01*
X131775000Y-110125001D01*
X131624998Y-110125001D01*
X131574998Y-110075001D01*
X131574998Y-109924999D01*
X131624998Y-109874999D01*
X131775000Y-109874999D01*
X131825000Y-109924999D01*
G37*
G36*
X131825000Y-110324998D02*
G01*
X131825000Y-110475000D01*
X131775000Y-110525000D01*
X131624998Y-110525000D01*
X131574998Y-110475000D01*
X131574998Y-110324998D01*
X131624998Y-110274998D01*
X131775000Y-110274998D01*
X131825000Y-110324998D01*
G37*
G36*
X131825000Y-110725000D02*
G01*
X131825000Y-110875002D01*
X131775000Y-110925002D01*
X131624998Y-110925002D01*
X131574998Y-110875002D01*
X131574998Y-110725000D01*
X131624998Y-110675000D01*
X131775000Y-110675000D01*
X131825000Y-110725000D01*
G37*
G36*
X131825000Y-111124999D02*
G01*
X131825000Y-111275001D01*
X131775000Y-111325001D01*
X131624998Y-111325001D01*
X131574998Y-111275001D01*
X131574998Y-111124999D01*
X131624998Y-111074999D01*
X131775000Y-111074999D01*
X131825000Y-111124999D01*
G37*
G36*
X131825000Y-111524998D02*
G01*
X131825000Y-111675001D01*
X131775000Y-111725000D01*
X131624998Y-111725000D01*
X131574998Y-111675001D01*
X131574998Y-111524998D01*
X131624998Y-111474998D01*
X131775000Y-111474998D01*
X131825000Y-111524998D01*
G37*
G36*
X132224999Y-109924999D02*
G01*
X132224999Y-110075001D01*
X132174999Y-110125001D01*
X132024997Y-110125001D01*
X131974997Y-110075001D01*
X131974997Y-109924999D01*
X132024997Y-109874999D01*
X132174999Y-109874999D01*
X132224999Y-109924999D01*
G37*
G36*
X132224999Y-110324998D02*
G01*
X132224999Y-110475000D01*
X132174999Y-110525000D01*
X132024997Y-110525000D01*
X131974997Y-110475000D01*
X131974997Y-110324998D01*
X132024997Y-110274998D01*
X132174999Y-110274998D01*
X132224999Y-110324998D01*
G37*
G36*
X132224999Y-110725000D02*
G01*
X132224999Y-110875002D01*
X132174999Y-110925002D01*
X132024997Y-110925002D01*
X131974997Y-110875002D01*
X131974997Y-110725000D01*
X132024997Y-110675000D01*
X132174999Y-110675000D01*
X132224999Y-110725000D01*
G37*
G36*
X132224999Y-111124999D02*
G01*
X132224999Y-111275001D01*
X132174999Y-111325001D01*
X132024997Y-111325001D01*
X131974997Y-111275001D01*
X131974997Y-111124999D01*
X132024997Y-111074999D01*
X132174999Y-111074999D01*
X132224999Y-111124999D01*
G37*
G36*
X132224999Y-111524998D02*
G01*
X132224999Y-111675001D01*
X132174999Y-111725000D01*
X132024997Y-111725000D01*
X131974997Y-111675001D01*
X131974997Y-111524998D01*
X132024997Y-111474998D01*
X132174999Y-111474998D01*
X132224999Y-111524998D01*
G37*
G04 #@! TD*
D12*
G04 #@! TO.C,C25*
X139600000Y-101450000D03*
X139600000Y-100490000D03*
G04 #@! TD*
D13*
G04 #@! TO.C,R17*
X161860000Y-110250000D03*
X160840000Y-110250000D03*
G04 #@! TD*
D12*
G04 #@! TO.C,C11*
X139900000Y-114500000D03*
X139900000Y-113540000D03*
G04 #@! TD*
D14*
G04 #@! TO.C,U1*
X138787252Y-111450000D03*
D15*
X139075002Y-111700000D03*
D16*
X138712000Y-110992999D03*
X138712000Y-110593000D03*
X138712000Y-110193001D03*
D17*
X138787250Y-109750000D03*
D18*
X139075001Y-109500000D03*
D19*
X139475001Y-109450000D03*
X139875000Y-109450000D03*
D20*
X140275000Y-109650000D03*
X140674999Y-109650000D03*
D15*
X141074998Y-109500000D03*
D21*
X141387499Y-109750000D03*
D22*
X141500000Y-110193001D03*
X141500000Y-110593000D03*
X141500000Y-110992999D03*
D23*
X141074999Y-111699999D03*
D24*
X141450000Y-111450000D03*
D20*
X140674999Y-111550000D03*
X140275000Y-111550000D03*
X139875000Y-111550000D03*
D25*
X139475001Y-111741000D03*
G04 #@! TD*
D26*
G04 #@! TO.C,U3*
X155140000Y-102900000D03*
X156540000Y-102900000D03*
X157940000Y-102900000D03*
X155140000Y-101500000D03*
X156540000Y-101500000D03*
X157940000Y-101500000D03*
X155140000Y-100100000D03*
X156540000Y-100100000D03*
X157940000Y-100100000D03*
D27*
X164260000Y-108750000D03*
X162990000Y-108750000D03*
X161720000Y-108750000D03*
X160450000Y-108750000D03*
X159180000Y-108750000D03*
X157910000Y-108750000D03*
X156640000Y-108750000D03*
X155370000Y-108750000D03*
X154100000Y-108750000D03*
X152830000Y-108750000D03*
X151560000Y-108750000D03*
X150290000Y-108750000D03*
X149020000Y-108750000D03*
X147750000Y-108750000D03*
D28*
X146500000Y-106985000D03*
X146500000Y-105715000D03*
X146500000Y-104445000D03*
X146500000Y-103175000D03*
X146500000Y-101905000D03*
X146500000Y-100635000D03*
X146500000Y-99365000D03*
X146500000Y-98095000D03*
X146500000Y-96825000D03*
X146500000Y-95555000D03*
X146500000Y-94285000D03*
X146500000Y-93015000D03*
D27*
X147750000Y-91250000D03*
X149020000Y-91250000D03*
X150290000Y-91250000D03*
X151560000Y-91250000D03*
X152830000Y-91250000D03*
X154100000Y-91250000D03*
X155370000Y-91250000D03*
X156640000Y-91250000D03*
X157910000Y-91250000D03*
X159180000Y-91250000D03*
X160450000Y-91250000D03*
X161720000Y-91250000D03*
X162990000Y-91250000D03*
X164260000Y-91250000D03*
G04 #@! TD*
D29*
G04 #@! TO.C,C10*
X137300000Y-112120000D03*
X137300000Y-113080000D03*
G04 #@! TD*
D30*
G04 #@! TO.C,D4*
X145280000Y-110750000D03*
X146600000Y-110750000D03*
G04 #@! TD*
D31*
G04 #@! TO.C,C6*
X153000000Y-123300000D03*
X153960000Y-123300000D03*
G04 #@! TD*
D12*
G04 #@! TO.C,C22*
X139600000Y-99550000D03*
X139600000Y-98590000D03*
G04 #@! TD*
D31*
G04 #@! TO.C,C18*
X163215000Y-111300000D03*
X164175000Y-111300000D03*
G04 #@! TD*
D30*
G04 #@! TO.C,D3*
X148340000Y-110750000D03*
X149660000Y-110750000D03*
G04 #@! TD*
D29*
G04 #@! TO.C,C3*
X146900000Y-122300000D03*
X146900000Y-123260000D03*
G04 #@! TD*
D32*
G04 #@! TO.C,C7*
X132060000Y-109000000D03*
X131100000Y-109000000D03*
G04 #@! TD*
D33*
G04 #@! TO.C,R8*
X137990000Y-107050000D03*
X139010000Y-107050000D03*
G04 #@! TD*
D31*
G04 #@! TO.C,C13*
X136340000Y-111150000D03*
X137300000Y-111150000D03*
G04 #@! TD*
D33*
G04 #@! TO.C,R12*
X136280000Y-110100000D03*
X137300000Y-110100000D03*
G04 #@! TD*
D12*
G04 #@! TO.C,C15*
X138900000Y-114010000D03*
X138900000Y-113050000D03*
G04 #@! TD*
D29*
G04 #@! TO.C,C14*
X141275000Y-107190000D03*
X141275000Y-108150000D03*
G04 #@! TD*
D34*
G04 #@! TO.C,J1*
X153200000Y-127610000D03*
X152400000Y-127610000D03*
D35*
X151250000Y-127610000D03*
X150250000Y-127610000D03*
X149750000Y-127610000D03*
X148750000Y-127610000D03*
D34*
X147600000Y-127610000D03*
X146800000Y-127610000D03*
X146800000Y-127610000D03*
X147600000Y-127610000D03*
D35*
X148250000Y-127610000D03*
X149250000Y-127610000D03*
X150750000Y-127610000D03*
X151750000Y-127610000D03*
D34*
X152400000Y-127610000D03*
X153200000Y-127610000D03*
D36*
X154320000Y-132365000D03*
D37*
X154320000Y-128185000D03*
D36*
X145680000Y-132365000D03*
D37*
X145680000Y-128185000D03*
G04 #@! TD*
D33*
G04 #@! TO.C,R7*
X157290000Y-121500000D03*
X158310000Y-121500000D03*
G04 #@! TD*
D32*
G04 #@! TO.C,C21*
X160750000Y-112300000D03*
X159790000Y-112300000D03*
G04 #@! TD*
G04 #@! TO.C,C20*
X160780000Y-111250000D03*
X159820000Y-111250000D03*
G04 #@! TD*
D38*
G04 #@! TO.C,J3*
X132700000Y-99250000D03*
X132700000Y-100750000D03*
D39*
X130600000Y-97200000D03*
X130600000Y-102800000D03*
G04 #@! TD*
D40*
G04 #@! TO.C,IC1*
X148750000Y-119550000D03*
X149250000Y-119550000D03*
X149750000Y-119550000D03*
X150250000Y-119550000D03*
X150750000Y-119550000D03*
X151250000Y-119550000D03*
D41*
X151925000Y-120225000D03*
X151925000Y-120725000D03*
X151925000Y-121225000D03*
X151925000Y-121725000D03*
X151925000Y-122225000D03*
X151925000Y-122725000D03*
D40*
X151250000Y-123400000D03*
X150750000Y-123400000D03*
X150250000Y-123400000D03*
X149750000Y-123400000D03*
X149250000Y-123400000D03*
X148750000Y-123400000D03*
D41*
X148075000Y-122725000D03*
X148075000Y-122225000D03*
X148075000Y-121725000D03*
X148075000Y-121225000D03*
X148075000Y-120725000D03*
X148075000Y-120225000D03*
D42*
X150000000Y-121475000D03*
G04 #@! TD*
D13*
G04 #@! TO.C,R10*
X143600000Y-109050000D03*
X142580000Y-109050000D03*
G04 #@! TD*
D32*
G04 #@! TO.C,C8*
X131300000Y-112600000D03*
X130340000Y-112600000D03*
G04 #@! TD*
D13*
G04 #@! TO.C,R16*
X157860000Y-110250000D03*
X156840000Y-110250000D03*
G04 #@! TD*
D12*
G04 #@! TO.C,C12*
X140900000Y-114460000D03*
X140900000Y-113500000D03*
G04 #@! TD*
D31*
G04 #@! TO.C,C19*
X163190000Y-110250000D03*
X164150000Y-110250000D03*
G04 #@! TD*
D33*
G04 #@! TO.C,R15*
X154730000Y-110250000D03*
X155750000Y-110250000D03*
G04 #@! TD*
D29*
G04 #@! TO.C,C5*
X150600000Y-124600000D03*
X150600000Y-125560000D03*
G04 #@! TD*
D43*
G04 #@! TO.C,TH1*
X151750000Y-124900000D03*
X153400000Y-124900000D03*
G04 #@! TD*
D13*
G04 #@! TO.C,R32*
X152810000Y-111100000D03*
X151790000Y-111100000D03*
G04 #@! TD*
D33*
G04 #@! TO.C,R14*
X133290000Y-110900000D03*
X134310000Y-110900000D03*
G04 #@! TD*
D29*
G04 #@! TO.C,C9*
X140275000Y-107190000D03*
X140275000Y-108150000D03*
G04 #@! TD*
D13*
G04 #@! TO.C,R11*
X134310000Y-111900000D03*
X133290000Y-111900000D03*
G04 #@! TD*
G04 #@! TO.C,R9*
X139020000Y-108100000D03*
X138000000Y-108100000D03*
G04 #@! TD*
M02*
